<svg width="29" height="26" viewBox="0 0 29 26" fill="none" xmlns="http://www.w3.org/2000/svg">
<g clip-path="url(#clip0_21817_21560)">
<path d="M14.4444 15.7526C15.964 15.7526 17.1958 14.5208 17.1958 13.0013C17.1958 11.4818 15.964 10.25 14.4444 10.25C12.9249 10.25 11.6931 11.4818 11.6931 13.0013C11.6931 14.5208 12.9249 15.7526 14.4444 15.7526Z" fill="#139FCD"/>
<path d="M14.4441 19.1895C22.0417 19.1895 28.2007 16.418 28.2007 12.9991C28.2007 9.58016 22.0417 6.80859 14.4441 6.80859C6.84655 6.80859 0.6875 9.58016 0.6875 12.9991C0.6875 16.418 6.84655 19.1895 14.4441 19.1895Z" stroke="#139FCD" stroke-width="1.5"/>
<path d="M9.08309 16.0962C12.8819 22.6759 18.3616 26.624 21.3225 24.9146C24.2834 23.2051 23.6041 16.4855 19.8053 9.90576C16.0065 3.32608 10.5268 -0.622027 7.56589 1.08743C4.60503 2.79688 5.28431 9.51655 9.08309 16.0962Z" stroke="#139FCD" stroke-width="1.5"/>
<path d="M9.08307 9.90669C5.28428 16.4864 4.60501 23.2061 7.56587 24.9155C10.5267 26.625 16.0065 22.6769 19.8053 16.0972C23.6041 9.51748 24.2833 2.79781 21.3225 1.08836C18.3616 -0.621097 12.8819 3.32701 9.08307 9.90669Z" stroke="#139FCD" stroke-width="1.5"/>
</g>
<defs>
<clipPath id="clip0_21817_21560">
<rect width="28.8889" height="26" fill="white"/>
</clipPath>
</defs>
</svg>
