<svg width="24" height="24" viewBox="0 0 24 24" fill="none" xmlns="http://www.w3.org/2000/svg">
<path opacity="0.2" d="M8.99963 3.51562V10.2656L3.14963 13.6406C2.75912 11.5328 3.13381 9.35478 4.20626 7.49862C5.27871 5.64246 6.97848 4.23005 8.99963 3.51562Z" fill="#5D87FF"/>
<path d="M9.37502 10.9153C9.48905 10.8495 9.58375 10.7548 9.64958 10.6407C9.7154 10.5267 9.75004 10.3973 9.75002 10.2656V3.51562C9.74935 3.39605 9.7201 3.27837 9.6647 3.1724C9.60931 3.06643 9.52939 2.97523 9.43159 2.90643C9.33379 2.83762 9.22096 2.7932 9.10251 2.77686C8.98406 2.76052 8.86341 2.77274 8.75064 2.8125C6.56156 3.58726 4.72063 5.11748 3.55878 7.12807C2.39694 9.13865 1.99038 11.4977 2.4122 13.7812C2.43407 13.8993 2.48397 14.0104 2.55771 14.1052C2.63145 14.2 2.72687 14.2757 2.83595 14.3259C2.93425 14.3719 3.0415 14.3956 3.15002 14.3953C3.28165 14.3954 3.41098 14.3608 3.52502 14.295L9.37502 10.9153ZM8.25002 4.65188V9.8325L3.76127 12.4228C3.75002 12.2812 3.75002 12.1388 3.75002 12C3.75135 10.4797 4.17216 8.98928 4.96613 7.69279C5.76011 6.3963 6.89644 5.34404 8.25002 4.65188ZM20.4694 7.17375C20.461 7.15687 20.4525 7.13906 20.4422 7.12219C20.4319 7.10531 20.4235 7.09125 20.4131 7.07625C19.5535 5.60794 18.3248 4.39001 16.8489 3.54338C15.3731 2.69675 13.7015 2.25087 12 2.25C11.8011 2.25 11.6103 2.32902 11.4697 2.46967C11.329 2.61032 11.25 2.80109 11.25 3V11.6091L3.86158 15.9122C3.77584 15.9619 3.7008 16.0281 3.6408 16.107C3.5808 16.1858 3.53703 16.2758 3.51201 16.3717C3.48699 16.4676 3.48122 16.5675 3.49504 16.6656C3.50886 16.7638 3.54199 16.8582 3.59252 16.9434C4.67652 18.7894 6.33789 20.2272 8.32025 21.0351C10.3026 21.8431 12.4958 21.9761 14.5613 21.4138C16.6268 20.8514 18.4498 19.625 19.749 17.9236C21.0482 16.2223 21.7514 14.1407 21.75 12C21.7522 10.307 21.3106 8.64297 20.4694 7.17375ZM12.75 3.78375C13.9395 3.89324 15.0911 4.25959 16.1252 4.85749C17.1593 5.4554 18.0513 6.27063 18.7397 7.24688L12.75 10.7353V3.78375ZM12 20.25C10.6907 20.2466 9.40082 19.9333 8.23591 19.3356C7.07099 18.7379 6.06416 17.8729 5.29783 16.8113L12.3666 12.6947L12.3872 12.6816L19.4906 8.54437C20.0704 9.80132 20.3247 11.184 20.2299 12.5649C20.1351 13.9459 19.6943 15.2808 18.9482 16.4468C18.2021 17.6127 17.1747 18.5722 15.9604 19.2368C14.7462 19.9014 13.3842 20.2499 12 20.25Z" fill="#5D87FF"/>
</svg>
