<svg width="25" height="24" viewBox="0 0 25 24" fill="none" xmlns="http://www.w3.org/2000/svg">
<path opacity="0.2" d="M20.75 4.5V9H16.25L20.75 4.5ZM4.25 19.5L8.75 15H4.25V19.5Z" fill="#5D87FF"/>
<path d="M21.0369 3.80719C20.8998 3.75034 20.749 3.7354 20.6035 3.76427C20.458 3.79314 20.3243 3.86452 20.2194 3.96938L18.7137 5.47594C16.8247 3.85313 14.69 3 12.5 3C8.48563 3 6.07063 5.36906 5.96938 5.46938C5.82864 5.61011 5.74958 5.80098 5.74958 6C5.74958 6.19902 5.82864 6.38989 5.96938 6.53063C6.11011 6.67136 6.30098 6.75042 6.5 6.75042C6.69902 6.75042 6.8899 6.67136 7.03063 6.53063C7.05031 6.51 9.09969 4.5 12.5 4.5C14.6722 4.5 16.43 5.51719 17.6488 6.54L15.7194 8.46937C15.6144 8.57427 15.5428 8.70796 15.5139 8.85352C15.4849 8.99908 15.4997 9.14998 15.5565 9.28709C15.6133 9.42421 15.7096 9.54139 15.833 9.62379C15.9565 9.70619 16.1016 9.75012 16.25 9.75H20.75C20.9489 9.75 21.1397 9.67098 21.2803 9.53033C21.421 9.38968 21.5 9.19891 21.5 9V4.5C21.5 4.35166 21.456 4.20667 21.3735 4.08335C21.2911 3.96003 21.1739 3.86393 21.0369 3.80719ZM20 8.25H18.0603L20 6.31031V8.25ZM17.9694 17.4694C17.9497 17.49 15.9003 19.5 12.5 19.5C10.3278 19.5 8.57 18.4828 7.35125 17.46L9.28063 15.5306C9.38563 15.4257 9.45716 15.292 9.48615 15.1465C9.51514 15.0009 9.50028 14.85 9.44347 14.7129C9.38665 14.5758 9.29043 14.4586 9.16699 14.3762C9.04354 14.2938 8.89842 14.2499 8.75 14.25H4.25C4.05109 14.25 3.86032 14.329 3.71967 14.4697C3.57902 14.6103 3.5 14.8011 3.5 15V19.5C3.49988 19.6484 3.54381 19.7935 3.62621 19.917C3.70861 20.0404 3.82579 20.1367 3.96291 20.1935C4.10002 20.2503 4.25092 20.2651 4.39648 20.2361C4.54204 20.2072 4.67573 20.1356 4.78063 20.0306L6.28625 18.5241C8.17531 20.1469 10.31 21 12.5 21C16.5144 21 18.9294 18.6309 19.0306 18.5306C19.1714 18.3899 19.2504 18.199 19.2504 18C19.2504 17.801 19.1714 17.6101 19.0306 17.4694C18.8899 17.3286 18.699 17.2496 18.5 17.2496C18.301 17.2496 18.1101 17.3286 17.9694 17.4694ZM5 15.75H6.93969L5 17.6897V15.75Z" fill="#5D87FF"/>
</svg>
