<svg width="25" height="24" viewBox="0 0 25 24" fill="none" xmlns="http://www.w3.org/2000/svg">
<path opacity="0.2" d="M22.0311 12.5269L13.0311 21.5269C12.9619 21.5962 12.8798 21.6512 12.7894 21.6887C12.699 21.7262 12.6021 21.7455 12.5042 21.7455C12.4063 21.7455 12.3094 21.7262 12.219 21.6887C12.1286 21.6512 12.0465 21.5962 11.9773 21.5269L2.97733 12.5269C2.90806 12.4578 2.85309 12.3757 2.81559 12.2853C2.77809 12.1949 2.75879 12.0979 2.75879 12.0001C2.75879 11.9022 2.77809 11.8053 2.81559 11.7149C2.85309 11.6244 2.90806 11.5423 2.97733 11.4732L11.982 2.47318C12.0512 2.40391 12.1333 2.34894 12.2237 2.31144C12.3141 2.27394 12.411 2.25464 12.5089 2.25464C12.6068 2.25464 12.7037 2.27394 12.7941 2.31144C12.8845 2.34894 12.9666 2.40391 13.0358 2.47318L22.0358 11.4779C22.1736 11.6179 22.2505 11.8068 22.2496 12.0034C22.2488 12.1999 22.1702 12.3881 22.0311 12.5269Z" fill="#5D87FF"/>
<path d="M22.5617 10.9425L13.557 1.93692C13.276 1.65755 12.8958 1.50073 12.4995 1.50073C12.1033 1.50073 11.7231 1.65755 11.442 1.93692L2.44205 10.9425C2.16267 11.2236 2.00586 11.6038 2.00586 12C2.00586 12.3963 2.16267 12.7765 2.44205 13.0575L11.4467 22.0632C11.7278 22.3425 12.108 22.4994 12.5042 22.4994C12.9005 22.4994 13.2807 22.3425 13.5617 22.0632L22.5664 13.0575C22.8458 12.7765 23.0026 12.3963 23.0026 12C23.0026 11.6038 22.8458 11.2236 22.5664 10.9425H22.5617ZM12.4995 21L3.49955 12L12.4995 3.00005L21.4995 12L12.4995 21Z" fill="#5D87FF"/>
</svg>
