<svg width="24" height="24" viewBox="0 0 24 24" fill="none" xmlns="http://www.w3.org/2000/svg">
<path opacity="0.2" d="M19.5 12C19.5 12.5933 19.3241 13.1734 18.9944 13.6667C18.6648 14.1601 18.1962 14.5446 17.6481 14.7716C17.0999 14.9987 16.4967 15.0581 15.9147 14.9424C15.3328 14.8266 14.7982 14.5409 14.3787 14.1213C13.9591 13.7018 13.6734 13.1672 13.5576 12.5853C13.4419 12.0033 13.5013 11.4001 13.7284 10.8519C13.9554 10.3038 14.3399 9.83524 14.8333 9.50559C15.3266 9.17595 15.9067 9 16.5 9C17.2957 9 18.0587 9.31607 18.6213 9.87868C19.1839 10.4413 19.5 11.2044 19.5 12Z" fill="#5D87FF"/>
<path d="M16.5 5.25H7.5C5.70979 5.25 3.9929 5.96116 2.72703 7.22703C1.46116 8.4929 0.75 10.2098 0.75 12C0.75 13.7902 1.46116 15.5071 2.72703 16.773C3.9929 18.0388 5.70979 18.75 7.5 18.75H16.5C18.2902 18.75 20.0071 18.0388 21.273 16.773C22.5388 15.5071 23.25 13.7902 23.25 12C23.25 10.2098 22.5388 8.4929 21.273 7.22703C20.0071 5.96116 18.2902 5.25 16.5 5.25ZM16.5 17.25H7.5C6.10761 17.25 4.77226 16.6969 3.78769 15.7123C2.80312 14.7277 2.25 13.3924 2.25 12C2.25 10.6076 2.80312 9.27226 3.78769 8.28769C4.77226 7.30312 6.10761 6.75 7.5 6.75H16.5C17.8924 6.75 19.2277 7.30312 20.2123 8.28769C21.1969 9.27226 21.75 10.6076 21.75 12C21.75 13.3924 21.1969 14.7277 20.2123 15.7123C19.2277 16.6969 17.8924 17.25 16.5 17.25ZM16.5 8.25C15.7583 8.25 15.0333 8.46993 14.4166 8.88199C13.7999 9.29404 13.3193 9.87971 13.0355 10.5649C12.7516 11.2502 12.6774 12.0042 12.8221 12.7316C12.9667 13.459 13.3239 14.1272 13.8483 14.6517C14.3728 15.1761 15.041 15.5333 15.7684 15.6779C16.4958 15.8226 17.2498 15.7484 17.9351 15.4645C18.6203 15.1807 19.206 14.7001 19.618 14.0834C20.0301 13.4667 20.25 12.7417 20.25 12C20.25 11.0054 19.8549 10.0516 19.1516 9.34835C18.4484 8.64509 17.4946 8.25 16.5 8.25ZM16.5 14.25C16.055 14.25 15.62 14.118 15.25 13.8708C14.88 13.6236 14.5916 13.2722 14.4213 12.861C14.251 12.4499 14.2064 11.9975 14.2932 11.561C14.38 11.1246 14.5943 10.7237 14.909 10.409C15.2237 10.0943 15.6246 9.88005 16.061 9.79323C16.4975 9.70642 16.9499 9.75097 17.361 9.92127C17.7722 10.0916 18.1236 10.38 18.3708 10.75C18.618 11.12 18.75 11.555 18.75 12C18.75 12.5967 18.5129 13.169 18.091 13.591C17.669 14.0129 17.0967 14.25 16.5 14.25Z" fill="#5D87FF"/>
</svg>
