<svg width="25" height="24" viewBox="0 0 25 24" fill="none" xmlns="http://www.w3.org/2000/svg">
<path opacity="0.2" d="M20 5.25V18.75C20 18.9489 19.921 19.1397 19.7803 19.2803C19.6397 19.421 19.4489 19.5 19.25 19.5H5.75C5.55109 19.5 5.36032 19.421 5.21967 19.2803C5.07902 19.1397 5 18.9489 5 18.75V5.25C5 5.05109 5.07902 4.86032 5.21967 4.71967C5.36032 4.57902 5.55109 4.5 5.75 4.5H19.25C19.4489 4.5 19.6397 4.57902 19.7803 4.71967C19.921 4.86032 20 5.05109 20 5.25Z" fill="#5D87FF"/>
<path d="M5.96899 9.53055L2.96899 6.53055C2.89926 6.4609 2.84394 6.37818 2.80619 6.28713C2.76845 6.19609 2.74902 6.09849 2.74902 5.99993C2.74902 5.90137 2.76845 5.80377 2.80619 5.71272C2.84394 5.62168 2.89926 5.53896 2.96899 5.4693L5.96899 2.4693C6.10972 2.32857 6.30059 2.24951 6.49961 2.24951C6.69864 2.24951 6.88951 2.32857 7.03024 2.4693C7.17097 2.61003 7.25003 2.80091 7.25003 2.99993C7.25003 3.19895 7.17097 3.38982 7.03024 3.53055L4.55993 5.99993L7.03024 8.4693C7.17097 8.61003 7.25003 8.80091 7.25003 8.99993C7.25003 9.19895 7.17097 9.38982 7.03024 9.53055C6.88951 9.67128 6.69864 9.75035 6.49961 9.75035C6.30059 9.75035 6.10972 9.67128 5.96899 9.53055ZM9.71899 9.53055C9.78864 9.60029 9.87136 9.65561 9.96241 9.69335C10.0535 9.73109 10.1511 9.75052 10.2496 9.75052C10.3482 9.75052 10.4458 9.73109 10.5368 9.69335C10.6279 9.65561 10.7106 9.60029 10.7802 9.53055L13.7802 6.53055C13.85 6.4609 13.9053 6.37818 13.943 6.28713C13.9808 6.19609 14.0002 6.09849 14.0002 5.99993C14.0002 5.90137 13.9808 5.80377 13.943 5.71272C13.9053 5.62168 13.85 5.53896 13.7802 5.4693L10.7802 2.4693C10.6395 2.32857 10.4486 2.24951 10.2496 2.24951C10.0506 2.24951 9.85972 2.32857 9.71899 2.4693C9.57826 2.61003 9.4992 2.80091 9.4992 2.99993C9.4992 3.19895 9.57826 3.38982 9.71899 3.53055L12.1893 5.99993L9.71899 8.4693C9.64926 8.53896 9.59394 8.62168 9.55619 8.71272C9.51845 8.80377 9.49902 8.90137 9.49902 8.99993C9.49902 9.09849 9.51845 9.19609 9.55619 9.28713C9.59394 9.37818 9.64926 9.4609 9.71899 9.53055ZM19.2496 3.74993H16.9996C16.8007 3.74993 16.6099 3.82895 16.4693 3.9696C16.3286 4.11025 16.2496 4.30102 16.2496 4.49993C16.2496 4.69884 16.3286 4.88961 16.4693 5.03026C16.6099 5.17091 16.8007 5.24993 16.9996 5.24993H19.2496V18.7499H5.74961V12.7499C5.74961 12.551 5.6706 12.3603 5.52994 12.2196C5.38929 12.0789 5.19853 11.9999 4.99961 11.9999C4.8007 11.9999 4.60994 12.0789 4.46928 12.2196C4.32863 12.3603 4.24961 12.551 4.24961 12.7499V18.7499C4.24961 19.1478 4.40765 19.5293 4.68895 19.8106C4.97026 20.0919 5.35179 20.2499 5.74961 20.2499H19.2496C19.6474 20.2499 20.029 20.0919 20.3103 19.8106C20.5916 19.5293 20.7496 19.1478 20.7496 18.7499V5.24993C20.7496 4.8521 20.5916 4.47057 20.3103 4.18927C20.029 3.90796 19.6474 3.74993 19.2496 3.74993Z" fill="#5D87FF"/>
</svg>
