<svg width="24" height="21" viewBox="0 0 24 21" fill="none" xmlns="http://www.w3.org/2000/svg">
<path fill-rule="evenodd" clip-rule="evenodd" d="M20.229 14.2831C20.3304 14.2248 20.4147 14.141 20.4734 14.0399C20.5322 13.9388 20.5633 13.824 20.5636 13.7071L20.5756 9.84907C20.576 9.73214 20.6071 9.61737 20.6659 9.51627C20.7246 9.41517 20.8089 9.3313 20.9103 9.27307L23.0016 8.07174C23.103 8.01353 23.2179 7.98299 23.3348 7.98319C23.4517 7.98339 23.5664 8.01431 23.6676 8.07286C23.7688 8.13141 23.8527 8.21553 23.9111 8.31678C23.9695 8.41803 24.0003 8.53285 24.0003 8.64974V15.6637C24.0003 15.781 23.9693 15.8962 23.9106 15.9977C23.8518 16.0992 23.7673 16.1833 23.6656 16.2417L15.773 20.7751C15.6722 20.8329 15.558 20.8635 15.4417 20.8636C15.3255 20.8637 15.2112 20.8334 15.1103 20.7757L8.91631 17.2331C8.81427 17.1748 8.72946 17.0906 8.67045 16.9889C8.61145 16.8873 8.58035 16.7719 8.58031 16.6544V13.1177C8.58031 13.1137 8.58498 13.1111 8.58898 13.1131C8.59231 13.1151 8.59698 13.1131 8.59698 13.1084V13.1044C8.59698 13.1017 8.59831 13.0991 8.60098 13.0977L13.7023 10.1671C13.707 10.1644 13.705 10.1571 13.6996 10.1571C13.6982 10.1571 13.6969 10.1565 13.6959 10.1555C13.6949 10.1545 13.6943 10.1532 13.6943 10.1517L13.7043 6.6844C13.7048 6.56715 13.6743 6.45186 13.616 6.35014C13.5577 6.24843 13.4736 6.16389 13.3721 6.10506C13.2707 6.04624 13.1556 6.0152 13.0383 6.01508C12.9211 6.01497 12.8059 6.04578 12.7043 6.1044L8.91298 8.28907C8.81179 8.34734 8.69707 8.378 8.58031 8.378C8.46355 8.378 8.34883 8.34734 8.24764 8.28907L4.44431 6.09907C4.34298 6.04072 4.22809 6.01005 4.11117 6.01014C3.99424 6.01022 3.8794 6.04106 3.77815 6.09955C3.67691 6.15804 3.59283 6.24213 3.53435 6.34338C3.47587 6.44463 3.44505 6.55948 3.44498 6.6764V12.9431C3.44506 13.0599 3.41445 13.1746 3.35621 13.2759C3.29798 13.3771 3.21417 13.4613 3.11317 13.52C3.01217 13.5787 2.89753 13.6098 2.78073 13.6102C2.66393 13.6106 2.54907 13.5803 2.44764 13.5224L0.336977 12.3157C0.234745 12.2573 0.149801 12.1729 0.0907832 12.071C0.0317657 11.9692 0.000780095 11.8535 0.0009775 11.7357L0.0196442 0.782404C0.0198982 0.665633 0.0508188 0.550977 0.109311 0.449912C0.167803 0.348846 0.251815 0.264918 0.352939 0.206525C0.454062 0.148133 0.568748 0.117326 0.685519 0.117188C0.80229 0.11705 0.91705 0.147585 1.01831 0.205737L8.24831 4.3584C8.34934 4.41642 8.46381 4.44695 8.58031 4.44695C8.69681 4.44695 8.81128 4.41642 8.91231 4.3584L16.1403 0.205737C16.2417 0.147501 16.3567 0.116963 16.4736 0.11719C16.5905 0.117416 16.7054 0.148398 16.8065 0.207027C16.9077 0.265656 16.9917 0.349868 17.0501 0.451211C17.1084 0.552555 17.1391 0.667463 17.139 0.784404V11.7404C17.139 11.8576 17.1082 11.9727 17.0495 12.0742C16.9909 12.1757 16.9065 12.2599 16.805 12.3184L13.0196 14.4984C12.918 14.557 12.8336 14.6414 12.775 14.7431C12.7164 14.8448 12.6857 14.9602 12.6859 15.0775C12.6862 15.1949 12.7175 15.3101 12.7765 15.4115C12.8356 15.5129 12.9204 15.5969 13.0223 15.6551L15.1103 16.8437C15.2112 16.9012 15.3254 16.9313 15.4415 16.931C15.5576 16.9308 15.6716 16.9003 15.7723 16.8424L20.229 14.2831ZM20.667 4.45507C20.6671 4.57297 20.6984 4.68873 20.7578 4.79056C20.8173 4.89239 20.9026 4.97663 21.0052 5.03471C21.1078 5.09279 21.224 5.12262 21.3419 5.12116C21.4598 5.1197 21.5752 5.087 21.6763 5.0264L23.6763 3.8264C23.775 3.76724 23.8568 3.68353 23.9135 3.58341C23.9703 3.48329 24.0002 3.37017 24.0003 3.25507V0.809737C24.0001 0.691896 23.9687 0.576216 23.9092 0.474482C23.8497 0.372748 23.7643 0.288596 23.6618 0.230597C23.5592 0.172599 23.4431 0.142828 23.3252 0.144316C23.2074 0.145805 23.0921 0.1785 22.991 0.23907L20.991 1.43907C20.8922 1.49823 20.8105 1.58195 20.7537 1.68207C20.697 1.78219 20.6671 1.8953 20.667 2.0104V4.45507Z" fill="#007FFF"/>
</svg>
