<svg width="32" height="33" viewBox="0 0 32 33" fill="none" xmlns="http://www.w3.org/2000/svg">
<path d="M14.9521 0.508611C14.8833 0.514867 14.6643 0.53676 14.4673 0.552398C9.92219 0.962113 5.66491 3.41415 2.96852 7.1829C1.46706 9.27839 0.506745 11.6554 0.143891 14.1731C0.0156403 15.0519 0 15.3115 0 16.5031C0 17.6947 0.0156403 17.9543 0.143891 18.8332C1.01349 24.8413 5.28954 29.8892 11.089 31.7595C12.1275 32.0942 13.2223 32.3225 14.4673 32.4601C14.9521 32.5133 17.0479 32.5133 17.5327 32.4601C19.6817 32.2224 21.5022 31.6907 23.2978 30.7743C23.573 30.6336 23.6262 30.5961 23.5887 30.5648C23.5636 30.546 22.3906 28.9729 20.983 27.0713L18.4242 23.6153L15.218 18.8707C13.4538 16.2623 12.0023 14.1293 11.9898 14.1293C11.9773 14.1262 11.9648 16.2342 11.9586 18.8082C11.9492 23.315 11.946 23.4964 11.8897 23.6028C11.8084 23.756 11.7458 23.8186 11.6145 23.8874C11.5144 23.9374 11.4268 23.9468 10.9544 23.9468H10.4133L10.2694 23.8561C10.1756 23.7967 10.1067 23.7185 10.0598 23.6278L9.99413 23.4871L10.0004 17.2162L10.0098 10.9423L10.1067 10.8203C10.1568 10.7546 10.2631 10.6702 10.3382 10.6295C10.4665 10.567 10.5165 10.5607 11.0577 10.5607C11.6958 10.5607 11.8022 10.5857 11.9679 10.7671C12.0149 10.8172 13.7509 13.4318 15.828 16.5813C17.905 19.7308 20.7453 24.0313 22.1404 26.1424L24.6741 29.9799L24.8023 29.8955C25.9378 29.1574 27.139 28.1065 28.0899 27.0119C30.1138 24.688 31.4182 21.8544 31.8561 18.8332C31.9844 17.9543 32 17.6947 32 16.5031C32 15.3115 31.9844 15.0519 31.8561 14.1731C30.9865 8.16496 26.7105 3.11703 20.911 1.24672C19.8882 0.915199 18.7996 0.686884 17.5797 0.54927C17.2794 0.517994 15.2117 0.483591 14.9521 0.508611ZM21.5022 10.1854C21.6524 10.2605 21.7744 10.4043 21.8182 10.5544C21.8432 10.6358 21.8495 12.3747 21.8432 16.2936L21.8338 21.917L20.8422 20.397L19.8475 18.877V14.7892C19.8475 12.1464 19.86 10.6608 19.8788 10.5889C19.9288 10.4137 20.0383 10.2761 20.1885 10.1948C20.3167 10.1291 20.3636 10.1228 20.8547 10.1228C21.3177 10.1228 21.399 10.1291 21.5022 10.1854Z" fill="url(#paint0_linear_21817_21575)"/>
<defs>
<linearGradient id="paint0_linear_21817_21575" x1="16" y1="0.5" x2="16" y2="32.5" gradientUnits="userSpaceOnUse">
<stop stop-color="#555555"/>
<stop offset="1"/>
</linearGradient>
</defs>
</svg>
