<svg width="20" height="22" viewBox="0 0 20 22" fill="none" xmlns="http://www.w3.org/2000/svg">
<g clip-path="url(#clip0_21817_22413)">
<path d="M9.62959 6.0583C6.89678 6.0583 4.69248 8.2626 4.69248 10.9954C4.69248 13.7282 6.89678 15.9325 9.62959 15.9325C12.3624 15.9325 14.5667 13.7282 14.5667 10.9954C14.5667 8.2626 12.3624 6.0583 9.62959 6.0583ZM9.62959 14.2052C7.86357 14.2052 6.41982 12.7657 6.41982 10.9954C6.41982 9.2251 7.85928 7.78564 9.62959 7.78564C11.3999 7.78564 12.8394 9.2251 12.8394 10.9954C12.8394 12.7657 11.3956 14.2052 9.62959 14.2052ZM15.9202 5.85635C15.9202 6.49658 15.4046 7.00791 14.7687 7.00791C14.1284 7.00791 13.6171 6.49229 13.6171 5.85635C13.6171 5.22041 14.1327 4.70478 14.7687 4.70478C15.4046 4.70478 15.9202 5.22041 15.9202 5.85635ZM19.1901 7.0251C19.1171 5.48252 18.7647 4.11611 17.6347 2.99033C16.5089 1.86455 15.1425 1.51221 13.5999 1.43486C12.0101 1.34463 7.24482 1.34463 5.65498 1.43486C4.1167 1.50791 2.75029 1.86025 1.62021 2.98604C0.490137 4.11182 0.14209 5.47822 0.0647461 7.0208C-0.0254883 8.61064 -0.0254883 13.3759 0.0647461 14.9657C0.137793 16.5083 0.490137 17.8747 1.62021 19.0005C2.75029 20.1263 4.1124 20.4786 5.65498 20.556C7.24482 20.6462 12.0101 20.6462 13.5999 20.556C15.1425 20.4829 16.5089 20.1306 17.6347 19.0005C18.7605 17.8747 19.1128 16.5083 19.1901 14.9657C19.2804 13.3759 19.2804 8.61494 19.1901 7.0251ZM17.1362 16.6716C16.8011 17.5138 16.1522 18.1626 15.3058 18.5021C14.0382 19.0048 11.0304 18.8888 9.62959 18.8888C8.22881 18.8888 5.2167 19.0005 3.95342 18.5021C3.11123 18.1669 2.4624 17.5181 2.12295 16.6716C1.62021 15.404 1.73623 12.3962 1.73623 10.9954C1.73623 9.59463 1.62451 6.58252 2.12295 5.31924C2.45811 4.47705 3.10693 3.82822 3.95342 3.48877C5.221 2.98603 8.22881 3.10205 9.62959 3.10205C11.0304 3.10205 14.0425 2.99033 15.3058 3.48877C16.148 3.82393 16.7968 4.47275 17.1362 5.31924C17.639 6.58682 17.5229 9.59463 17.5229 10.9954C17.5229 12.3962 17.639 15.4083 17.1362 16.6716Z" fill="#5D7287"/>
</g>
<defs>
<clipPath id="clip0_21817_22413">
<rect width="19.25" height="22" fill="white"/>
</clipPath>
</defs>
</svg>
