<svg width="27" height="27" viewBox="0 0 27 27" fill="none" xmlns="http://www.w3.org/2000/svg">
<path fill-rule="evenodd" clip-rule="evenodd" d="M0.98608 0.5H25.3094C25.854 0.5 26.2955 0.936522 26.2955 1.475V25.525C26.2955 26.0635 25.854 26.5 25.3094 26.5H0.98608C0.441483 26.5 0 26.0635 0 25.525V1.475C0 0.936522 0.441483 0.5 0.98608 0.5ZM14.6175 14.3324V12.2H5.25909V14.3324H8.6002V23.827H11.26V14.3324H14.6175ZM15.6779 23.5763C16.1068 23.7925 16.6141 23.9547 17.1997 24.0628C17.7854 24.1709 18.4026 24.225 19.0515 24.225C19.6839 24.225 20.2846 24.1655 20.8538 24.0466C21.4229 23.9277 21.9219 23.7317 22.3508 23.4587C22.7797 23.1857 23.1193 22.829 23.3695 22.3884C23.6197 21.9478 23.7448 21.4032 23.7448 20.7545C23.7448 20.2842 23.6733 19.8721 23.5303 19.518C23.3874 19.1639 23.1812 18.849 22.9117 18.5733C22.6423 18.2976 22.3192 18.0503 21.9425 17.8314C21.5658 17.6125 21.1411 17.4057 20.6682 17.2111C20.3217 17.0705 20.011 16.934 19.7361 16.8016C19.4611 16.6692 19.2274 16.534 19.035 16.3962C18.8425 16.2583 18.6941 16.1124 18.5896 15.9583C18.4851 15.8043 18.4329 15.6299 18.4329 15.4353C18.4329 15.2569 18.4796 15.0961 18.5731 14.9529C18.6666 14.8096 18.7985 14.6866 18.969 14.5839C19.1395 14.4812 19.3484 14.4015 19.5959 14.3447C19.8433 14.288 20.1183 14.2596 20.4207 14.2596C20.6407 14.2596 20.873 14.2758 21.1177 14.3082C21.3624 14.3407 21.6085 14.3907 21.8559 14.4582C22.1034 14.5258 22.344 14.6109 22.5777 14.7137C22.8114 14.8164 23.0272 14.9353 23.2252 15.0704V12.646C22.8237 12.4946 22.3852 12.3824 21.9095 12.3095C21.4339 12.2365 20.8881 12.2 20.2722 12.2C19.6454 12.2 19.0515 12.2662 18.4906 12.3987C17.9297 12.5311 17.4362 12.7379 17.01 13.019C16.5838 13.3001 16.247 13.6582 15.9996 14.0933C15.7521 14.5285 15.6284 15.0488 15.6284 15.6542C15.6284 16.4273 15.8552 17.0868 16.3089 17.6327C16.7626 18.1787 17.4513 18.6409 18.3751 19.0193C18.7381 19.1653 19.0762 19.3085 19.3897 19.4491C19.7031 19.5896 19.9739 19.7356 20.2021 19.8869C20.4303 20.0383 20.6104 20.2031 20.7424 20.3815C20.8744 20.5599 20.9404 20.7626 20.9404 20.9897C20.9404 21.1573 20.8991 21.3127 20.8166 21.4559C20.7341 21.5992 20.609 21.7235 20.4413 21.8289C20.2736 21.9343 20.0647 22.0168 19.8145 22.0762C19.5643 22.1357 19.2714 22.1654 18.936 22.1654C18.3641 22.1654 17.7977 22.0668 17.2368 21.8695C16.676 21.6722 16.1563 21.3762 15.6779 20.9816V23.5763Z" fill="#3178C6"/>
</svg>
