<svg width="24" height="24" viewBox="0 0 24 24" fill="none" xmlns="http://www.w3.org/2000/svg">
<path opacity="0.2" d="M19.1246 15.7499C19.5137 15.7502 19.8979 15.6641 20.2496 15.4977V19.4999C20.2496 19.6988 20.1706 19.8896 20.03 20.0302C19.8893 20.1709 19.6985 20.2499 19.4996 20.2499H5.99962C5.80071 20.2499 5.60994 20.1709 5.46929 20.0302C5.32864 19.8896 5.24962 19.6988 5.24962 19.4999V15.4977C4.84952 15.687 4.40806 15.7721 3.96627 15.745C3.52447 15.7179 3.09671 15.5795 2.72274 15.3427C2.34878 15.1059 2.04075 14.7785 1.82731 14.3907C1.61388 14.0029 1.50195 13.5675 1.50195 13.1249C1.50195 12.6823 1.61388 12.2468 1.82731 11.8591C2.04075 11.4713 2.34878 11.1438 2.72274 10.907C3.09671 10.6703 3.52447 10.5319 3.96627 10.5048C4.40806 10.4777 4.84952 10.5628 5.24962 10.7521V6.74988C5.24962 6.55097 5.32864 6.3602 5.46929 6.21955C5.60994 6.0789 5.80071 5.99988 5.99962 5.99988H10.3768C10.1873 5.59978 10.1021 5.15824 10.129 4.71635C10.156 4.27446 10.2943 3.84657 10.531 3.47247C10.7678 3.09838 11.0953 2.79024 11.4831 2.57671C11.8709 2.36319 12.3064 2.25122 12.7492 2.25122C13.1919 2.25122 13.6274 2.36319 14.0152 2.57671C14.403 2.79024 14.7305 3.09838 14.9673 3.47247C15.204 3.84657 15.3423 4.27446 15.3693 4.71635C15.3962 5.15824 15.311 5.59978 15.1215 5.99988H19.4996C19.6985 5.99988 19.8893 6.0789 20.03 6.21955C20.1706 6.3602 20.2496 6.55097 20.2496 6.74988V10.7521C19.8939 10.5838 19.505 10.4976 19.1115 10.4999C18.718 10.5022 18.33 10.593 17.9764 10.7655C17.6227 10.938 17.3123 11.1877 17.0682 11.4964C16.8241 11.805 16.6524 12.1645 16.566 12.5484C16.4796 12.9323 16.4806 13.3307 16.569 13.7142C16.6573 14.0976 16.8307 14.4563 17.0764 14.7637C17.322 15.0711 17.6337 15.3193 17.9882 15.49C18.3427 15.6607 18.7311 15.7495 19.1246 15.7499Z" fill="#5D87FF"/>
<path d="M20.6507 14.8632C20.5438 14.7957 20.4215 14.7564 20.2953 14.7489C20.1691 14.7413 20.043 14.7658 19.9288 14.82C19.6431 14.9552 19.3277 15.0159 19.0122 14.9965C18.6967 14.9771 18.3912 14.8783 18.1241 14.7091C17.857 14.54 17.637 14.3061 17.4846 14.0291C17.3321 13.7522 17.2522 13.4412 17.2522 13.125C17.2522 12.8089 17.3321 12.4979 17.4846 12.221C17.637 11.944 17.857 11.7101 18.1241 11.541C18.3912 11.3718 18.6967 11.273 19.0122 11.2536C19.3277 11.2342 19.6431 11.2949 19.9288 11.43C20.0432 11.4843 20.1694 11.5087 20.2957 11.5011C20.422 11.4935 20.5444 11.454 20.6513 11.3863C20.7583 11.3187 20.8464 11.225 20.9074 11.1142C20.9685 11.0033 21.0004 10.8788 21.0004 10.7522V6.75004C21.0004 6.35222 20.8424 5.97068 20.5611 5.68938C20.2798 5.40808 19.8982 5.25004 19.5004 5.25004H16.1048C16.1187 5.12553 16.1256 5.00033 16.1254 4.87504C16.1246 4.41397 16.0298 3.95791 15.8466 3.53476C15.6635 3.11161 15.396 2.73028 15.0604 2.4141C14.5956 1.97758 14.0166 1.68166 13.3906 1.56063C12.7645 1.43959 12.117 1.49839 11.523 1.73021C10.9289 1.96203 10.4127 2.35738 10.0342 2.87049C9.65557 3.38359 9.43009 3.99344 9.38383 4.62942C9.36943 4.83626 9.37382 5.04399 9.39696 5.25004H6.0004C5.60257 5.25004 5.22104 5.40808 4.93974 5.68938C4.65843 5.97068 4.5004 6.35222 4.5004 6.75004V9.77067C4.37589 9.75671 4.25069 9.74982 4.1254 9.75004C3.66446 9.75078 3.20852 9.84562 2.78552 10.0288C2.36253 10.2119 1.98137 10.4794 1.6654 10.815C1.34716 11.1512 1.10212 11.5497 0.945752 11.9854C0.789388 12.4211 0.725102 12.8845 0.756959 13.3463C0.810704 14.1595 1.15622 14.9259 1.72996 15.5046C2.30371 16.0834 3.06711 16.4355 3.87977 16.4963C4.08662 16.5107 4.29434 16.5063 4.5004 16.4832V19.5C4.5004 19.8979 4.65843 20.2794 4.93974 20.5607C5.22104 20.842 5.60257 21 6.0004 21H19.5004C19.8982 21 20.2798 20.842 20.5611 20.5607C20.8424 20.2794 21.0004 19.8979 21.0004 19.5V15.4979C21.0005 15.3711 20.9684 15.2465 20.9073 15.1355C20.8461 15.0245 20.7579 14.9308 20.6507 14.8632ZM19.5004 19.5H6.0004V15.4979C6.00044 15.3713 5.96845 15.2468 5.90742 15.1359C5.84638 15.025 5.75829 14.9314 5.65133 14.8638C5.54437 14.7961 5.42203 14.7566 5.29571 14.749C5.16938 14.7413 5.04317 14.7658 4.92883 14.82C4.64305 14.9552 4.32773 15.0159 4.0122 14.9965C3.69666 14.9771 3.39115 14.8783 3.12407 14.7091C2.85699 14.54 2.637 14.3061 2.48457 14.0291C2.33214 13.7522 2.25221 13.4412 2.25221 13.125C2.25221 12.8089 2.33214 12.4979 2.48457 12.221C2.637 11.944 2.85699 11.7101 3.12407 11.541C3.39115 11.3718 3.69666 11.273 4.0122 11.2536C4.32773 11.2342 4.64305 11.2949 4.92883 11.43C5.04317 11.4843 5.16938 11.5087 5.29571 11.5011C5.42203 11.4935 5.54437 11.454 5.65133 11.3863C5.75829 11.3187 5.84638 11.225 5.90742 11.1142C5.96845 11.0033 6.00044 10.8788 6.0004 10.7522V6.75004H10.3776C10.5041 6.75008 10.6287 6.7181 10.7395 6.65706C10.8504 6.59603 10.944 6.50793 11.0117 6.40097C11.0793 6.29402 11.1188 6.17168 11.1265 6.04535C11.1341 5.91902 11.1097 5.79281 11.0554 5.67848C10.9202 5.39269 10.8595 5.07738 10.8789 4.76184C10.8983 4.44631 10.9972 4.1408 11.1663 3.87371C11.3354 3.60663 11.5694 3.38665 11.8463 3.23422C12.1233 3.08179 12.4343 3.00185 12.7504 3.00185C13.0665 3.00185 13.3775 3.08179 13.6545 3.23422C13.9314 3.38665 14.1654 3.60663 14.3345 3.87371C14.5036 4.1408 14.6025 4.44631 14.6219 4.76184C14.6413 5.07738 14.5806 5.39269 14.4454 5.67848C14.3911 5.79281 14.3667 5.91902 14.3743 6.04535C14.382 6.17168 14.4215 6.29402 14.4891 6.40097C14.5568 6.50793 14.6504 6.59603 14.7613 6.65706C14.8721 6.7181 14.9967 6.75008 15.1232 6.75004H19.5004V9.7716C19.2944 9.748 19.0866 9.74361 18.8798 9.75848C18.0069 9.82029 17.1921 10.2187 16.6073 10.8697C16.0226 11.5207 15.7135 12.3734 15.7454 13.2479C15.7773 14.1224 16.1475 14.9504 16.7781 15.5571C17.4087 16.1638 18.2503 16.5019 19.1254 16.5C19.2507 16.5003 19.3759 16.4934 19.5004 16.4794V19.5Z" fill="#5D87FF"/>
</svg>
