<svg width="32" height="32" viewBox="0 0 32 32" fill="none" xmlns="http://www.w3.org/2000/svg">
<path d="M31.0217 7.04644C30.2291 3.9257 27.8019 1.49845 24.6811 0.705882C18.8359 -0.235294 12.8916 -0.235294 7.04644 0.705882C3.9257 1.49845 1.49845 3.9257 0.705882 7.04644C-0.235294 12.8916 -0.235294 18.8359 0.705882 24.6811C1.49845 27.8019 3.9257 30.2291 7.04644 31.0217C12.8916 31.9628 18.8359 31.9628 24.6811 31.0217C27.8019 30.2291 30.2291 27.8019 31.0217 24.6811C31.9628 18.8359 31.9628 12.8916 31.0217 7.04644ZM15.517 17.0031C14.13 19.1827 12.2477 21.065 10.0186 22.452C9.29758 22.8792 8.40586 22.8989 7.66668 22.504C6.92751 22.1091 6.44818 21.3569 6.40248 20.5201C6.40248 19.678 6.8483 18.8855 7.59133 18.4892C8.73065 17.7957 9.7709 16.904 10.613 15.8638C9.72136 14.8235 8.73065 13.9814 7.59133 13.2384C7.0644 12.9376 6.67922 12.439 6.52114 11.8532C6.36307 11.2674 6.44516 10.6427 6.74923 10.1176C6.74923 10.1176 6.74923 10.0681 6.79876 10.0681C7.49226 8.97833 8.92879 8.58204 10.0186 9.27554C12.2477 10.6625 14.0805 12.4954 15.517 14.6749C15.9628 15.3684 15.9628 16.3096 15.517 17.0031ZM23.3932 21.8081H17.7461C16.7059 21.8081 15.8638 21.3127 15.8638 20.322C15.8638 19.3313 16.7059 18.8359 17.7461 18.8359H23.3932C24.4334 18.8359 25.2755 19.3313 25.2755 20.322C25.2755 21.3127 24.4334 21.8081 23.3932 21.8081Z" fill="#206BC4"/>
</svg>
