<svg width="25" height="24" viewBox="0 0 25 24" fill="none" xmlns="http://www.w3.org/2000/svg">
<path opacity="0.2" d="M18.5 3.75V20.25C18.5 20.6478 18.342 21.0294 18.0607 21.3107C17.7794 21.592 17.3978 21.75 17 21.75H8C7.60218 21.75 7.22064 21.592 6.93934 21.3107C6.65804 21.0294 6.5 20.6478 6.5 20.25V3.75C6.5 3.35218 6.65804 2.97064 6.93934 2.68934C7.22064 2.40804 7.60218 2.25 8 2.25H17C17.3978 2.25 17.7794 2.40804 18.0607 2.68934C18.342 2.97064 18.5 3.35218 18.5 3.75Z" fill="#5D87FF"/>
<path d="M17 1.5H8C7.40326 1.5 6.83097 1.73705 6.40901 2.15901C5.98705 2.58097 5.75 3.15326 5.75 3.75V20.25C5.75 20.8467 5.98705 21.419 6.40901 21.841C6.83097 22.2629 7.40326 22.5 8 22.5H17C17.5967 22.5 18.169 22.2629 18.591 21.841C19.0129 21.419 19.25 20.8467 19.25 20.25V3.75C19.25 3.15326 19.0129 2.58097 18.591 2.15901C18.169 1.73705 17.5967 1.5 17 1.5ZM17.75 20.25C17.75 20.4489 17.671 20.6397 17.5303 20.7803C17.3897 20.921 17.1989 21 17 21H8C7.80109 21 7.61032 20.921 7.46967 20.7803C7.32902 20.6397 7.25 20.4489 7.25 20.25V3.75C7.25 3.55109 7.32902 3.36032 7.46967 3.21967C7.61032 3.07902 7.80109 3 8 3H17C17.1989 3 17.3897 3.07902 17.5303 3.21967C17.671 3.36032 17.75 3.55109 17.75 3.75V20.25ZM13.625 5.625C13.625 5.8475 13.559 6.06501 13.4354 6.25002C13.3118 6.43502 13.1361 6.57922 12.9305 6.66436C12.725 6.74951 12.4988 6.77179 12.2805 6.72838C12.0623 6.68498 11.8618 6.57783 11.7045 6.4205C11.5472 6.26316 11.44 6.06271 11.3966 5.84448C11.3532 5.62625 11.3755 5.40005 11.4606 5.19448C11.5458 4.98891 11.69 4.81321 11.875 4.6896C12.06 4.56598 12.2775 4.5 12.5 4.5C12.7984 4.5 13.0845 4.61853 13.2955 4.8295C13.5065 5.04048 13.625 5.32663 13.625 5.625Z" fill="#5D87FF"/>
</svg>
