<svg width="25" height="24" viewBox="0 0 25 24" fill="none" xmlns="http://www.w3.org/2000/svg">
<path opacity="0.2" d="M17.0001 10.5L7.4695 20.0306C7.32886 20.1712 7.13817 20.2501 6.93934 20.2501C6.74051 20.2501 6.54982 20.1712 6.40918 20.0306L4.4695 18.0938C4.32895 17.9531 4.25 17.7624 4.25 17.5636C4.25 17.3648 4.32895 17.1741 4.4695 17.0334L14.0001 7.5L17.0001 10.5Z" fill="#5D87FF"/>
<path d="M23.7497 14.25C23.7497 14.4489 23.6707 14.6397 23.5301 14.7803C23.3894 14.921 23.1986 15 22.9997 15H21.4997V16.5C21.4997 16.6989 21.4207 16.8897 21.2801 17.0303C21.1394 17.171 20.9486 17.25 20.7497 17.25C20.5508 17.25 20.3601 17.171 20.2194 17.0303C20.0788 16.8897 19.9997 16.6989 19.9997 16.5V15H18.4997C18.3008 15 18.1101 14.921 17.9694 14.7803C17.8288 14.6397 17.7497 14.4489 17.7497 14.25C17.7497 14.0511 17.8288 13.8603 17.9694 13.7197C18.1101 13.579 18.3008 13.5 18.4997 13.5H19.9997V12C19.9997 11.8011 20.0788 11.6103 20.2194 11.4697C20.3601 11.329 20.5508 11.25 20.7497 11.25C20.9486 11.25 21.1394 11.329 21.2801 11.4697C21.4207 11.6103 21.4997 11.8011 21.4997 12V13.5H22.9997C23.1986 13.5 23.3894 13.579 23.5301 13.7197C23.6707 13.8603 23.7497 14.0511 23.7497 14.25ZM5.74973 6.75H7.24973V8.25C7.24973 8.44891 7.32875 8.63968 7.4694 8.78033C7.61006 8.92098 7.80082 9 7.99973 9C8.19865 9 8.38941 8.92098 8.53006 8.78033C8.67072 8.63968 8.74973 8.44891 8.74973 8.25V6.75H10.2497C10.4486 6.75 10.6394 6.67098 10.7801 6.53033C10.9207 6.38968 10.9997 6.19891 10.9997 6C10.9997 5.80109 10.9207 5.61032 10.7801 5.46967C10.6394 5.32902 10.4486 5.25 10.2497 5.25H8.74973V3.75C8.74973 3.55109 8.67072 3.36032 8.53006 3.21967C8.38941 3.07902 8.19865 3 7.99973 3C7.80082 3 7.61006 3.07902 7.4694 3.21967C7.32875 3.36032 7.24973 3.55109 7.24973 3.75V5.25H5.74973C5.55082 5.25 5.36006 5.32902 5.2194 5.46967C5.07875 5.61032 4.99973 5.80109 4.99973 6C4.99973 6.19891 5.07875 6.38968 5.2194 6.53033C5.36006 6.67098 5.55082 6.75 5.74973 6.75ZM17.7497 18H16.9997V17.25C16.9997 17.0511 16.9207 16.8603 16.7801 16.7197C16.6394 16.579 16.4486 16.5 16.2497 16.5C16.0508 16.5 15.8601 16.579 15.7194 16.7197C15.5788 16.8603 15.4997 17.0511 15.4997 17.25V18H14.7497C14.5508 18 14.3601 18.079 14.2194 18.2197C14.0788 18.3603 13.9997 18.5511 13.9997 18.75C13.9997 18.9489 14.0788 19.1397 14.2194 19.2803C14.3601 19.421 14.5508 19.5 14.7497 19.5H15.4997V20.25C15.4997 20.4489 15.5788 20.6397 15.7194 20.7803C15.8601 20.921 16.0508 21 16.2497 21C16.4486 21 16.6394 20.921 16.7801 20.7803C16.9207 20.6397 16.9997 20.4489 16.9997 20.25V19.5H17.7497C17.9486 19.5 18.1394 19.421 18.2801 19.2803C18.4207 19.1397 18.4997 18.9489 18.4997 18.75C18.4997 18.5511 18.4207 18.3603 18.2801 18.2197C18.1394 18.079 17.9486 18 17.7497 18ZM21.06 7.5L7.99973 20.5603C7.71846 20.8414 7.33708 20.9993 6.93942 20.9993C6.54177 20.9993 6.16039 20.8414 5.87911 20.5603L3.93848 18.6216C3.79916 18.4823 3.68864 18.3169 3.61324 18.1349C3.53783 17.9529 3.49902 17.7578 3.49902 17.5608C3.49902 17.3638 3.53783 17.1687 3.61324 16.9867C3.68864 16.8047 3.79916 16.6393 3.93848 16.5L16.9997 3.43969C17.139 3.30036 17.3044 3.18984 17.4864 3.11444C17.6684 3.03904 17.8635 3.00023 18.0605 3.00023C18.2575 3.00023 18.4526 3.03904 18.6346 3.11444C18.8166 3.18984 18.982 3.30036 19.1213 3.43969L21.06 5.37844C21.1994 5.51773 21.3099 5.6831 21.3853 5.86511C21.4607 6.04713 21.4995 6.24221 21.4995 6.43922C21.4995 6.63623 21.4607 6.83131 21.3853 7.01332C21.3099 7.19533 21.1994 7.36071 21.06 7.5ZM15.9385 10.5L13.9997 8.56031L4.99973 17.5603L6.93848 19.5L15.9385 10.5ZM19.9997 6.43969L18.06 4.5L15.06 7.5L16.9997 9.43969L19.9997 6.43969Z" fill="#5D87FF"/>
</svg>
