<svg width="26" height="25" viewBox="0 0 26 25" fill="none" xmlns="http://www.w3.org/2000/svg">
<path d="M18.0153 17.3479C18.9747 17.2486 19.7026 16.4214 19.6695 15.4288C19.6365 14.4362 18.8093 13.6421 17.8167 13.6421H17.7506C16.7248 13.6752 15.9308 14.5354 15.9639 15.5611C15.997 16.0574 16.1955 16.4875 16.4932 16.7853C15.3683 19.0022 13.6479 20.6235 11.0672 21.98C9.31358 22.9065 7.49389 23.2374 5.67419 23.0058C4.18529 22.8073 3.02727 22.1456 2.29927 21.0536C1.24058 19.4324 1.14136 17.6787 2.0347 15.9251C2.66337 14.6678 3.65584 13.7413 4.28451 13.2781C4.15218 12.848 3.95362 12.1201 3.8544 11.5907C-0.94311 15.0649 -0.446775 19.7632 1.00902 21.98C2.10082 23.6345 4.31762 24.6602 6.76599 24.6602C7.42767 24.6602 8.08935 24.594 8.75113 24.4286C12.9862 23.6014 16.1956 21.0867 18.0153 17.3479ZM23.8384 13.2451C21.3239 10.3003 17.6182 8.67902 13.3832 8.67902H12.8538C12.5561 8.08345 11.9274 7.68634 11.2326 7.68634H11.1664C10.1408 7.71945 9.3468 8.57969 9.3798 9.60547C9.41291 10.598 10.24 11.3922 11.2326 11.3922H11.2987C12.0266 11.359 12.6553 10.8958 12.92 10.2671H13.5155C16.0301 10.2671 18.4123 10.995 20.563 12.4178C22.2172 13.5097 23.4083 14.9325 24.07 16.653C24.6325 18.0427 24.5993 19.3992 24.0038 20.5574C23.0774 22.3109 21.5224 23.2705 19.4711 23.2705C18.1476 23.2705 16.8904 22.8734 16.2286 22.5756C15.8647 22.9065 15.2029 23.4358 14.7397 23.7668C16.1625 24.4285 17.6182 24.7925 19.0078 24.7925C22.1841 24.7925 24.5332 23.0388 25.4266 21.2853C26.386 19.3661 26.3198 16.0574 23.8384 13.2451ZM7.03066 17.9102C7.06377 18.9029 7.8909 19.6969 8.88347 19.6969H8.94969C9.97537 19.6639 10.7694 18.8036 10.7363 17.7779C10.7033 16.7852 9.87604 15.9912 8.88347 15.9912H8.81735C8.75113 15.9912 8.6518 15.9912 8.58579 16.0242C7.22922 13.7743 6.66676 11.3259 6.86532 8.67892C6.99755 6.69367 7.65933 4.9731 8.81735 3.55031C9.77681 2.32608 11.6296 1.73052 12.887 1.69751C16.394 1.63129 17.8828 5.99878 17.9821 7.75246C18.4123 7.85169 19.1402 8.08335 19.6365 8.2488C19.2394 2.88873 15.9308 0.109375 12.7546 0.109375C9.77681 0.109375 7.03066 2.26006 5.93876 5.43643C4.41685 9.67159 5.40942 13.7413 7.26222 16.9508C7.09688 17.1823 6.99755 17.5462 7.03066 17.9102Z" fill="#764ABC"/>
</svg>
