<svg width="360" height="207" viewBox="0 0 360 207" fill="none" xmlns="http://www.w3.org/2000/svg">
<g clip-path="url(#clip0_23184_22710)">
<rect width="360" height="207" fill="white"/>
<path d="M31.386 48V34.59H33.366L38.406 41.574H37.416L42.366 34.59H44.346V48H42.24V37.092L43.032 37.308L37.974 44.22H37.758L32.808 37.308L33.51 37.092V48H31.386ZM51.6184 48.216C50.6824 48.216 49.8244 47.994 49.0444 47.55C48.2764 47.106 47.6644 46.5 47.2084 45.732C46.7524 44.964 46.5244 44.094 46.5244 43.122C46.5244 42.138 46.7524 41.268 47.2084 40.512C47.6644 39.744 48.2764 39.144 49.0444 38.712C49.8124 38.268 50.6704 38.046 51.6184 38.046C52.5784 38.046 53.4364 38.268 54.1924 38.712C54.9604 39.144 55.5664 39.744 56.0104 40.512C56.4664 41.268 56.6944 42.138 56.6944 43.122C56.6944 44.106 56.4664 44.982 56.0104 45.75C55.5544 46.518 54.9424 47.124 54.1744 47.568C53.4064 48 52.5544 48.216 51.6184 48.216ZM51.6184 46.326C52.1944 46.326 52.7044 46.188 53.1484 45.912C53.5924 45.636 53.9404 45.258 54.1924 44.778C54.4564 44.286 54.5884 43.734 54.5884 43.122C54.5884 42.51 54.4564 41.964 54.1924 41.484C53.9404 41.004 53.5924 40.626 53.1484 40.35C52.7044 40.074 52.1944 39.936 51.6184 39.936C51.0544 39.936 50.5444 40.074 50.0884 40.35C49.6444 40.626 49.2904 41.004 49.0264 41.484C48.7744 41.964 48.6484 42.51 48.6484 43.122C48.6484 43.734 48.7744 44.286 49.0264 44.778C49.2904 45.258 49.6444 45.636 50.0884 45.912C50.5444 46.188 51.0544 46.326 51.6184 46.326ZM58.6802 48V38.262H60.6242V40.17L60.3902 39.918C60.6302 39.306 61.0142 38.844 61.5422 38.532C62.0702 38.208 62.6822 38.046 63.3782 38.046C64.0982 38.046 64.7342 38.202 65.2862 38.514C65.8382 38.826 66.2702 39.258 66.5822 39.81C66.8942 40.362 67.0502 40.998 67.0502 41.718V48H65.0342V42.258C65.0342 41.766 64.9442 41.352 64.7642 41.016C64.5842 40.668 64.3262 40.404 63.9902 40.224C63.6662 40.032 63.2942 39.936 62.8742 39.936C62.4542 39.936 62.0762 40.032 61.7402 40.224C61.4162 40.404 61.1642 40.668 60.9842 41.016C60.8042 41.364 60.7142 41.778 60.7142 42.258V48H58.6802ZM73.4391 48.108C72.4191 48.108 71.6271 47.82 71.0631 47.244C70.4991 46.668 70.2171 45.858 70.2171 44.814V40.098H68.5071V38.262H68.7771C69.2331 38.262 69.5871 38.13 69.8391 37.866C70.0911 37.602 70.2171 37.242 70.2171 36.786V36.03H72.2511V38.262H74.4651V40.098H72.2511V44.724C72.2511 45.06 72.3051 45.348 72.4131 45.588C72.5211 45.816 72.6951 45.996 72.9351 46.128C73.1751 46.248 73.4871 46.308 73.8711 46.308C73.9671 46.308 74.0751 46.302 74.1951 46.29C74.3151 46.278 74.4291 46.266 74.5371 46.254V48C74.3691 48.024 74.1831 48.048 73.9791 48.072C73.7751 48.096 73.5951 48.108 73.4391 48.108ZM76.522 48V34.374H78.556V40.17L78.232 39.918C78.472 39.306 78.856 38.844 79.384 38.532C79.912 38.208 80.524 38.046 81.22 38.046C81.94 38.046 82.576 38.202 83.128 38.514C83.68 38.826 84.112 39.258 84.424 39.81C84.736 40.362 84.892 40.992 84.892 41.7V48H82.876V42.258C82.876 41.766 82.78 41.352 82.588 41.016C82.408 40.668 82.156 40.404 81.832 40.224C81.508 40.032 81.136 39.936 80.716 39.936C80.308 39.936 79.936 40.032 79.6 40.224C79.276 40.404 79.018 40.668 78.826 41.016C78.646 41.364 78.556 41.778 78.556 42.258V48H76.522ZM87.0689 48V34.374H89.1029V48H87.0689ZM92.345 51.96C92.105 51.96 91.865 51.936 91.625 51.888C91.397 51.852 91.187 51.792 90.995 51.708V49.962C91.139 49.998 91.313 50.028 91.517 50.052C91.721 50.088 91.919 50.106 92.111 50.106C92.675 50.106 93.089 49.98 93.353 49.728C93.629 49.488 93.875 49.116 94.091 48.612L94.739 47.136L94.703 48.846L90.491 38.262H92.669L95.783 46.38H95.045L98.141 38.262H100.337L96.035 49.062C95.807 49.638 95.519 50.142 95.171 50.574C94.835 51.018 94.433 51.36 93.965 51.6C93.509 51.84 92.969 51.96 92.345 51.96ZM109.448 48.216C108.476 48.216 107.612 47.994 106.856 47.55C106.112 47.094 105.53 46.482 105.11 45.714C104.69 44.934 104.48 44.064 104.48 43.104C104.48 42.12 104.69 41.25 105.11 40.494C105.542 39.738 106.118 39.144 106.838 38.712C107.558 38.268 108.374 38.046 109.286 38.046C110.018 38.046 110.672 38.172 111.248 38.424C111.824 38.676 112.31 39.024 112.706 39.468C113.102 39.9 113.402 40.398 113.605 40.962C113.822 41.526 113.93 42.126 113.93 42.762C113.93 42.918 113.924 43.08 113.912 43.248C113.9 43.416 113.876 43.572 113.84 43.716H106.082V42.096H112.688L111.716 42.834C111.836 42.246 111.794 41.724 111.59 41.268C111.398 40.8 111.098 40.434 110.69 40.17C110.294 39.894 109.826 39.756 109.286 39.756C108.746 39.756 108.266 39.894 107.846 40.17C107.426 40.434 107.102 40.818 106.874 41.322C106.646 41.814 106.556 42.414 106.604 43.122C106.544 43.782 106.634 44.358 106.874 44.85C107.126 45.342 107.474 45.726 107.918 46.002C108.374 46.278 108.89 46.416 109.466 46.416C110.054 46.416 110.552 46.284 110.96 46.02C111.38 45.756 111.71 45.414 111.95 44.994L113.605 45.804C113.414 46.26 113.114 46.674 112.706 47.046C112.31 47.406 111.83 47.694 111.266 47.91C110.714 48.114 110.108 48.216 109.448 48.216ZM118.743 48.216C118.083 48.216 117.501 48.102 116.997 47.874C116.505 47.634 116.121 47.31 115.845 46.902C115.569 46.482 115.431 45.99 115.431 45.426C115.431 44.898 115.545 44.424 115.773 44.004C116.013 43.584 116.379 43.23 116.871 42.942C117.363 42.654 117.981 42.45 118.725 42.33L122.109 41.772V43.374L119.121 43.896C118.581 43.992 118.185 44.166 117.933 44.418C117.681 44.658 117.555 44.97 117.555 45.354C117.555 45.726 117.693 46.032 117.969 46.272C118.257 46.5 118.623 46.614 119.067 46.614C119.619 46.614 120.099 46.494 120.507 46.254C120.927 46.014 121.251 45.696 121.479 45.3C121.707 44.892 121.821 44.442 121.821 43.95V41.448C121.821 40.968 121.641 40.578 121.281 40.278C120.933 39.966 120.465 39.81 119.877 39.81C119.337 39.81 118.863 39.954 118.455 40.242C118.059 40.518 117.765 40.878 117.573 41.322L115.881 40.476C116.061 39.996 116.355 39.576 116.763 39.216C117.171 38.844 117.645 38.556 118.185 38.352C118.737 38.148 119.319 38.046 119.931 38.046C120.699 38.046 121.377 38.19 121.965 38.478C122.565 38.766 123.027 39.168 123.351 39.684C123.687 40.188 123.855 40.776 123.855 41.448V48H121.911V46.236L122.325 46.29C122.097 46.686 121.803 47.028 121.443 47.316C121.095 47.604 120.693 47.826 120.237 47.982C119.793 48.138 119.295 48.216 118.743 48.216ZM126.233 48V38.262H128.177V40.224L127.997 39.936C128.213 39.3 128.561 38.844 129.041 38.568C129.521 38.28 130.097 38.136 130.769 38.136H131.363V39.99H130.517C129.845 39.99 129.299 40.2 128.879 40.62C128.471 41.028 128.267 41.616 128.267 42.384V48H126.233ZM132.754 48V38.262H134.698V40.17L134.464 39.918C134.704 39.306 135.088 38.844 135.616 38.532C136.144 38.208 136.756 38.046 137.452 38.046C138.172 38.046 138.808 38.202 139.36 38.514C139.912 38.826 140.344 39.258 140.656 39.81C140.968 40.362 141.124 40.998 141.124 41.718V48H139.108V42.258C139.108 41.766 139.018 41.352 138.838 41.016C138.658 40.668 138.4 40.404 138.064 40.224C137.74 40.032 137.368 39.936 136.948 39.936C136.528 39.936 136.15 40.032 135.814 40.224C135.49 40.404 135.238 40.668 135.058 41.016C134.878 41.364 134.788 41.778 134.788 42.258V48H132.754ZM143.301 48V38.262H145.335V48H143.301ZM143.301 36.93V34.59H145.335V36.93H143.301ZM147.713 48V38.262H149.657V40.17L149.423 39.918C149.663 39.306 150.047 38.844 150.575 38.532C151.103 38.208 151.715 38.046 152.411 38.046C153.131 38.046 153.767 38.202 154.319 38.514C154.871 38.826 155.303 39.258 155.615 39.81C155.927 40.362 156.083 40.998 156.083 41.718V48H154.067V42.258C154.067 41.766 153.977 41.352 153.797 41.016C153.617 40.668 153.359 40.404 153.023 40.224C152.699 40.032 152.327 39.936 151.907 39.936C151.487 39.936 151.109 40.032 150.773 40.224C150.449 40.404 150.197 40.668 150.017 41.016C149.837 41.364 149.747 41.778 149.747 42.258V48H147.713ZM162.958 51.96C162.25 51.96 161.596 51.846 160.996 51.618C160.396 51.39 159.88 51.072 159.448 50.664C159.016 50.268 158.692 49.8 158.476 49.26L160.348 48.486C160.516 48.942 160.822 49.32 161.266 49.62C161.722 49.92 162.28 50.07 162.94 50.07C163.456 50.07 163.918 49.968 164.326 49.764C164.734 49.572 165.058 49.284 165.298 48.9C165.538 48.528 165.658 48.078 165.658 47.55V45.354L166.018 45.768C165.682 46.392 165.214 46.866 164.614 47.19C164.026 47.514 163.36 47.676 162.616 47.676C161.716 47.676 160.906 47.466 160.186 47.046C159.466 46.626 158.896 46.05 158.476 45.318C158.068 44.586 157.864 43.764 157.864 42.852C157.864 41.928 158.068 41.106 158.476 40.386C158.896 39.666 159.46 39.096 160.168 38.676C160.876 38.256 161.686 38.046 162.598 38.046C163.342 38.046 164.002 38.208 164.578 38.532C165.166 38.844 165.646 39.3 166.018 39.9L165.748 40.404V38.262H167.674V47.55C167.674 48.39 167.47 49.14 167.062 49.8C166.666 50.472 166.114 51 165.406 51.384C164.698 51.768 163.882 51.96 162.958 51.96ZM162.85 45.786C163.39 45.786 163.87 45.66 164.29 45.408C164.71 45.144 165.04 44.796 165.28 44.364C165.532 43.92 165.658 43.422 165.658 42.87C165.658 42.318 165.532 41.82 165.28 41.376C165.028 40.932 164.692 40.584 164.272 40.332C163.852 40.068 163.378 39.936 162.85 39.936C162.298 39.936 161.806 40.068 161.374 40.332C160.942 40.584 160.6 40.932 160.348 41.376C160.108 41.808 159.988 42.306 159.988 42.87C159.988 43.41 160.108 43.902 160.348 44.346C160.6 44.79 160.942 45.144 161.374 45.408C161.806 45.66 162.298 45.786 162.85 45.786ZM173.655 48.216C172.659 48.216 171.783 47.97 171.027 47.478C170.283 46.986 169.761 46.326 169.461 45.498L171.027 44.76C171.291 45.312 171.651 45.75 172.107 46.074C172.575 46.398 173.091 46.56 173.655 46.56C174.135 46.56 174.525 46.452 174.825 46.236C175.125 46.02 175.275 45.726 175.275 45.354C175.275 45.114 175.209 44.922 175.077 44.778C174.945 44.622 174.777 44.496 174.573 44.4C174.381 44.304 174.183 44.232 173.979 44.184L172.449 43.752C171.609 43.512 170.979 43.152 170.559 42.672C170.151 42.18 169.947 41.61 169.947 40.962C169.947 40.374 170.097 39.864 170.397 39.432C170.697 38.988 171.111 38.646 171.639 38.406C172.167 38.166 172.761 38.046 173.421 38.046C174.309 38.046 175.101 38.268 175.797 38.712C176.493 39.144 176.985 39.75 177.273 40.53L175.707 41.268C175.515 40.8 175.209 40.428 174.789 40.152C174.381 39.876 173.919 39.738 173.403 39.738C172.959 39.738 172.605 39.846 172.341 40.062C172.077 40.266 171.945 40.536 171.945 40.872C171.945 41.1 172.005 41.292 172.125 41.448C172.245 41.592 172.401 41.712 172.593 41.808C172.785 41.892 172.983 41.964 173.187 42.024L174.771 42.492C175.575 42.72 176.193 43.08 176.625 43.572C177.057 44.052 177.273 44.628 177.273 45.3C177.273 45.876 177.117 46.386 176.805 46.83C176.505 47.262 176.085 47.604 175.545 47.856C175.005 48.096 174.375 48.216 173.655 48.216Z" fill="#2A3547"/>
<rect x="290" y="30" width="40" height="40" rx="20" fill="#49BEFF"/>
<path d="M309.25 58.75V56.65C308.383 56.5 307.638 56.1627 307.013 55.638C306.388 55.1127 305.925 54.375 305.625 53.425L307 52.85C307.267 53.6333 307.65 54.229 308.15 54.637C308.65 55.0457 309.317 55.25 310.15 55.25C310.867 55.25 311.5 55.0793 312.05 54.738C312.6 54.396 312.875 53.85 312.875 53.1C312.875 52.45 312.671 51.9333 312.262 51.55C311.854 51.1667 311 50.7667 309.7 50.35C308.333 49.9167 307.383 49.4083 306.85 48.825C306.317 48.2417 306.05 47.5167 306.05 46.65C306.05 45.65 306.404 44.8583 307.113 44.275C307.821 43.6917 308.533 43.3667 309.25 43.3V41.25H310.75V43.3C311.517 43.4167 312.158 43.6707 312.675 44.062C313.192 44.454 313.6 44.9667 313.9 45.6L312.525 46.225C312.308 45.7417 312.004 45.3667 311.613 45.1C311.221 44.8333 310.7 44.7 310.05 44.7C309.3 44.7 308.696 44.8833 308.238 45.25C307.779 45.6167 307.55 46.0833 307.55 46.65C307.55 47.2333 307.783 47.7 308.25 48.05C308.717 48.4 309.592 48.7667 310.875 49.15C312.058 49.5 312.937 50.0083 313.512 50.675C314.087 51.3417 314.375 52.1417 314.375 53.075C314.375 54.1583 314.025 55.004 313.325 55.612C312.625 56.2207 311.767 56.5833 310.75 56.7V58.75H309.25Z" fill="white"/>
<path d="M38.112 106.288C36.992 106.288 35.952 106.08 34.992 105.664C34.032 105.232 33.216 104.648 32.544 103.912C31.872 103.176 31.376 102.328 31.056 101.368L33.456 100.36C33.888 101.464 34.52 102.312 35.352 102.904C36.184 103.496 37.144 103.792 38.232 103.792C38.872 103.792 39.432 103.696 39.912 103.504C40.392 103.296 40.76 103.008 41.016 102.64C41.288 102.272 41.424 101.848 41.424 101.368C41.424 100.712 41.24 100.192 40.872 99.808C40.504 99.424 39.96 99.12 39.24 98.896L35.88 97.84C34.536 97.424 33.512 96.792 32.808 95.944C32.104 95.08 31.752 94.072 31.752 92.92C31.752 91.912 32 91.032 32.496 90.28C32.992 89.512 33.672 88.912 34.536 88.48C35.416 88.048 36.416 87.832 37.536 87.832C38.608 87.832 39.584 88.024 40.464 88.408C41.344 88.776 42.096 89.288 42.72 89.944C43.36 90.6 43.824 91.36 44.112 92.224L41.76 93.256C41.408 92.312 40.856 91.584 40.104 91.072C39.368 90.56 38.512 90.304 37.536 90.304C36.944 90.304 36.424 90.408 35.976 90.616C35.528 90.808 35.176 91.096 34.92 91.48C34.68 91.848 34.56 92.28 34.56 92.776C34.56 93.352 34.744 93.864 35.112 94.312C35.48 94.76 36.04 95.096 36.792 95.32L39.912 96.304C41.336 96.736 42.408 97.36 43.128 98.176C43.848 98.976 44.208 99.976 44.208 101.176C44.208 102.168 43.944 103.048 43.416 103.816C42.904 104.584 42.192 105.192 41.28 105.64C40.368 106.072 39.312 106.288 38.112 106.288ZM37.008 108.4V85.72H38.928V108.4H37.008ZM52.7631 106.288C51.5951 106.288 50.5551 106.032 49.6431 105.52C48.7311 105.008 48.0111 104.304 47.4831 103.408C46.9711 102.512 46.7151 101.496 46.7151 100.36C46.7151 99.768 46.7791 99.176 46.9071 98.584C47.0351 97.992 47.2591 97.376 47.5791 96.736C47.9151 96.096 48.3631 95.408 48.9231 94.672L53.9151 88.12H57.2991L51.1791 96.04L50.6991 95.728C50.9231 95.472 51.1631 95.272 51.4191 95.128C51.6911 94.984 51.9711 94.88 52.2591 94.816C52.5631 94.752 52.8831 94.72 53.2191 94.72C54.2911 94.72 55.2511 94.968 56.0991 95.464C56.9471 95.96 57.6111 96.632 58.0911 97.48C58.5871 98.328 58.8351 99.304 58.8351 100.408C58.8351 101.528 58.5711 102.536 58.0431 103.432C57.5151 104.312 56.7951 105.008 55.8831 105.52C54.9871 106.032 53.9471 106.288 52.7631 106.288ZM52.7631 103.768C53.3871 103.768 53.9391 103.624 54.4191 103.336C54.8991 103.048 55.2831 102.656 55.5711 102.16C55.8591 101.648 56.0031 101.072 56.0031 100.432C56.0031 99.776 55.8591 99.2 55.5711 98.704C55.2991 98.208 54.9151 97.824 54.4191 97.552C53.9391 97.264 53.3871 97.12 52.7631 97.12C52.1551 97.12 51.6031 97.264 51.1071 97.552C50.6271 97.824 50.2431 98.208 49.9551 98.704C49.6671 99.2 49.5231 99.776 49.5231 100.432C49.5231 101.072 49.6671 101.648 49.9551 102.16C50.2431 102.656 50.6271 103.048 51.1071 103.336C51.6031 103.624 52.1551 103.768 52.7631 103.768ZM62.2331 109.528V108.208C62.7611 108.08 63.1691 107.832 63.4571 107.464C63.7451 107.112 63.9211 106.624 63.9851 106H62.7131V102.88H65.4731V104.92C65.4731 106.2 65.2011 107.232 64.6571 108.016C64.1131 108.8 63.3051 109.304 62.2331 109.528ZM75.3881 106.288C74.1401 106.288 73.0441 106.048 72.1001 105.568C71.1721 105.072 70.4521 104.416 69.9401 103.6C69.4281 102.768 69.1721 101.848 69.1721 100.84C69.1721 99.688 69.4841 98.696 70.1081 97.864C70.7481 97.016 71.6441 96.4 72.7961 96.016L72.6761 96.736C71.8281 96.416 71.1561 95.88 70.6601 95.128C70.1801 94.36 69.9401 93.52 69.9401 92.608C69.9401 91.696 70.1721 90.88 70.6361 90.16C71.1161 89.44 71.7641 88.872 72.5801 88.456C73.4121 88.04 74.3481 87.832 75.3881 87.832C76.4441 87.832 77.3801 88.04 78.1961 88.456C79.0121 88.856 79.6521 89.416 80.1161 90.136C80.5961 90.856 80.8361 91.68 80.8361 92.608C80.8361 93.552 80.5881 94.4 80.0921 95.152C79.6121 95.888 78.9561 96.416 78.1241 96.736L78.0041 96.016C79.1561 96.416 80.0521 97.032 80.6921 97.864C81.3321 98.696 81.6521 99.688 81.6521 100.84C81.6521 101.848 81.3881 102.768 80.8601 103.6C80.3481 104.416 79.6201 105.072 78.6761 105.568C77.7321 106.048 76.6361 106.288 75.3881 106.288ZM75.3881 103.888C76.0761 103.888 76.6761 103.76 77.1881 103.504C77.7001 103.232 78.1001 102.864 78.3881 102.4C78.6761 101.936 78.8201 101.392 78.8201 100.768C78.8201 100.144 78.6761 99.6 78.3881 99.136C78.1001 98.672 77.7001 98.312 77.1881 98.056C76.6761 97.8 76.0761 97.672 75.3881 97.672C74.7161 97.672 74.1241 97.8 73.6121 98.056C73.1001 98.312 72.7001 98.672 72.4121 99.136C72.1241 99.6 71.9801 100.144 71.9801 100.768C71.9801 101.392 72.1241 101.936 72.4121 102.4C72.7001 102.864 73.1001 103.232 73.6121 103.504C74.1241 103.76 74.7161 103.888 75.3881 103.888ZM75.3881 95.272C75.9001 95.272 76.3481 95.168 76.7321 94.96C77.1321 94.736 77.4441 94.432 77.6681 94.048C77.8921 93.664 78.0041 93.232 78.0041 92.752C78.0041 92.256 77.8921 91.824 77.6681 91.456C77.4441 91.072 77.1321 90.776 76.7321 90.568C76.3481 90.344 75.9001 90.232 75.3881 90.232C74.8921 90.232 74.4441 90.344 74.0441 90.568C73.6441 90.776 73.3321 91.072 73.1081 91.456C72.8841 91.824 72.7721 92.256 72.7721 92.752C72.7721 93.232 72.8841 93.664 73.1081 94.048C73.3321 94.432 73.6441 94.736 74.0441 94.96C74.4441 95.168 74.8921 95.272 75.3881 95.272ZM84.1688 106V103.96L89.0648 98.728C90.0248 97.704 90.7768 96.88 91.3208 96.256C91.8808 95.616 92.2808 95.056 92.5208 94.576C92.7768 94.096 92.9048 93.592 92.9048 93.064C92.9048 92.2 92.6408 91.536 92.1128 91.072C91.5848 90.592 90.9048 90.352 90.0728 90.352C89.2088 90.352 88.4648 90.6 87.8408 91.096C87.2168 91.576 86.7848 92.28 86.5448 93.208L84.0488 92.488C84.2408 91.544 84.6248 90.728 85.2008 90.04C85.7768 89.336 86.4808 88.792 87.3128 88.408C88.1608 88.024 89.0728 87.832 90.0488 87.832C91.1848 87.832 92.1768 88.048 93.0248 88.48C93.8728 88.896 94.5288 89.48 94.9928 90.232C95.4728 90.984 95.7128 91.856 95.7128 92.848C95.7128 93.504 95.5848 94.144 95.3288 94.768C95.0888 95.376 94.7128 96.024 94.2008 96.712C93.6888 97.384 93.0328 98.144 92.2328 98.992L87.9128 103.6H96.0488V106H84.1688ZM105.929 106.288C104.505 106.288 103.257 105.904 102.185 105.136C101.113 104.352 100.273 103.272 99.6645 101.896C99.0725 100.504 98.7765 98.888 98.7765 97.048C98.7765 95.192 99.0725 93.576 99.6645 92.2C100.273 90.824 101.105 89.752 102.161 88.984C103.233 88.216 104.481 87.832 105.905 87.832C107.329 87.832 108.569 88.216 109.625 88.984C110.697 89.752 111.529 90.832 112.121 92.224C112.729 93.6 113.033 95.208 113.033 97.048C113.033 98.888 112.737 100.504 112.145 101.896C111.553 103.272 110.721 104.352 109.648 105.136C108.593 105.904 107.353 106.288 105.929 106.288ZM105.929 103.696C106.809 103.696 107.569 103.424 108.209 102.88C108.849 102.336 109.345 101.568 109.697 100.576C110.049 99.584 110.225 98.408 110.225 97.048C110.225 95.688 110.049 94.512 109.697 93.52C109.345 92.528 108.849 91.76 108.209 91.216C107.569 90.672 106.801 90.4 105.905 90.4C105.025 90.4 104.265 90.672 103.625 91.216C102.985 91.76 102.489 92.528 102.137 93.52C101.785 94.512 101.609 95.688 101.609 97.048C101.609 98.392 101.785 99.568 102.137 100.576C102.489 101.568 102.985 102.336 103.625 102.88C104.281 103.424 105.049 103.696 105.929 103.696Z" fill="#2A3547"/>
<rect x="30" y="111" width="20" height="20" rx="10" fill="#FBF2EF"/>
<path d="M36.2664 116.5L35.5664 117.2L42.1331 123.767H36.1664V124.767H43.8331V117.1H42.8331V123.067L36.2664 116.5Z" fill="#FA896B"/>
<path d="M57.724 127V124.018H54.742V122.968H57.724V120H58.774V122.968H61.742V124.018H58.774V127H57.724ZM64.2402 127L67.8662 122.254L68.0762 122.128C67.9362 122.352 67.7729 122.529 67.5862 122.66C67.3996 122.791 67.1942 122.884 66.9702 122.94C66.7462 122.996 66.4989 123.024 66.2282 123.024C65.6216 123.024 65.0756 122.884 64.5902 122.604C64.1049 122.315 63.7176 121.923 63.4282 121.428C63.1482 120.924 63.0082 120.35 63.0082 119.706C63.0082 119.071 63.1529 118.507 63.4422 118.012C63.7409 117.517 64.1422 117.125 64.6462 116.836C65.1596 116.547 65.7336 116.402 66.3682 116.402C67.0216 116.402 67.6002 116.551 68.1042 116.85C68.6082 117.139 69.0049 117.545 69.2942 118.068C69.5836 118.581 69.7282 119.174 69.7282 119.846C69.7282 120.219 69.6816 120.588 69.5882 120.952C69.5042 121.316 69.3736 121.675 69.1962 122.03C69.0189 122.385 68.7949 122.739 68.5242 123.094L65.5842 127H64.2402ZM66.3682 122.016C66.8069 122.016 67.1942 121.918 67.5302 121.722C67.8662 121.517 68.1276 121.241 68.3142 120.896C68.5102 120.541 68.6082 120.145 68.6082 119.706C68.6082 119.258 68.5102 118.861 68.3142 118.516C68.1182 118.161 67.8522 117.886 67.5162 117.69C67.1802 117.485 66.7976 117.382 66.3682 117.382C65.9389 117.382 65.5562 117.485 65.2202 117.69C64.8842 117.886 64.6182 118.161 64.4222 118.516C64.2262 118.861 64.1282 119.258 64.1282 119.706C64.1282 120.145 64.2216 120.541 64.4082 120.896C64.6042 121.241 64.8702 121.517 65.2062 121.722C65.5516 121.918 65.9389 122.016 66.3682 122.016ZM72.2158 127L80.7558 116.57H82.1138L73.5738 127H72.2158ZM73.7418 121.862C73.2378 121.862 72.7804 121.741 72.3698 121.498C71.9591 121.246 71.6278 120.915 71.3758 120.504C71.1331 120.093 71.0118 119.636 71.0118 119.132C71.0118 118.628 71.1331 118.171 71.3758 117.76C71.6278 117.34 71.9591 117.009 72.3698 116.766C72.7804 116.523 73.2378 116.402 73.7418 116.402C74.2458 116.402 74.7031 116.523 75.1138 116.766C75.5244 117.009 75.8511 117.34 76.0938 117.76C76.3364 118.171 76.4578 118.628 76.4578 119.132C76.4578 119.636 76.3364 120.093 76.0938 120.504C75.8511 120.915 75.5244 121.246 75.1138 121.498C74.7031 121.741 74.2458 121.862 73.7418 121.862ZM73.7418 120.854C74.0684 120.854 74.3531 120.775 74.5958 120.616C74.8478 120.448 75.0438 120.233 75.1838 119.972C75.3331 119.701 75.4078 119.421 75.4078 119.132C75.4078 118.833 75.3331 118.553 75.1838 118.292C75.0438 118.031 74.8478 117.821 74.5958 117.662C74.3531 117.494 74.0684 117.41 73.7418 117.41C73.4244 117.41 73.1351 117.494 72.8738 117.662C72.6218 117.821 72.4211 118.031 72.2718 118.292C72.1318 118.553 72.0618 118.833 72.0618 119.132C72.0618 119.421 72.1318 119.701 72.2718 119.972C72.4211 120.233 72.6218 120.448 72.8738 120.616C73.1351 120.775 73.4244 120.854 73.7418 120.854ZM80.4618 127.168C79.9578 127.168 79.5004 127.047 79.0898 126.804C78.6791 126.552 78.3478 126.221 78.0958 125.81C77.8531 125.399 77.7318 124.942 77.7318 124.438C77.7318 123.934 77.8531 123.477 78.0958 123.066C78.3478 122.646 78.6791 122.315 79.0898 122.072C79.5004 121.829 79.9578 121.708 80.4618 121.708C80.9658 121.708 81.4231 121.829 81.8338 122.072C82.2444 122.315 82.5711 122.646 82.8138 123.066C83.0564 123.477 83.1778 123.934 83.1778 124.438C83.1778 124.942 83.0564 125.399 82.8138 125.81C82.5711 126.221 82.2444 126.552 81.8338 126.804C81.4231 127.047 80.9658 127.168 80.4618 127.168ZM80.4618 126.16C80.7884 126.16 81.0731 126.081 81.3158 125.922C81.5678 125.754 81.7638 125.539 81.9038 125.278C82.0531 125.007 82.1278 124.727 82.1278 124.438C82.1278 124.139 82.0531 123.859 81.9038 123.598C81.7638 123.337 81.5678 123.127 81.3158 122.968C81.0731 122.8 80.7884 122.716 80.4618 122.716C80.1444 122.716 79.8551 122.8 79.5938 122.968C79.3418 123.127 79.1411 123.337 78.9918 123.598C78.8518 123.859 78.7818 124.139 78.7818 124.438C78.7818 124.727 78.8518 125.007 78.9918 125.278C79.1411 125.539 79.3418 125.754 79.5938 125.922C79.8551 126.081 80.1444 126.16 80.4618 126.16Z" fill="#1E3146"/>
<path d="M91.948 127.084C91.276 127.084 90.758 126.888 90.394 126.496C90.03 126.104 89.848 125.544 89.848 124.816V120.546H88.462V119.496H88.812C89.1293 119.496 89.3813 119.393 89.568 119.188C89.7547 118.973 89.848 118.707 89.848 118.39V117.76H90.898V119.496H92.55V120.546H90.898V124.816C90.898 125.068 90.9353 125.292 91.01 125.488C91.0847 125.675 91.2107 125.824 91.388 125.936C91.5747 126.048 91.822 126.104 92.13 126.104C92.2047 126.104 92.2933 126.099 92.396 126.09C92.4987 126.081 92.5873 126.071 92.662 126.062V127C92.55 127.028 92.424 127.047 92.284 127.056C92.144 127.075 92.032 127.084 91.948 127.084ZM94.2257 127V116.402H95.2757V120.952L95.0377 120.896C95.2244 120.411 95.5277 120.028 95.9477 119.748C96.3771 119.468 96.8717 119.328 97.4317 119.328C97.9637 119.328 98.4397 119.449 98.8597 119.692C99.2891 119.935 99.6251 120.271 99.8677 120.7C100.12 121.12 100.246 121.596 100.246 122.128V127H99.1957V122.534C99.1957 122.077 99.1117 121.689 98.9437 121.372C98.7757 121.055 98.5424 120.812 98.2437 120.644C97.9544 120.467 97.6231 120.378 97.2497 120.378C96.8764 120.378 96.5404 120.467 96.2417 120.644C95.9431 120.812 95.7051 121.059 95.5277 121.386C95.3597 121.703 95.2757 122.086 95.2757 122.534V127H94.2257ZM104.141 127.168C103.665 127.168 103.24 127.079 102.867 126.902C102.494 126.715 102.2 126.463 101.985 126.146C101.77 125.829 101.663 125.465 101.663 125.054C101.663 124.662 101.747 124.307 101.915 123.99C102.083 123.663 102.344 123.388 102.699 123.164C103.054 122.94 103.506 122.781 104.057 122.688L106.997 122.198V123.15L104.309 123.598C103.768 123.691 103.376 123.864 103.133 124.116C102.9 124.368 102.783 124.667 102.783 125.012C102.783 125.348 102.914 125.633 103.175 125.866C103.446 126.099 103.791 126.216 104.211 126.216C104.724 126.216 105.172 126.109 105.555 125.894C105.938 125.67 106.236 125.371 106.451 124.998C106.666 124.625 106.773 124.209 106.773 123.752V121.848C106.773 121.4 106.61 121.036 106.283 120.756C105.956 120.476 105.532 120.336 105.009 120.336C104.552 120.336 104.15 120.453 103.805 120.686C103.46 120.91 103.203 121.204 103.035 121.568L102.083 121.05C102.223 120.733 102.442 120.443 102.741 120.182C103.049 119.921 103.399 119.715 103.791 119.566C104.183 119.407 104.589 119.328 105.009 119.328C105.56 119.328 106.045 119.435 106.465 119.65C106.894 119.865 107.226 120.163 107.459 120.546C107.702 120.919 107.823 121.353 107.823 121.848V127H106.773V125.502L106.927 125.656C106.796 125.936 106.591 126.193 106.311 126.426C106.04 126.65 105.718 126.832 105.345 126.972C104.981 127.103 104.58 127.168 104.141 127.168ZM109.703 127V119.496H110.753V120.952L110.515 120.896C110.702 120.411 111.005 120.028 111.425 119.748C111.854 119.468 112.349 119.328 112.909 119.328C113.441 119.328 113.917 119.449 114.337 119.692C114.766 119.935 115.102 120.271 115.345 120.7C115.597 121.12 115.723 121.596 115.723 122.128V127H114.673V122.534C114.673 122.077 114.589 121.689 114.421 121.372C114.262 121.055 114.034 120.812 113.735 120.644C113.446 120.467 113.11 120.378 112.727 120.378C112.344 120.378 112.004 120.467 111.705 120.644C111.406 120.812 111.173 121.059 111.005 121.386C110.837 121.703 110.753 122.086 110.753 122.534V127H109.703ZM119.547 127V116.402H120.597V127H119.547ZM124.636 127.168C124.16 127.168 123.736 127.079 123.362 126.902C122.989 126.715 122.695 126.463 122.48 126.146C122.266 125.829 122.158 125.465 122.158 125.054C122.158 124.662 122.242 124.307 122.41 123.99C122.578 123.663 122.84 123.388 123.194 123.164C123.549 122.94 124.002 122.781 124.552 122.688L127.492 122.198V123.15L124.804 123.598C124.263 123.691 123.871 123.864 123.628 124.116C123.395 124.368 123.278 124.667 123.278 125.012C123.278 125.348 123.409 125.633 123.67 125.866C123.941 126.099 124.286 126.216 124.706 126.216C125.22 126.216 125.668 126.109 126.05 125.894C126.433 125.67 126.732 125.371 126.946 124.998C127.161 124.625 127.268 124.209 127.268 123.752V121.848C127.268 121.4 127.105 121.036 126.778 120.756C126.452 120.476 126.027 120.336 125.504 120.336C125.047 120.336 124.646 120.453 124.3 120.686C123.955 120.91 123.698 121.204 123.53 121.568L122.578 121.05C122.718 120.733 122.938 120.443 123.236 120.182C123.544 119.921 123.894 119.715 124.286 119.566C124.678 119.407 125.084 119.328 125.504 119.328C126.055 119.328 126.54 119.435 126.96 119.65C127.39 119.865 127.721 120.163 127.954 120.546C128.197 120.919 128.318 121.353 128.318 121.848V127H127.268V125.502L127.422 125.656C127.292 125.936 127.086 126.193 126.806 126.426C126.536 126.65 126.214 126.832 125.84 126.972C125.476 127.103 125.075 127.168 124.636 127.168ZM132.802 127.168C132.083 127.168 131.453 126.986 130.912 126.622C130.371 126.258 129.979 125.763 129.736 125.138L130.618 124.718C130.833 125.175 131.131 125.539 131.514 125.81C131.906 126.081 132.335 126.216 132.802 126.216C133.25 126.216 133.628 126.109 133.936 125.894C134.244 125.67 134.398 125.381 134.398 125.026C134.398 124.765 134.323 124.559 134.174 124.41C134.025 124.251 133.852 124.13 133.656 124.046C133.46 123.962 133.287 123.901 133.138 123.864L132.06 123.556C131.369 123.36 130.87 123.085 130.562 122.73C130.254 122.375 130.1 121.965 130.1 121.498C130.1 121.059 130.212 120.677 130.436 120.35C130.66 120.023 130.963 119.771 131.346 119.594C131.729 119.417 132.153 119.328 132.62 119.328C133.255 119.328 133.829 119.496 134.342 119.832C134.865 120.159 135.233 120.616 135.448 121.204L134.552 121.624C134.365 121.204 134.095 120.877 133.74 120.644C133.395 120.401 133.007 120.28 132.578 120.28C132.158 120.28 131.822 120.387 131.57 120.602C131.318 120.817 131.192 121.087 131.192 121.414C131.192 121.666 131.257 121.867 131.388 122.016C131.519 122.165 131.668 122.277 131.836 122.352C132.013 122.427 132.167 122.483 132.298 122.52L133.544 122.884C134.151 123.061 134.622 123.337 134.958 123.71C135.303 124.083 135.476 124.522 135.476 125.026C135.476 125.437 135.359 125.805 135.126 126.132C134.902 126.459 134.589 126.715 134.188 126.902C133.787 127.079 133.325 127.168 132.802 127.168ZM139.911 127.084C139.239 127.084 138.721 126.888 138.357 126.496C137.993 126.104 137.811 125.544 137.811 124.816V120.546H136.425V119.496H136.775C137.092 119.496 137.344 119.393 137.531 119.188C137.718 118.973 137.811 118.707 137.811 118.39V117.76H138.861V119.496H140.513V120.546H138.861V124.816C138.861 125.068 138.898 125.292 138.973 125.488C139.048 125.675 139.174 125.824 139.351 125.936C139.538 126.048 139.785 126.104 140.093 126.104C140.168 126.104 140.256 126.099 140.359 126.09C140.462 126.081 140.55 126.071 140.625 126.062V127C140.513 127.028 140.387 127.047 140.247 127.056C140.107 127.075 139.995 127.084 139.911 127.084ZM144.442 130.08C144.292 130.08 144.138 130.066 143.98 130.038C143.83 130.019 143.681 129.982 143.532 129.926V128.946C143.625 128.955 143.742 128.969 143.882 128.988C144.031 129.016 144.18 129.03 144.33 129.03C144.787 129.03 145.137 128.932 145.38 128.736C145.622 128.549 145.86 128.185 146.094 127.644L146.57 126.524L146.542 127.448L143.364 119.496H144.498L147.102 126.062H146.808L149.398 119.496H150.56L147.13 127.952C146.98 128.316 146.789 128.661 146.556 128.988C146.332 129.315 146.047 129.576 145.702 129.772C145.356 129.977 144.936 130.08 144.442 130.08ZM154.793 127.168C154.093 127.168 153.458 127 152.889 126.664C152.329 126.319 151.886 125.847 151.559 125.25C151.232 124.653 151.069 123.976 151.069 123.22C151.069 122.464 151.228 121.797 151.545 121.218C151.862 120.63 152.292 120.168 152.833 119.832C153.384 119.496 154 119.328 154.681 119.328C155.222 119.328 155.703 119.431 156.123 119.636C156.552 119.832 156.916 120.103 157.215 120.448C157.514 120.784 157.742 121.167 157.901 121.596C158.06 122.016 158.139 122.45 158.139 122.898C158.139 122.991 158.134 123.099 158.125 123.22C158.116 123.332 158.102 123.449 158.083 123.57H151.741V122.59H157.481L156.977 123.01C157.061 122.497 157 122.039 156.795 121.638C156.599 121.227 156.314 120.905 155.941 120.672C155.568 120.429 155.148 120.308 154.681 120.308C154.214 120.308 153.78 120.429 153.379 120.672C152.987 120.915 152.679 121.255 152.455 121.694C152.231 122.123 152.142 122.637 152.189 123.234C152.142 123.831 152.236 124.354 152.469 124.802C152.712 125.241 153.038 125.581 153.449 125.824C153.869 126.067 154.317 126.188 154.793 126.188C155.344 126.188 155.806 126.057 156.179 125.796C156.552 125.535 156.856 125.208 157.089 124.816L157.985 125.292C157.836 125.628 157.607 125.941 157.299 126.23C156.991 126.51 156.622 126.739 156.193 126.916C155.773 127.084 155.306 127.168 154.793 127.168ZM161.743 127.168C161.267 127.168 160.843 127.079 160.469 126.902C160.096 126.715 159.802 126.463 159.587 126.146C159.373 125.829 159.265 125.465 159.265 125.054C159.265 124.662 159.349 124.307 159.517 123.99C159.685 123.663 159.947 123.388 160.301 123.164C160.656 122.94 161.109 122.781 161.659 122.688L164.599 122.198V123.15L161.911 123.598C161.37 123.691 160.978 123.864 160.735 124.116C160.502 124.368 160.385 124.667 160.385 125.012C160.385 125.348 160.516 125.633 160.777 125.866C161.048 126.099 161.393 126.216 161.813 126.216C162.327 126.216 162.775 126.109 163.157 125.894C163.54 125.67 163.839 125.371 164.053 124.998C164.268 124.625 164.375 124.209 164.375 123.752V121.848C164.375 121.4 164.212 121.036 163.885 120.756C163.559 120.476 163.134 120.336 162.611 120.336C162.154 120.336 161.753 120.453 161.407 120.686C161.062 120.91 160.805 121.204 160.637 121.568L159.685 121.05C159.825 120.733 160.045 120.443 160.343 120.182C160.651 119.921 161.001 119.715 161.393 119.566C161.785 119.407 162.191 119.328 162.611 119.328C163.162 119.328 163.647 119.435 164.067 119.65C164.497 119.865 164.828 120.163 165.061 120.546C165.304 120.919 165.425 121.353 165.425 121.848V127H164.375V125.502L164.529 125.656C164.399 125.936 164.193 126.193 163.913 126.426C163.643 126.65 163.321 126.832 162.947 126.972C162.583 127.103 162.182 127.168 161.743 127.168ZM167.305 127V119.496H168.355V120.728L168.215 120.546C168.393 120.191 168.659 119.911 169.013 119.706C169.377 119.501 169.816 119.398 170.329 119.398H170.805V120.448H170.147C169.606 120.448 169.172 120.616 168.845 120.952C168.519 121.288 168.355 121.764 168.355 122.38V127H167.305Z" fill="#7C8FAC"/>
<mask id="mask0_23184_22710" style="mask-type:alpha" maskUnits="userSpaceOnUse" x="0" y="131" width="362" height="75">
<path d="M0 131H362V206H0V131Z" fill="#DCDCDC"/>
</mask>
<g mask="url(#mask0_23184_22710)">
<path d="M42.5493 158.791C37.7689 193.811 10.68 176.54 -1.00537 179.278V207.011H366.022V168.47C353.275 169.853 338.757 159.823 333.091 154.635C311.845 135.266 283.162 150.023 271.477 159.823C230.259 193.373 196.938 173.802 185.43 159.823C172.617 144.259 158.695 153.338 154.623 158.958C148.674 167.951 134.793 175.099 128.596 177.549C81.0049 195.534 62.025 173.202 58.4839 153.17C53.7035 138.903 43.0805 145.821 42.5493 158.791Z" fill="url(#paint0_linear_23184_22710)" stroke="#49BEFF" stroke-width="2"/>
</g>
</g>
<defs>
<linearGradient id="paint0_linear_23184_22710" x1="182.509" y1="145.16" x2="182.509" y2="207.011" gradientUnits="userSpaceOnUse">
<stop stop-color="#E3F8FD"/>
<stop offset="1" stop-color="#E3F8FD" stop-opacity="0"/>
</linearGradient>
<clipPath id="clip0_23184_22710">
<rect width="360" height="207" fill="white"/>
</clipPath>
</defs>
</svg>
