<svg width="384" height="217" viewBox="0 0 384 217" fill="none" xmlns="http://www.w3.org/2000/svg">
<g filter="url(#filter0_d_23184_22685)">
<rect x="12" y="6" width="360" height="193" rx="12" fill="white"/>
<path d="M46.788 54V47.952L42.198 40.59H44.592L48.264 46.548H47.418L51.072 40.59H53.466L48.894 47.952V54H46.788ZM57.7268 54.216C56.7548 54.216 55.8908 53.994 55.1348 53.55C54.3908 53.094 53.8088 52.482 53.3888 51.714C52.9688 50.934 52.7588 50.064 52.7588 49.104C52.7588 48.12 52.9688 47.25 53.3888 46.494C53.8208 45.738 54.3968 45.144 55.1168 44.712C55.8368 44.268 56.6528 44.046 57.5648 44.046C58.2968 44.046 58.9508 44.172 59.5268 44.424C60.1028 44.676 60.5888 45.024 60.9848 45.468C61.3808 45.9 61.6808 46.398 61.8848 46.962C62.1008 47.526 62.2088 48.126 62.2088 48.762C62.2088 48.918 62.2028 49.08 62.1908 49.248C62.1788 49.416 62.1548 49.572 62.1188 49.716H54.3608V48.096H60.9668L59.9948 48.834C60.1148 48.246 60.0728 47.724 59.8688 47.268C59.6768 46.8 59.3768 46.434 58.9688 46.17C58.5728 45.894 58.1048 45.756 57.5648 45.756C57.0248 45.756 56.5448 45.894 56.1248 46.17C55.7048 46.434 55.3808 46.818 55.1528 47.322C54.9248 47.814 54.8348 48.414 54.8828 49.122C54.8228 49.782 54.9128 50.358 55.1528 50.85C55.4048 51.342 55.7528 51.726 56.1968 52.002C56.6528 52.278 57.1688 52.416 57.7448 52.416C58.3328 52.416 58.8308 52.284 59.2388 52.02C59.6588 51.756 59.9888 51.414 60.2288 50.994L61.8848 51.804C61.6928 52.26 61.3928 52.674 60.9848 53.046C60.5888 53.406 60.1088 53.694 59.5448 53.91C58.9928 54.114 58.3868 54.216 57.7268 54.216ZM67.022 54.216C66.362 54.216 65.78 54.102 65.276 53.874C64.784 53.634 64.4 53.31 64.124 52.902C63.848 52.482 63.71 51.99 63.71 51.426C63.71 50.898 63.824 50.424 64.052 50.004C64.292 49.584 64.658 49.23 65.15 48.942C65.642 48.654 66.26 48.45 67.004 48.33L70.388 47.772V49.374L67.4 49.896C66.86 49.992 66.464 50.166 66.212 50.418C65.96 50.658 65.834 50.97 65.834 51.354C65.834 51.726 65.972 52.032 66.248 52.272C66.536 52.5 66.902 52.614 67.346 52.614C67.898 52.614 68.378 52.494 68.786 52.254C69.206 52.014 69.53 51.696 69.758 51.3C69.986 50.892 70.1 50.442 70.1 49.95V47.448C70.1 46.968 69.92 46.578 69.56 46.278C69.212 45.966 68.744 45.81 68.156 45.81C67.616 45.81 67.142 45.954 66.734 46.242C66.338 46.518 66.044 46.878 65.852 47.322L64.16 46.476C64.34 45.996 64.634 45.576 65.042 45.216C65.45 44.844 65.924 44.556 66.464 44.352C67.016 44.148 67.598 44.046 68.21 44.046C68.978 44.046 69.656 44.19 70.244 44.478C70.844 44.766 71.306 45.168 71.63 45.684C71.966 46.188 72.134 46.776 72.134 47.448V54H70.19V52.236L70.604 52.29C70.376 52.686 70.082 53.028 69.722 53.316C69.374 53.604 68.972 53.826 68.516 53.982C68.072 54.138 67.574 54.216 67.022 54.216ZM74.5122 54V44.262H76.4562V46.224L76.2762 45.936C76.4922 45.3 76.8402 44.844 77.3202 44.568C77.8002 44.28 78.3762 44.136 79.0482 44.136H79.6422V45.99H78.7962C78.1242 45.99 77.5782 46.2 77.1582 46.62C76.7502 47.028 76.5462 47.616 76.5462 48.384V54H74.5122ZM81.0337 54V40.374H83.0677V54H81.0337ZM86.3098 57.96C86.0698 57.96 85.8298 57.936 85.5898 57.888C85.3618 57.852 85.1518 57.792 84.9598 57.708V55.962C85.1038 55.998 85.2778 56.028 85.4818 56.052C85.6858 56.088 85.8838 56.106 86.0758 56.106C86.6398 56.106 87.0538 55.98 87.3178 55.728C87.5938 55.488 87.8398 55.116 88.0558 54.612L88.7038 53.136L88.6678 54.846L84.4558 44.262H86.6338L89.7478 52.38H89.0098L92.1058 44.262H94.3018L89.9998 55.062C89.7718 55.638 89.4838 56.142 89.1358 56.574C88.7998 57.018 88.3978 57.36 87.9298 57.6C87.4738 57.84 86.9338 57.96 86.3098 57.96ZM104.042 54.216C103.286 54.216 102.596 54.06 101.972 53.748C101.36 53.436 100.886 52.986 100.55 52.398L100.784 52.02V54H98.8403V40.374H100.874V46.278L100.55 45.81C100.91 45.258 101.39 44.826 101.99 44.514C102.59 44.202 103.274 44.046 104.042 44.046C104.966 44.046 105.794 44.268 106.526 44.712C107.27 45.156 107.852 45.762 108.272 46.53C108.704 47.298 108.92 48.162 108.92 49.122C108.92 50.082 108.704 50.946 108.272 51.714C107.852 52.482 107.276 53.094 106.544 53.55C105.812 53.994 104.978 54.216 104.042 54.216ZM103.844 52.326C104.42 52.326 104.93 52.188 105.374 51.912C105.818 51.636 106.166 51.258 106.418 50.778C106.682 50.286 106.814 49.734 106.814 49.122C106.814 48.51 106.682 47.964 106.418 47.484C106.166 47.004 105.818 46.626 105.374 46.35C104.93 46.074 104.42 45.936 103.844 45.936C103.28 45.936 102.77 46.074 102.314 46.35C101.87 46.626 101.516 47.004 101.252 47.484C101 47.964 100.874 48.51 100.874 49.122C100.874 49.734 101 50.286 101.252 50.778C101.516 51.258 101.87 51.636 102.314 51.912C102.77 52.188 103.28 52.326 103.844 52.326ZM110.899 54V44.262H112.843V46.224L112.663 45.936C112.879 45.3 113.227 44.844 113.707 44.568C114.187 44.28 114.763 44.136 115.435 44.136H116.029V45.99H115.183C114.511 45.99 113.965 46.2 113.545 46.62C113.137 47.028 112.933 47.616 112.933 48.384V54H110.899ZM121.992 54.216C121.02 54.216 120.156 53.994 119.4 53.55C118.656 53.094 118.074 52.482 117.654 51.714C117.234 50.934 117.024 50.064 117.024 49.104C117.024 48.12 117.234 47.25 117.654 46.494C118.086 45.738 118.662 45.144 119.382 44.712C120.102 44.268 120.918 44.046 121.83 44.046C122.562 44.046 123.216 44.172 123.792 44.424C124.368 44.676 124.854 45.024 125.25 45.468C125.646 45.9 125.946 46.398 126.15 46.962C126.366 47.526 126.474 48.126 126.474 48.762C126.474 48.918 126.468 49.08 126.456 49.248C126.444 49.416 126.42 49.572 126.384 49.716H118.626V48.096H125.232L124.26 48.834C124.38 48.246 124.338 47.724 124.134 47.268C123.942 46.8 123.642 46.434 123.234 46.17C122.838 45.894 122.37 45.756 121.83 45.756C121.29 45.756 120.81 45.894 120.39 46.17C119.97 46.434 119.646 46.818 119.418 47.322C119.19 47.814 119.1 48.414 119.148 49.122C119.088 49.782 119.178 50.358 119.418 50.85C119.67 51.342 120.018 51.726 120.462 52.002C120.918 52.278 121.434 52.416 122.01 52.416C122.598 52.416 123.096 52.284 123.504 52.02C123.924 51.756 124.254 51.414 124.494 50.994L126.15 51.804C125.958 52.26 125.658 52.674 125.25 53.046C124.854 53.406 124.374 53.694 123.81 53.91C123.258 54.114 122.652 54.216 121.992 54.216ZM131.288 54.216C130.628 54.216 130.046 54.102 129.542 53.874C129.05 53.634 128.666 53.31 128.39 52.902C128.114 52.482 127.976 51.99 127.976 51.426C127.976 50.898 128.09 50.424 128.318 50.004C128.558 49.584 128.924 49.23 129.416 48.942C129.908 48.654 130.526 48.45 131.27 48.33L134.654 47.772V49.374L131.666 49.896C131.126 49.992 130.73 50.166 130.478 50.418C130.226 50.658 130.1 50.97 130.1 51.354C130.1 51.726 130.238 52.032 130.514 52.272C130.802 52.5 131.168 52.614 131.612 52.614C132.164 52.614 132.644 52.494 133.052 52.254C133.472 52.014 133.796 51.696 134.024 51.3C134.252 50.892 134.366 50.442 134.366 49.95V47.448C134.366 46.968 134.186 46.578 133.826 46.278C133.478 45.966 133.01 45.81 132.422 45.81C131.882 45.81 131.408 45.954 131 46.242C130.604 46.518 130.31 46.878 130.118 47.322L128.426 46.476C128.606 45.996 128.9 45.576 129.308 45.216C129.716 44.844 130.19 44.556 130.73 44.352C131.282 44.148 131.864 44.046 132.476 44.046C133.244 44.046 133.922 44.19 134.51 44.478C135.11 44.766 135.572 45.168 135.896 45.684C136.232 46.188 136.4 46.776 136.4 47.448V54H134.456V52.236L134.87 52.29C134.642 52.686 134.348 53.028 133.988 53.316C133.64 53.604 133.238 53.826 132.782 53.982C132.338 54.138 131.84 54.216 131.288 54.216ZM138.778 54V40.374H140.812V49.5L140.02 49.302L144.898 44.262H147.436L143.764 48.168L147.598 54H145.258L141.838 48.834L143.044 48.672L140.164 51.732L140.812 50.382V54H138.778ZM152.465 54.216C151.733 54.216 151.091 54.054 150.539 53.73C149.987 53.394 149.555 52.932 149.243 52.344C148.943 51.744 148.793 51.054 148.793 50.274V44.262H150.827V50.094C150.827 50.538 150.917 50.928 151.097 51.264C151.277 51.6 151.529 51.864 151.853 52.056C152.177 52.236 152.549 52.326 152.969 52.326C153.401 52.326 153.779 52.23 154.103 52.038C154.427 51.846 154.679 51.576 154.859 51.228C155.051 50.88 155.147 50.472 155.147 50.004V44.262H157.163V54H155.237V52.092L155.453 52.344C155.225 52.944 154.847 53.406 154.319 53.73C153.791 54.054 153.173 54.216 152.465 54.216ZM159.538 57.6V44.262H161.482V46.278L161.248 45.81C161.608 45.258 162.088 44.826 162.688 44.514C163.288 44.202 163.972 44.046 164.74 44.046C165.664 44.046 166.492 44.268 167.224 44.712C167.968 45.156 168.55 45.762 168.97 46.53C169.402 47.298 169.618 48.162 169.618 49.122C169.618 50.082 169.402 50.946 168.97 51.714C168.55 52.482 167.974 53.094 167.242 53.55C166.51 53.994 165.676 54.216 164.74 54.216C163.984 54.216 163.294 54.06 162.67 53.748C162.058 53.436 161.584 52.986 161.248 52.398L161.572 52.02V57.6H159.538ZM164.542 52.326C165.118 52.326 165.628 52.188 166.072 51.912C166.516 51.636 166.864 51.258 167.116 50.778C167.38 50.286 167.512 49.734 167.512 49.122C167.512 48.51 167.38 47.964 167.116 47.484C166.864 47.004 166.516 46.626 166.072 46.35C165.628 46.074 165.118 45.936 164.542 45.936C163.978 45.936 163.468 46.074 163.012 46.35C162.568 46.626 162.214 47.004 161.95 47.484C161.698 47.964 161.572 48.51 161.572 49.122C161.572 49.734 161.698 50.286 161.95 50.778C162.214 51.258 162.568 51.636 163.012 51.912C163.468 52.188 163.978 52.326 164.542 52.326Z" fill="#2A3547"/>
<path d="M50.112 94.288C48.992 94.288 47.952 94.08 46.992 93.664C46.032 93.232 45.216 92.648 44.544 91.912C43.872 91.176 43.376 90.328 43.056 89.368L45.456 88.36C45.888 89.464 46.52 90.312 47.352 90.904C48.184 91.496 49.144 91.792 50.232 91.792C50.872 91.792 51.432 91.696 51.912 91.504C52.392 91.296 52.76 91.008 53.016 90.64C53.288 90.272 53.424 89.848 53.424 89.368C53.424 88.712 53.24 88.192 52.872 87.808C52.504 87.424 51.96 87.12 51.24 86.896L47.88 85.84C46.536 85.424 45.512 84.792 44.808 83.944C44.104 83.08 43.752 82.072 43.752 80.92C43.752 79.912 44 79.032 44.496 78.28C44.992 77.512 45.672 76.912 46.536 76.48C47.416 76.048 48.416 75.832 49.536 75.832C50.608 75.832 51.584 76.024 52.464 76.408C53.344 76.776 54.096 77.288 54.72 77.944C55.36 78.6 55.824 79.36 56.112 80.224L53.76 81.256C53.408 80.312 52.856 79.584 52.104 79.072C51.368 78.56 50.512 78.304 49.536 78.304C48.944 78.304 48.424 78.408 47.976 78.616C47.528 78.808 47.176 79.096 46.92 79.48C46.68 79.848 46.56 80.28 46.56 80.776C46.56 81.352 46.744 81.864 47.112 82.312C47.48 82.76 48.04 83.096 48.792 83.32L51.912 84.304C53.336 84.736 54.408 85.36 55.128 86.176C55.848 86.976 56.208 87.976 56.208 89.176C56.208 90.168 55.944 91.048 55.416 91.816C54.904 92.584 54.192 93.192 53.28 93.64C52.368 94.072 51.312 94.288 50.112 94.288ZM49.008 96.4V73.72H50.928V96.4H49.008ZM64.5711 94.288C63.6111 94.288 62.7071 94.112 61.8591 93.76C61.0271 93.408 60.3071 92.912 59.6991 92.272C59.1071 91.632 58.6831 90.88 58.4271 90.016L60.8271 89.104C61.1471 89.952 61.6351 90.608 62.2911 91.072C62.9471 91.536 63.7071 91.768 64.5711 91.768C65.2751 91.768 65.8831 91.632 66.3951 91.36C66.9231 91.088 67.3311 90.704 67.6191 90.208C67.9231 89.712 68.0751 89.112 68.0751 88.408C68.0751 87.72 67.9231 87.128 67.6191 86.632C67.3311 86.136 66.9231 85.76 66.3951 85.504C65.8831 85.248 65.2751 85.12 64.5711 85.12C64.2831 85.12 63.9871 85.144 63.6831 85.192C63.3951 85.24 63.1391 85.304 62.9151 85.384L62.2911 84.064L66.9951 78.52H59.3871V76.12H70.1631V78.4L65.5551 83.92L65.4831 83.008C66.5551 83.024 67.4991 83.264 68.3151 83.728C69.1311 84.176 69.7631 84.8 70.2111 85.6C70.6751 86.384 70.9071 87.296 70.9071 88.336C70.9071 89.456 70.6351 90.472 70.0911 91.384C69.5471 92.28 68.7951 92.992 67.8351 93.52C66.8911 94.032 65.8031 94.288 64.5711 94.288ZM79.4349 94.288C78.2669 94.288 77.2269 94.032 76.3149 93.52C75.4029 93.008 74.6829 92.304 74.1549 91.408C73.6429 90.512 73.3869 89.496 73.3869 88.36C73.3869 87.768 73.4509 87.176 73.5789 86.584C73.7069 85.992 73.9309 85.376 74.2509 84.736C74.5869 84.096 75.0349 83.408 75.5949 82.672L80.5869 76.12H83.9709L77.8509 84.04L77.3709 83.728C77.5949 83.472 77.8349 83.272 78.0909 83.128C78.3629 82.984 78.6429 82.88 78.9309 82.816C79.2349 82.752 79.5549 82.72 79.8909 82.72C80.9629 82.72 81.9229 82.968 82.7709 83.464C83.6189 83.96 84.2829 84.632 84.7629 85.48C85.2589 86.328 85.5069 87.304 85.5069 88.408C85.5069 89.528 85.2429 90.536 84.7149 91.432C84.1869 92.312 83.4669 93.008 82.5549 93.52C81.6589 94.032 80.6189 94.288 79.4349 94.288ZM79.4349 91.768C80.0589 91.768 80.6109 91.624 81.0909 91.336C81.5709 91.048 81.9549 90.656 82.2429 90.16C82.5309 89.648 82.6749 89.072 82.6749 88.432C82.6749 87.776 82.5309 87.2 82.2429 86.704C81.9709 86.208 81.5869 85.824 81.0909 85.552C80.6109 85.264 80.0589 85.12 79.4349 85.12C78.8269 85.12 78.2749 85.264 77.7789 85.552C77.2989 85.824 76.9149 86.208 76.6269 86.704C76.3389 87.2 76.1949 87.776 76.1949 88.432C76.1949 89.072 76.3389 89.648 76.6269 90.16C76.9149 90.656 77.2989 91.048 77.7789 91.336C78.2749 91.624 78.8269 91.768 79.4349 91.768ZM88.905 97.528V96.208C89.433 96.08 89.841 95.832 90.129 95.464C90.417 95.112 90.593 94.624 90.657 94H89.385V90.88H92.145V92.92C92.145 94.2 91.873 95.232 91.329 96.016C90.785 96.8 89.977 97.304 88.905 97.528ZM101.532 94.288C100.572 94.288 99.668 94.112 98.82 93.76C97.988 93.408 97.268 92.912 96.66 92.272C96.068 91.632 95.644 90.88 95.388 90.016L97.788 89.104C98.108 89.952 98.596 90.608 99.252 91.072C99.908 91.536 100.668 91.768 101.532 91.768C102.236 91.768 102.844 91.632 103.356 91.36C103.884 91.088 104.292 90.704 104.58 90.208C104.884 89.712 105.036 89.112 105.036 88.408C105.036 87.72 104.884 87.128 104.58 86.632C104.292 86.136 103.884 85.76 103.356 85.504C102.844 85.248 102.236 85.12 101.532 85.12C101.244 85.12 100.948 85.144 100.644 85.192C100.356 85.24 100.1 85.304 99.876 85.384L99.252 84.064L103.956 78.52H96.348V76.12H107.124V78.4L102.516 83.92L102.444 83.008C103.516 83.024 104.46 83.264 105.276 83.728C106.092 84.176 106.724 84.8 107.172 85.6C107.636 86.384 107.868 87.296 107.868 88.336C107.868 89.456 107.596 90.472 107.052 91.384C106.508 92.28 105.756 92.992 104.796 93.52C103.852 94.032 102.764 94.288 101.532 94.288ZM116.348 94.288C115.404 94.288 114.516 94.12 113.684 93.784C112.852 93.432 112.132 92.944 111.524 92.32C110.916 91.696 110.484 90.944 110.228 90.064L112.604 89.152C112.908 90 113.404 90.648 114.092 91.096C114.78 91.544 115.532 91.768 116.348 91.768C117.02 91.768 117.612 91.616 118.124 91.312C118.636 91.008 119.036 90.592 119.324 90.064C119.628 89.536 119.78 88.936 119.78 88.264C119.78 87.576 119.628 86.976 119.324 86.464C119.036 85.936 118.636 85.528 118.124 85.24C117.612 84.936 117.02 84.784 116.348 84.784C115.676 84.784 115.06 84.936 114.5 85.24C113.94 85.544 113.532 85.952 113.276 86.464L110.996 85.96L112.388 76.12H121.916V78.52H113.492L114.572 77.344L113.54 84.88L112.652 84.28C113.132 83.608 113.716 83.12 114.404 82.816C115.092 82.512 115.876 82.36 116.756 82.36C117.924 82.36 118.94 82.624 119.804 83.152C120.684 83.664 121.364 84.368 121.844 85.264C122.34 86.144 122.588 87.144 122.588 88.264C122.588 89.4 122.316 90.424 121.772 91.336C121.228 92.248 120.484 92.968 119.54 93.496C118.612 94.024 117.548 94.288 116.348 94.288ZM131.498 94.288C130.25 94.288 129.154 94.048 128.21 93.568C127.282 93.072 126.562 92.416 126.05 91.6C125.538 90.768 125.282 89.848 125.282 88.84C125.282 87.688 125.594 86.696 126.218 85.864C126.858 85.016 127.754 84.4 128.906 84.016L128.786 84.736C127.938 84.416 127.266 83.88 126.77 83.128C126.29 82.36 126.05 81.52 126.05 80.608C126.05 79.696 126.282 78.88 126.746 78.16C127.226 77.44 127.874 76.872 128.69 76.456C129.522 76.04 130.458 75.832 131.498 75.832C132.554 75.832 133.49 76.04 134.306 76.456C135.122 76.856 135.762 77.416 136.226 78.136C136.706 78.856 136.946 79.68 136.946 80.608C136.946 81.552 136.698 82.4 136.202 83.152C135.722 83.888 135.066 84.416 134.234 84.736L134.114 84.016C135.266 84.416 136.162 85.032 136.802 85.864C137.442 86.696 137.762 87.688 137.762 88.84C137.762 89.848 137.498 90.768 136.97 91.6C136.458 92.416 135.73 93.072 134.786 93.568C133.842 94.048 132.746 94.288 131.498 94.288ZM131.498 91.888C132.186 91.888 132.786 91.76 133.298 91.504C133.81 91.232 134.21 90.864 134.498 90.4C134.786 89.936 134.93 89.392 134.93 88.768C134.93 88.144 134.786 87.6 134.498 87.136C134.21 86.672 133.81 86.312 133.298 86.056C132.786 85.8 132.186 85.672 131.498 85.672C130.826 85.672 130.234 85.8 129.722 86.056C129.21 86.312 128.81 86.672 128.522 87.136C128.234 87.6 128.09 88.144 128.09 88.768C128.09 89.392 128.234 89.936 128.522 90.4C128.81 90.864 129.21 91.232 129.722 91.504C130.234 91.76 130.826 91.888 131.498 91.888ZM131.498 83.272C132.01 83.272 132.458 83.168 132.842 82.96C133.242 82.736 133.554 82.432 133.778 82.048C134.002 81.664 134.114 81.232 134.114 80.752C134.114 80.256 134.002 79.824 133.778 79.456C133.554 79.072 133.242 78.776 132.842 78.568C132.458 78.344 132.01 78.232 131.498 78.232C131.002 78.232 130.554 78.344 130.154 78.568C129.754 78.776 129.442 79.072 129.218 79.456C128.994 79.824 128.882 80.256 128.882 80.752C128.882 81.232 128.994 81.664 129.218 82.048C129.442 82.432 129.754 82.736 130.154 82.96C130.554 83.168 131.002 83.272 131.498 83.272Z" fill="#1E3146"/>
<rect x="42" y="107" width="20" height="20" rx="10" fill="#E6FFFA"/>
<path d="M55.1331 120.767L55.8331 120.067L49.2664 113.5H55.2331V112.5H47.5664V120.167H48.5664V114.2L55.1331 120.767Z" fill="#13DEB9"/>
<path d="M69.724 123V120.018H66.742V118.968H69.724V116H70.774V118.968H73.742V120.018H70.774V123H69.724ZM76.2402 123L79.8662 118.254L80.0762 118.128C79.9362 118.352 79.7729 118.529 79.5862 118.66C79.3996 118.791 79.1942 118.884 78.9702 118.94C78.7462 118.996 78.4989 119.024 78.2282 119.024C77.6216 119.024 77.0756 118.884 76.5902 118.604C76.1049 118.315 75.7176 117.923 75.4282 117.428C75.1482 116.924 75.0082 116.35 75.0082 115.706C75.0082 115.071 75.1529 114.507 75.4422 114.012C75.7409 113.517 76.1422 113.125 76.6462 112.836C77.1596 112.547 77.7336 112.402 78.3682 112.402C79.0216 112.402 79.6002 112.551 80.1042 112.85C80.6082 113.139 81.0049 113.545 81.2942 114.068C81.5836 114.581 81.7282 115.174 81.7282 115.846C81.7282 116.219 81.6816 116.588 81.5882 116.952C81.5042 117.316 81.3736 117.675 81.1962 118.03C81.0189 118.385 80.7949 118.739 80.5242 119.094L77.5842 123H76.2402ZM78.3682 118.016C78.8069 118.016 79.1942 117.918 79.5302 117.722C79.8662 117.517 80.1276 117.241 80.3142 116.896C80.5102 116.541 80.6082 116.145 80.6082 115.706C80.6082 115.258 80.5102 114.861 80.3142 114.516C80.1182 114.161 79.8522 113.886 79.5162 113.69C79.1802 113.485 78.7976 113.382 78.3682 113.382C77.9389 113.382 77.5562 113.485 77.2202 113.69C76.8842 113.886 76.6182 114.161 76.4222 114.516C76.2262 114.861 76.1282 115.258 76.1282 115.706C76.1282 116.145 76.2216 116.541 76.4082 116.896C76.6042 117.241 76.8702 117.517 77.2062 117.722C77.5516 117.918 77.9389 118.016 78.3682 118.016ZM84.2158 123L92.7558 112.57H94.1138L85.5738 123H84.2158ZM85.7418 117.862C85.2378 117.862 84.7804 117.741 84.3698 117.498C83.9591 117.246 83.6278 116.915 83.3758 116.504C83.1331 116.093 83.0118 115.636 83.0118 115.132C83.0118 114.628 83.1331 114.171 83.3758 113.76C83.6278 113.34 83.9591 113.009 84.3698 112.766C84.7804 112.523 85.2378 112.402 85.7418 112.402C86.2458 112.402 86.7031 112.523 87.1138 112.766C87.5244 113.009 87.8511 113.34 88.0938 113.76C88.3364 114.171 88.4578 114.628 88.4578 115.132C88.4578 115.636 88.3364 116.093 88.0938 116.504C87.8511 116.915 87.5244 117.246 87.1138 117.498C86.7031 117.741 86.2458 117.862 85.7418 117.862ZM85.7418 116.854C86.0684 116.854 86.3531 116.775 86.5958 116.616C86.8478 116.448 87.0438 116.233 87.1838 115.972C87.3331 115.701 87.4078 115.421 87.4078 115.132C87.4078 114.833 87.3331 114.553 87.1838 114.292C87.0438 114.031 86.8478 113.821 86.5958 113.662C86.3531 113.494 86.0684 113.41 85.7418 113.41C85.4244 113.41 85.1351 113.494 84.8738 113.662C84.6218 113.821 84.4211 114.031 84.2718 114.292C84.1318 114.553 84.0618 114.833 84.0618 115.132C84.0618 115.421 84.1318 115.701 84.2718 115.972C84.4211 116.233 84.6218 116.448 84.8738 116.616C85.1351 116.775 85.4244 116.854 85.7418 116.854ZM92.4618 123.168C91.9578 123.168 91.5004 123.047 91.0898 122.804C90.6791 122.552 90.3478 122.221 90.0958 121.81C89.8531 121.399 89.7318 120.942 89.7318 120.438C89.7318 119.934 89.8531 119.477 90.0958 119.066C90.3478 118.646 90.6791 118.315 91.0898 118.072C91.5004 117.829 91.9578 117.708 92.4618 117.708C92.9658 117.708 93.4231 117.829 93.8338 118.072C94.2444 118.315 94.5711 118.646 94.8138 119.066C95.0564 119.477 95.1778 119.934 95.1778 120.438C95.1778 120.942 95.0564 121.399 94.8138 121.81C94.5711 122.221 94.2444 122.552 93.8338 122.804C93.4231 123.047 92.9658 123.168 92.4618 123.168ZM92.4618 122.16C92.7884 122.16 93.0731 122.081 93.3158 121.922C93.5678 121.754 93.7638 121.539 93.9038 121.278C94.0531 121.007 94.1278 120.727 94.1278 120.438C94.1278 120.139 94.0531 119.859 93.9038 119.598C93.7638 119.337 93.5678 119.127 93.3158 118.968C93.0731 118.8 92.7884 118.716 92.4618 118.716C92.1444 118.716 91.8551 118.8 91.5938 118.968C91.3418 119.127 91.1411 119.337 90.9918 119.598C90.8518 119.859 90.7818 120.139 90.7818 120.438C90.7818 120.727 90.8518 121.007 90.9918 121.278C91.1411 121.539 91.3418 121.754 91.5938 121.922C91.8551 122.081 92.1444 122.16 92.4618 122.16Z" fill="#1E3146"/>
<path d="M103.948 123.084C103.276 123.084 102.758 122.888 102.394 122.496C102.03 122.104 101.848 121.544 101.848 120.816V116.546H100.462V115.496H100.812C101.129 115.496 101.381 115.393 101.568 115.188C101.755 114.973 101.848 114.707 101.848 114.39V113.76H102.898V115.496H104.55V116.546H102.898V120.816C102.898 121.068 102.935 121.292 103.01 121.488C103.085 121.675 103.211 121.824 103.388 121.936C103.575 122.048 103.822 122.104 104.13 122.104C104.205 122.104 104.293 122.099 104.396 122.09C104.499 122.081 104.587 122.071 104.662 122.062V123C104.55 123.028 104.424 123.047 104.284 123.056C104.144 123.075 104.032 123.084 103.948 123.084ZM106.226 123V112.402H107.276V116.952L107.038 116.896C107.224 116.411 107.528 116.028 107.948 115.748C108.377 115.468 108.872 115.328 109.432 115.328C109.964 115.328 110.44 115.449 110.86 115.692C111.289 115.935 111.625 116.271 111.868 116.7C112.12 117.12 112.246 117.596 112.246 118.128V123H111.196V118.534C111.196 118.077 111.112 117.689 110.944 117.372C110.776 117.055 110.542 116.812 110.244 116.644C109.954 116.467 109.623 116.378 109.25 116.378C108.876 116.378 108.54 116.467 108.242 116.644C107.943 116.812 107.705 117.059 107.528 117.386C107.36 117.703 107.276 118.086 107.276 118.534V123H106.226ZM116.141 123.168C115.665 123.168 115.24 123.079 114.867 122.902C114.494 122.715 114.2 122.463 113.985 122.146C113.77 121.829 113.663 121.465 113.663 121.054C113.663 120.662 113.747 120.307 113.915 119.99C114.083 119.663 114.344 119.388 114.699 119.164C115.054 118.94 115.506 118.781 116.057 118.688L118.997 118.198V119.15L116.309 119.598C115.768 119.691 115.376 119.864 115.133 120.116C114.9 120.368 114.783 120.667 114.783 121.012C114.783 121.348 114.914 121.633 115.175 121.866C115.446 122.099 115.791 122.216 116.211 122.216C116.724 122.216 117.172 122.109 117.555 121.894C117.938 121.67 118.236 121.371 118.451 120.998C118.666 120.625 118.773 120.209 118.773 119.752V117.848C118.773 117.4 118.61 117.036 118.283 116.756C117.956 116.476 117.532 116.336 117.009 116.336C116.552 116.336 116.15 116.453 115.805 116.686C115.46 116.91 115.203 117.204 115.035 117.568L114.083 117.05C114.223 116.733 114.442 116.443 114.741 116.182C115.049 115.921 115.399 115.715 115.791 115.566C116.183 115.407 116.589 115.328 117.009 115.328C117.56 115.328 118.045 115.435 118.465 115.65C118.894 115.865 119.226 116.163 119.459 116.546C119.702 116.919 119.823 117.353 119.823 117.848V123H118.773V121.502L118.927 121.656C118.796 121.936 118.591 122.193 118.311 122.426C118.04 122.65 117.718 122.832 117.345 122.972C116.981 123.103 116.58 123.168 116.141 123.168ZM121.703 123V115.496H122.753V116.952L122.515 116.896C122.702 116.411 123.005 116.028 123.425 115.748C123.854 115.468 124.349 115.328 124.909 115.328C125.441 115.328 125.917 115.449 126.337 115.692C126.766 115.935 127.102 116.271 127.345 116.7C127.597 117.12 127.723 117.596 127.723 118.128V123H126.673V118.534C126.673 118.077 126.589 117.689 126.421 117.372C126.262 117.055 126.034 116.812 125.735 116.644C125.446 116.467 125.11 116.378 124.727 116.378C124.344 116.378 124.004 116.467 123.705 116.644C123.406 116.812 123.173 117.059 123.005 117.386C122.837 117.703 122.753 118.086 122.753 118.534V123H121.703ZM131.547 123V112.402H132.597V123H131.547ZM136.636 123.168C136.16 123.168 135.736 123.079 135.362 122.902C134.989 122.715 134.695 122.463 134.48 122.146C134.266 121.829 134.158 121.465 134.158 121.054C134.158 120.662 134.242 120.307 134.41 119.99C134.578 119.663 134.84 119.388 135.194 119.164C135.549 118.94 136.002 118.781 136.552 118.688L139.492 118.198V119.15L136.804 119.598C136.263 119.691 135.871 119.864 135.628 120.116C135.395 120.368 135.278 120.667 135.278 121.012C135.278 121.348 135.409 121.633 135.67 121.866C135.941 122.099 136.286 122.216 136.706 122.216C137.22 122.216 137.668 122.109 138.05 121.894C138.433 121.67 138.732 121.371 138.946 120.998C139.161 120.625 139.268 120.209 139.268 119.752V117.848C139.268 117.4 139.105 117.036 138.778 116.756C138.452 116.476 138.027 116.336 137.504 116.336C137.047 116.336 136.646 116.453 136.3 116.686C135.955 116.91 135.698 117.204 135.53 117.568L134.578 117.05C134.718 116.733 134.938 116.443 135.236 116.182C135.544 115.921 135.894 115.715 136.286 115.566C136.678 115.407 137.084 115.328 137.504 115.328C138.055 115.328 138.54 115.435 138.96 115.65C139.39 115.865 139.721 116.163 139.954 116.546C140.197 116.919 140.318 117.353 140.318 117.848V123H139.268V121.502L139.422 121.656C139.292 121.936 139.086 122.193 138.806 122.426C138.536 122.65 138.214 122.832 137.84 122.972C137.476 123.103 137.075 123.168 136.636 123.168ZM144.802 123.168C144.083 123.168 143.453 122.986 142.912 122.622C142.371 122.258 141.979 121.763 141.736 121.138L142.618 120.718C142.833 121.175 143.131 121.539 143.514 121.81C143.906 122.081 144.335 122.216 144.802 122.216C145.25 122.216 145.628 122.109 145.936 121.894C146.244 121.67 146.398 121.381 146.398 121.026C146.398 120.765 146.323 120.559 146.174 120.41C146.025 120.251 145.852 120.13 145.656 120.046C145.46 119.962 145.287 119.901 145.138 119.864L144.06 119.556C143.369 119.36 142.87 119.085 142.562 118.73C142.254 118.375 142.1 117.965 142.1 117.498C142.1 117.059 142.212 116.677 142.436 116.35C142.66 116.023 142.963 115.771 143.346 115.594C143.729 115.417 144.153 115.328 144.62 115.328C145.255 115.328 145.829 115.496 146.342 115.832C146.865 116.159 147.233 116.616 147.448 117.204L146.552 117.624C146.365 117.204 146.095 116.877 145.74 116.644C145.395 116.401 145.007 116.28 144.578 116.28C144.158 116.28 143.822 116.387 143.57 116.602C143.318 116.817 143.192 117.087 143.192 117.414C143.192 117.666 143.257 117.867 143.388 118.016C143.519 118.165 143.668 118.277 143.836 118.352C144.013 118.427 144.167 118.483 144.298 118.52L145.544 118.884C146.151 119.061 146.622 119.337 146.958 119.71C147.303 120.083 147.476 120.522 147.476 121.026C147.476 121.437 147.359 121.805 147.126 122.132C146.902 122.459 146.589 122.715 146.188 122.902C145.787 123.079 145.325 123.168 144.802 123.168ZM151.911 123.084C151.239 123.084 150.721 122.888 150.357 122.496C149.993 122.104 149.811 121.544 149.811 120.816V116.546H148.425V115.496H148.775C149.092 115.496 149.344 115.393 149.531 115.188C149.718 114.973 149.811 114.707 149.811 114.39V113.76H150.861V115.496H152.513V116.546H150.861V120.816C150.861 121.068 150.898 121.292 150.973 121.488C151.048 121.675 151.174 121.824 151.351 121.936C151.538 122.048 151.785 122.104 152.093 122.104C152.168 122.104 152.256 122.099 152.359 122.09C152.462 122.081 152.55 122.071 152.625 122.062V123C152.513 123.028 152.387 123.047 152.247 123.056C152.107 123.075 151.995 123.084 151.911 123.084ZM156.442 126.08C156.292 126.08 156.138 126.066 155.98 126.038C155.83 126.019 155.681 125.982 155.532 125.926V124.946C155.625 124.955 155.742 124.969 155.882 124.988C156.031 125.016 156.18 125.03 156.33 125.03C156.787 125.03 157.137 124.932 157.38 124.736C157.622 124.549 157.86 124.185 158.094 123.644L158.57 122.524L158.542 123.448L155.364 115.496H156.498L159.102 122.062H158.808L161.398 115.496H162.56L159.13 123.952C158.98 124.316 158.789 124.661 158.556 124.988C158.332 125.315 158.047 125.576 157.702 125.772C157.356 125.977 156.936 126.08 156.442 126.08ZM166.793 123.168C166.093 123.168 165.458 123 164.889 122.664C164.329 122.319 163.886 121.847 163.559 121.25C163.232 120.653 163.069 119.976 163.069 119.22C163.069 118.464 163.228 117.797 163.545 117.218C163.862 116.63 164.292 116.168 164.833 115.832C165.384 115.496 166 115.328 166.681 115.328C167.222 115.328 167.703 115.431 168.123 115.636C168.552 115.832 168.916 116.103 169.215 116.448C169.514 116.784 169.742 117.167 169.901 117.596C170.06 118.016 170.139 118.45 170.139 118.898C170.139 118.991 170.134 119.099 170.125 119.22C170.116 119.332 170.102 119.449 170.083 119.57H163.741V118.59H169.481L168.977 119.01C169.061 118.497 169 118.039 168.795 117.638C168.599 117.227 168.314 116.905 167.941 116.672C167.568 116.429 167.148 116.308 166.681 116.308C166.214 116.308 165.78 116.429 165.379 116.672C164.987 116.915 164.679 117.255 164.455 117.694C164.231 118.123 164.142 118.637 164.189 119.234C164.142 119.831 164.236 120.354 164.469 120.802C164.712 121.241 165.038 121.581 165.449 121.824C165.869 122.067 166.317 122.188 166.793 122.188C167.344 122.188 167.806 122.057 168.179 121.796C168.552 121.535 168.856 121.208 169.089 120.816L169.985 121.292C169.836 121.628 169.607 121.941 169.299 122.23C168.991 122.51 168.622 122.739 168.193 122.916C167.773 123.084 167.306 123.168 166.793 123.168ZM173.743 123.168C173.267 123.168 172.843 123.079 172.469 122.902C172.096 122.715 171.802 122.463 171.587 122.146C171.373 121.829 171.265 121.465 171.265 121.054C171.265 120.662 171.349 120.307 171.517 119.99C171.685 119.663 171.947 119.388 172.301 119.164C172.656 118.94 173.109 118.781 173.659 118.688L176.599 118.198V119.15L173.911 119.598C173.37 119.691 172.978 119.864 172.735 120.116C172.502 120.368 172.385 120.667 172.385 121.012C172.385 121.348 172.516 121.633 172.777 121.866C173.048 122.099 173.393 122.216 173.813 122.216C174.327 122.216 174.775 122.109 175.157 121.894C175.54 121.67 175.839 121.371 176.053 120.998C176.268 120.625 176.375 120.209 176.375 119.752V117.848C176.375 117.4 176.212 117.036 175.885 116.756C175.559 116.476 175.134 116.336 174.611 116.336C174.154 116.336 173.753 116.453 173.407 116.686C173.062 116.91 172.805 117.204 172.637 117.568L171.685 117.05C171.825 116.733 172.045 116.443 172.343 116.182C172.651 115.921 173.001 115.715 173.393 115.566C173.785 115.407 174.191 115.328 174.611 115.328C175.162 115.328 175.647 115.435 176.067 115.65C176.497 115.865 176.828 116.163 177.061 116.546C177.304 116.919 177.425 117.353 177.425 117.848V123H176.375V121.502L176.529 121.656C176.399 121.936 176.193 122.193 175.913 122.426C175.643 122.65 175.321 122.832 174.947 122.972C174.583 123.103 174.182 123.168 173.743 123.168ZM179.305 123V115.496H180.355V116.728L180.215 116.546C180.393 116.191 180.659 115.911 181.013 115.706C181.377 115.501 181.816 115.398 182.329 115.398H182.805V116.448H182.147C181.606 116.448 181.172 116.616 180.845 116.952C180.519 117.288 180.355 117.764 180.355 118.38V123H179.305Z" fill="#7C8FAC"/>
<circle cx="47" cy="160.5" r="5" fill="#5D87FF"/>
<path d="M60.696 165V164.4L63.192 161.652C63.68 161.116 64.076 160.672 64.38 160.32C64.692 159.968 64.924 159.648 65.076 159.36C65.228 159.072 65.304 158.76 65.304 158.424C65.304 157.888 65.148 157.476 64.836 157.188C64.524 156.9 64.108 156.756 63.588 156.756C63.052 156.756 62.6 156.908 62.232 157.212C61.872 157.516 61.628 157.94 61.5 158.484L60.624 158.292C60.728 157.804 60.916 157.384 61.188 157.032C61.46 156.68 61.8 156.408 62.208 156.216C62.616 156.016 63.072 155.916 63.576 155.916C64.112 155.916 64.58 156.024 64.98 156.24C65.38 156.456 65.692 156.752 65.916 157.128C66.148 157.504 66.264 157.936 66.264 158.424C66.264 158.76 66.192 159.084 66.048 159.396C65.912 159.708 65.704 160.044 65.424 160.404C65.144 160.764 64.784 161.184 64.344 161.664L62.076 164.16H66.504V165H60.696ZM71.5993 165.144C70.8953 165.144 70.2753 164.952 69.7393 164.568C69.2113 164.176 68.7993 163.636 68.5033 162.948C68.2073 162.252 68.0593 161.444 68.0593 160.524C68.0593 159.604 68.2073 158.8 68.5033 158.112C68.7993 157.416 69.2113 156.876 69.7393 156.492C70.2673 156.108 70.8833 155.916 71.5873 155.916C72.2913 155.916 72.9073 156.108 73.4353 156.492C73.9633 156.876 74.3753 157.416 74.6713 158.112C74.9673 158.8 75.1153 159.604 75.1153 160.524C75.1153 161.444 74.9673 162.252 74.6713 162.948C74.3833 163.644 73.9753 164.184 73.4473 164.568C72.9193 164.952 72.3033 165.144 71.5993 165.144ZM71.5993 164.244C72.1113 164.244 72.5593 164.088 72.9433 163.776C73.3273 163.464 73.6273 163.032 73.8433 162.48C74.0593 161.92 74.1673 161.268 74.1673 160.524C74.1673 159.78 74.0593 159.132 73.8433 158.58C73.6273 158.02 73.3273 157.588 72.9433 157.284C72.5593 156.972 72.1073 156.816 71.5873 156.816C71.0753 156.816 70.6273 156.972 70.2433 157.284C69.8593 157.588 69.5593 158.02 69.3433 158.58C69.1273 159.132 69.0193 159.78 69.0193 160.524C69.0193 161.26 69.1273 161.908 69.3433 162.468C69.5593 163.028 69.8593 163.464 70.2433 163.776C70.6353 164.088 71.0873 164.244 71.5993 164.244ZM76.6804 165V164.4L79.1764 161.652C79.6644 161.116 80.0604 160.672 80.3644 160.32C80.6764 159.968 80.9084 159.648 81.0604 159.36C81.2124 159.072 81.2884 158.76 81.2884 158.424C81.2884 157.888 81.1324 157.476 80.8204 157.188C80.5084 156.9 80.0924 156.756 79.5724 156.756C79.0364 156.756 78.5844 156.908 78.2164 157.212C77.8564 157.516 77.6124 157.94 77.4844 158.484L76.6084 158.292C76.7124 157.804 76.9004 157.384 77.1724 157.032C77.4444 156.68 77.7844 156.408 78.1924 156.216C78.6004 156.016 79.0564 155.916 79.5604 155.916C80.0964 155.916 80.5644 156.024 80.9644 156.24C81.3644 156.456 81.6764 156.752 81.9004 157.128C82.1324 157.504 82.2484 157.936 82.2484 158.424C82.2484 158.76 82.1764 159.084 82.0324 159.396C81.8964 159.708 81.6884 160.044 81.4084 160.404C81.1284 160.764 80.7684 161.184 80.3284 161.664L78.0604 164.16H82.4884V165H76.6804ZM88.1625 165V162.888H83.6145V162.108L88.1625 156.06H89.0025V162.108H90.0945V162.888H89.0025V165H88.1625ZM84.3465 162.456L84.2385 162.108H88.1625V156.888L88.4625 156.972L84.3465 162.456Z" fill="#7C8FAC"/>
<circle cx="140.5" cy="160.5" r="5" fill="#ECF2FF"/>
<path d="M154.196 165V164.4L156.692 161.652C157.18 161.116 157.576 160.672 157.88 160.32C158.192 159.968 158.424 159.648 158.576 159.36C158.728 159.072 158.804 158.76 158.804 158.424C158.804 157.888 158.648 157.476 158.336 157.188C158.024 156.9 157.608 156.756 157.088 156.756C156.552 156.756 156.1 156.908 155.732 157.212C155.372 157.516 155.128 157.94 155 158.484L154.124 158.292C154.228 157.804 154.416 157.384 154.688 157.032C154.96 156.68 155.3 156.408 155.708 156.216C156.116 156.016 156.572 155.916 157.076 155.916C157.612 155.916 158.08 156.024 158.48 156.24C158.88 156.456 159.192 156.752 159.416 157.128C159.648 157.504 159.764 157.936 159.764 158.424C159.764 158.76 159.692 159.084 159.548 159.396C159.412 159.708 159.204 160.044 158.924 160.404C158.644 160.764 158.284 161.184 157.844 161.664L155.576 164.16H160.004V165H154.196ZM165.099 165.144C164.395 165.144 163.775 164.952 163.239 164.568C162.711 164.176 162.299 163.636 162.003 162.948C161.707 162.252 161.559 161.444 161.559 160.524C161.559 159.604 161.707 158.8 162.003 158.112C162.299 157.416 162.711 156.876 163.239 156.492C163.767 156.108 164.383 155.916 165.087 155.916C165.791 155.916 166.407 156.108 166.935 156.492C167.463 156.876 167.875 157.416 168.171 158.112C168.467 158.8 168.615 159.604 168.615 160.524C168.615 161.444 168.467 162.252 168.171 162.948C167.883 163.644 167.475 164.184 166.947 164.568C166.419 164.952 165.803 165.144 165.099 165.144ZM165.099 164.244C165.611 164.244 166.059 164.088 166.443 163.776C166.827 163.464 167.127 163.032 167.343 162.48C167.559 161.92 167.667 161.268 167.667 160.524C167.667 159.78 167.559 159.132 167.343 158.58C167.127 158.02 166.827 157.588 166.443 157.284C166.059 156.972 165.607 156.816 165.087 156.816C164.575 156.816 164.127 156.972 163.743 157.284C163.359 157.588 163.059 158.02 162.843 158.58C162.627 159.132 162.519 159.78 162.519 160.524C162.519 161.26 162.627 161.908 162.843 162.468C163.059 163.028 163.359 163.464 163.743 163.776C164.135 164.088 164.587 164.244 165.099 164.244ZM170.18 165V164.4L172.676 161.652C173.164 161.116 173.56 160.672 173.864 160.32C174.176 159.968 174.408 159.648 174.56 159.36C174.712 159.072 174.788 158.76 174.788 158.424C174.788 157.888 174.632 157.476 174.32 157.188C174.008 156.9 173.592 156.756 173.072 156.756C172.536 156.756 172.084 156.908 171.716 157.212C171.356 157.516 171.112 157.94 170.984 158.484L170.108 158.292C170.212 157.804 170.4 157.384 170.672 157.032C170.944 156.68 171.284 156.408 171.692 156.216C172.1 156.016 172.556 155.916 173.06 155.916C173.596 155.916 174.064 156.024 174.464 156.24C174.864 156.456 175.176 156.752 175.4 157.128C175.632 157.504 175.748 157.936 175.748 158.424C175.748 158.76 175.676 159.084 175.532 159.396C175.396 159.708 175.188 160.044 174.908 160.404C174.628 160.764 174.268 161.184 173.828 161.664L171.56 164.16H175.988V165H170.18ZM180.208 165.144C179.744 165.144 179.316 165.064 178.924 164.904C178.532 164.744 178.188 164.516 177.892 164.22C177.604 163.924 177.384 163.572 177.232 163.164L178 162.804C178.184 163.268 178.472 163.636 178.864 163.908C179.256 164.172 179.704 164.304 180.208 164.304C180.608 164.304 180.964 164.228 181.276 164.076C181.588 163.916 181.832 163.688 182.008 163.392C182.184 163.096 182.272 162.736 182.272 162.312C182.272 161.888 182.18 161.528 181.996 161.232C181.82 160.936 181.576 160.712 181.264 160.56C180.952 160.408 180.596 160.332 180.196 160.332C180.092 160.332 179.976 160.336 179.848 160.344C179.728 160.352 179.628 160.364 179.548 160.38L179.356 159.96L181.768 156.9H177.652V156.06H182.848V156.9L180.592 159.744L180.472 159.588C181.008 159.604 181.484 159.732 181.9 159.972C182.316 160.204 182.64 160.52 182.872 160.92C183.112 161.32 183.232 161.784 183.232 162.312C183.232 162.84 183.104 163.32 182.848 163.752C182.592 164.176 182.236 164.516 181.78 164.772C181.324 165.02 180.8 165.144 180.208 165.144Z" fill="#7C8FAC"/>
<path d="M336.555 119.5C339.562 119.5 342.031 117.055 341.701 114.066C340.832 106.198 338.085 98.6249 333.658 91.9993C328.219 83.859 320.488 77.5145 311.443 73.768C302.398 70.0214 292.445 69.0412 282.843 70.9511C273.241 72.8611 264.421 77.5755 257.498 84.4982C250.576 91.4209 245.861 100.241 243.951 109.843C242.041 119.445 243.021 129.398 246.768 138.443C250.515 147.488 256.859 155.219 264.999 160.658C271.625 165.085 279.198 167.832 287.066 168.701C290.055 169.031 292.5 166.562 292.5 163.555V163.555C292.5 160.548 290.05 158.149 287.073 157.727C281.363 156.916 275.883 154.833 271.049 151.603C264.7 147.361 259.751 141.33 256.829 134.275C253.907 127.22 253.142 119.457 254.632 111.968C256.122 104.478 259.799 97.5983 265.199 92.1986C270.598 86.7989 277.478 83.1217 284.968 81.6319C292.457 80.1421 300.22 80.9067 307.275 83.829C314.33 86.7513 320.361 91.7001 324.603 98.0494C327.833 102.883 329.916 108.363 330.727 114.073C331.149 117.05 333.548 119.5 336.555 119.5V119.5Z" fill="#F9F9FD"/>
<path d="M266.565 155.112C264.795 157.543 265.318 160.978 267.928 162.471C274.8 166.4 282.539 168.638 290.501 168.96C300.283 169.355 309.963 166.841 318.316 161.735C326.669 156.629 333.321 149.161 337.43 140.274C340.774 133.041 342.311 125.134 341.948 117.226C341.81 114.222 338.991 112.19 336.02 112.657V112.657C333.05 113.124 331.061 115.917 331.106 118.924C331.192 124.69 329.985 130.427 327.545 135.704C324.34 142.635 319.152 148.46 312.637 152.443C306.121 156.426 298.571 158.387 290.941 158.078C285.132 157.844 279.476 156.302 274.383 153.596C271.728 152.185 268.335 152.681 266.565 155.112V155.112Z" fill="#EDEAFF"/>
<path d="M336.555 119.5C339.562 119.5 342.031 117.055 341.701 114.066C341.189 109.431 340.024 104.882 338.232 100.557C335.744 94.5516 332.098 89.0947 327.502 84.4982C322.905 79.9017 317.448 76.2556 311.443 73.768C307.118 71.9765 302.569 70.8111 297.934 70.2992C294.945 69.969 292.5 72.4378 292.5 75.445V75.445C292.5 78.4522 294.95 80.8506 297.927 81.2733C301.131 81.7282 304.272 82.5851 307.275 83.829C311.96 85.7693 316.216 88.6133 319.801 92.1986C323.387 95.7839 326.231 100.04 328.171 104.725C329.415 107.728 330.272 110.869 330.727 114.073C331.149 117.05 333.548 119.5 336.555 119.5V119.5Z" fill="#5D87FF"/>
</g>
<defs>
<filter id="filter0_d_23184_22685" x="0" y="0" width="384" height="217" filterUnits="userSpaceOnUse" color-interpolation-filters="sRGB">
<feFlood flood-opacity="0" result="BackgroundImageFix"/>
<feColorMatrix in="SourceAlpha" type="matrix" values="0 0 0 0 0 0 0 0 0 0 0 0 0 0 0 0 0 0 127 0" result="hardAlpha"/>
<feOffset dy="6"/>
<feGaussianBlur stdDeviation="6"/>
<feComposite in2="hardAlpha" operator="out"/>
<feColorMatrix type="matrix" values="0 0 0 0 0.497656 0 0 0 0 0.569701 0 0 0 0 0.6125 0 0 0 0.12 0"/>
<feBlend mode="normal" in2="BackgroundImageFix" result="effect1_dropShadow_23184_22685"/>
<feBlend mode="normal" in="SourceGraphic" in2="effect1_dropShadow_23184_22685" result="shape"/>
</filter>
</defs>
</svg>
