<svg width="360" height="193" viewBox="0 0 360 193" fill="none" xmlns="http://www.w3.org/2000/svg">
<rect width="360" height="193" fill="white"/>
<path d="M34.788 48V41.952L30.198 34.59H32.592L36.264 40.548H35.418L39.072 34.59H41.466L36.894 41.952V48H34.788ZM45.7268 48.216C44.7548 48.216 43.8908 47.994 43.1348 47.55C42.3908 47.094 41.8088 46.482 41.3888 45.714C40.9688 44.934 40.7588 44.064 40.7588 43.104C40.7588 42.12 40.9688 41.25 41.3888 40.494C41.8208 39.738 42.3968 39.144 43.1168 38.712C43.8368 38.268 44.6528 38.046 45.5648 38.046C46.2968 38.046 46.9508 38.172 47.5268 38.424C48.1028 38.676 48.5888 39.024 48.9848 39.468C49.3808 39.9 49.6808 40.398 49.8848 40.962C50.1008 41.526 50.2088 42.126 50.2088 42.762C50.2088 42.918 50.2028 43.08 50.1908 43.248C50.1788 43.416 50.1548 43.572 50.1188 43.716H42.3608V42.096H48.9668L47.9948 42.834C48.1148 42.246 48.0728 41.724 47.8688 41.268C47.6768 40.8 47.3768 40.434 46.9688 40.17C46.5728 39.894 46.1048 39.756 45.5648 39.756C45.0248 39.756 44.5448 39.894 44.1248 40.17C43.7048 40.434 43.3808 40.818 43.1528 41.322C42.9248 41.814 42.8348 42.414 42.8828 43.122C42.8228 43.782 42.9128 44.358 43.1528 44.85C43.4048 45.342 43.7528 45.726 44.1968 46.002C44.6528 46.278 45.1688 46.416 45.7448 46.416C46.3328 46.416 46.8308 46.284 47.2388 46.02C47.6588 45.756 47.9888 45.414 48.2288 44.994L49.8848 45.804C49.6928 46.26 49.3928 46.674 48.9848 47.046C48.5888 47.406 48.1088 47.694 47.5448 47.91C46.9928 48.114 46.3868 48.216 45.7268 48.216ZM55.022 48.216C54.362 48.216 53.78 48.102 53.276 47.874C52.784 47.634 52.4 47.31 52.124 46.902C51.848 46.482 51.71 45.99 51.71 45.426C51.71 44.898 51.824 44.424 52.052 44.004C52.292 43.584 52.658 43.23 53.15 42.942C53.642 42.654 54.26 42.45 55.004 42.33L58.388 41.772V43.374L55.4 43.896C54.86 43.992 54.464 44.166 54.212 44.418C53.96 44.658 53.834 44.97 53.834 45.354C53.834 45.726 53.972 46.032 54.248 46.272C54.536 46.5 54.902 46.614 55.346 46.614C55.898 46.614 56.378 46.494 56.786 46.254C57.206 46.014 57.53 45.696 57.758 45.3C57.986 44.892 58.1 44.442 58.1 43.95V41.448C58.1 40.968 57.92 40.578 57.56 40.278C57.212 39.966 56.744 39.81 56.156 39.81C55.616 39.81 55.142 39.954 54.734 40.242C54.338 40.518 54.044 40.878 53.852 41.322L52.16 40.476C52.34 39.996 52.634 39.576 53.042 39.216C53.45 38.844 53.924 38.556 54.464 38.352C55.016 38.148 55.598 38.046 56.21 38.046C56.978 38.046 57.656 38.19 58.244 38.478C58.844 38.766 59.306 39.168 59.63 39.684C59.966 40.188 60.134 40.776 60.134 41.448V48H58.19V46.236L58.604 46.29C58.376 46.686 58.082 47.028 57.722 47.316C57.374 47.604 56.972 47.826 56.516 47.982C56.072 48.138 55.574 48.216 55.022 48.216ZM62.5122 48V38.262H64.4562V40.224L64.2762 39.936C64.4922 39.3 64.8402 38.844 65.3202 38.568C65.8002 38.28 66.3762 38.136 67.0482 38.136H67.6422V39.99H66.7962C66.1242 39.99 65.5782 40.2 65.1582 40.62C64.7502 41.028 64.5462 41.616 64.5462 42.384V48H62.5122ZM69.0337 48V34.374H71.0677V48H69.0337ZM74.3098 51.96C74.0698 51.96 73.8298 51.936 73.5898 51.888C73.3618 51.852 73.1518 51.792 72.9598 51.708V49.962C73.1038 49.998 73.2778 50.028 73.4818 50.052C73.6858 50.088 73.8838 50.106 74.0758 50.106C74.6398 50.106 75.0538 49.98 75.3178 49.728C75.5938 49.488 75.8398 49.116 76.0558 48.612L76.7038 47.136L76.6678 48.846L72.4558 38.262H74.6338L77.7478 46.38H77.0098L80.1058 38.262H82.3018L77.9998 49.062C77.7718 49.638 77.4838 50.142 77.1358 50.574C76.7998 51.018 76.3978 51.36 75.9298 51.6C75.4738 51.84 74.9338 51.96 74.3098 51.96ZM92.0423 48.216C91.2863 48.216 90.5963 48.06 89.9723 47.748C89.3603 47.436 88.8863 46.986 88.5503 46.398L88.7843 46.02V48H86.8403V34.374H88.8743V40.278L88.5503 39.81C88.9103 39.258 89.3903 38.826 89.9903 38.514C90.5903 38.202 91.2743 38.046 92.0423 38.046C92.9663 38.046 93.7943 38.268 94.5263 38.712C95.2703 39.156 95.8523 39.762 96.2723 40.53C96.7043 41.298 96.9203 42.162 96.9203 43.122C96.9203 44.082 96.7043 44.946 96.2723 45.714C95.8523 46.482 95.2763 47.094 94.5443 47.55C93.8123 47.994 92.9783 48.216 92.0423 48.216ZM91.8443 46.326C92.4203 46.326 92.9303 46.188 93.3743 45.912C93.8183 45.636 94.1663 45.258 94.4183 44.778C94.6823 44.286 94.8143 43.734 94.8143 43.122C94.8143 42.51 94.6823 41.964 94.4183 41.484C94.1663 41.004 93.8183 40.626 93.3743 40.35C92.9303 40.074 92.4203 39.936 91.8443 39.936C91.2803 39.936 90.7703 40.074 90.3143 40.35C89.8703 40.626 89.5163 41.004 89.2523 41.484C89.0003 41.964 88.8743 42.51 88.8743 43.122C88.8743 43.734 89.0003 44.286 89.2523 44.778C89.5163 45.258 89.8703 45.636 90.3143 45.912C90.7703 46.188 91.2803 46.326 91.8443 46.326ZM98.8989 48V38.262H100.843V40.224L100.663 39.936C100.879 39.3 101.227 38.844 101.707 38.568C102.187 38.28 102.763 38.136 103.435 38.136H104.029V39.99H103.183C102.511 39.99 101.965 40.2 101.545 40.62C101.137 41.028 100.933 41.616 100.933 42.384V48H98.8989ZM109.992 48.216C109.02 48.216 108.156 47.994 107.4 47.55C106.656 47.094 106.074 46.482 105.654 45.714C105.234 44.934 105.024 44.064 105.024 43.104C105.024 42.12 105.234 41.25 105.654 40.494C106.086 39.738 106.662 39.144 107.382 38.712C108.102 38.268 108.918 38.046 109.83 38.046C110.562 38.046 111.216 38.172 111.792 38.424C112.368 38.676 112.854 39.024 113.25 39.468C113.646 39.9 113.946 40.398 114.15 40.962C114.366 41.526 114.474 42.126 114.474 42.762C114.474 42.918 114.468 43.08 114.456 43.248C114.444 43.416 114.42 43.572 114.384 43.716H106.626V42.096H113.232L112.26 42.834C112.38 42.246 112.338 41.724 112.134 41.268C111.942 40.8 111.642 40.434 111.234 40.17C110.838 39.894 110.37 39.756 109.83 39.756C109.29 39.756 108.81 39.894 108.39 40.17C107.97 40.434 107.646 40.818 107.418 41.322C107.19 41.814 107.1 42.414 107.148 43.122C107.088 43.782 107.178 44.358 107.418 44.85C107.67 45.342 108.018 45.726 108.462 46.002C108.918 46.278 109.434 46.416 110.01 46.416C110.598 46.416 111.096 46.284 111.504 46.02C111.924 45.756 112.254 45.414 112.494 44.994L114.15 45.804C113.958 46.26 113.658 46.674 113.25 47.046C112.854 47.406 112.374 47.694 111.81 47.91C111.258 48.114 110.652 48.216 109.992 48.216ZM119.288 48.216C118.628 48.216 118.046 48.102 117.542 47.874C117.05 47.634 116.666 47.31 116.39 46.902C116.114 46.482 115.976 45.99 115.976 45.426C115.976 44.898 116.09 44.424 116.318 44.004C116.558 43.584 116.924 43.23 117.416 42.942C117.908 42.654 118.526 42.45 119.27 42.33L122.654 41.772V43.374L119.666 43.896C119.126 43.992 118.73 44.166 118.478 44.418C118.226 44.658 118.1 44.97 118.1 45.354C118.1 45.726 118.238 46.032 118.514 46.272C118.802 46.5 119.168 46.614 119.612 46.614C120.164 46.614 120.644 46.494 121.052 46.254C121.472 46.014 121.796 45.696 122.024 45.3C122.252 44.892 122.366 44.442 122.366 43.95V41.448C122.366 40.968 122.186 40.578 121.826 40.278C121.478 39.966 121.01 39.81 120.422 39.81C119.882 39.81 119.408 39.954 119 40.242C118.604 40.518 118.31 40.878 118.118 41.322L116.426 40.476C116.606 39.996 116.9 39.576 117.308 39.216C117.716 38.844 118.19 38.556 118.73 38.352C119.282 38.148 119.864 38.046 120.476 38.046C121.244 38.046 121.922 38.19 122.51 38.478C123.11 38.766 123.572 39.168 123.896 39.684C124.232 40.188 124.4 40.776 124.4 41.448V48H122.456V46.236L122.87 46.29C122.642 46.686 122.348 47.028 121.988 47.316C121.64 47.604 121.238 47.826 120.782 47.982C120.338 48.138 119.84 48.216 119.288 48.216ZM126.778 48V34.374H128.812V43.5L128.02 43.302L132.898 38.262H135.436L131.764 42.168L135.598 48H133.258L129.838 42.834L131.044 42.672L128.164 45.732L128.812 44.382V48H126.778ZM140.465 48.216C139.733 48.216 139.091 48.054 138.539 47.73C137.987 47.394 137.555 46.932 137.243 46.344C136.943 45.744 136.793 45.054 136.793 44.274V38.262H138.827V44.094C138.827 44.538 138.917 44.928 139.097 45.264C139.277 45.6 139.529 45.864 139.853 46.056C140.177 46.236 140.549 46.326 140.969 46.326C141.401 46.326 141.779 46.23 142.103 46.038C142.427 45.846 142.679 45.576 142.859 45.228C143.051 44.88 143.147 44.472 143.147 44.004V38.262H145.163V48H143.237V46.092L143.453 46.344C143.225 46.944 142.847 47.406 142.319 47.73C141.791 48.054 141.173 48.216 140.465 48.216ZM147.538 51.6V38.262H149.482V40.278L149.248 39.81C149.608 39.258 150.088 38.826 150.688 38.514C151.288 38.202 151.972 38.046 152.74 38.046C153.664 38.046 154.492 38.268 155.224 38.712C155.968 39.156 156.55 39.762 156.97 40.53C157.402 41.298 157.618 42.162 157.618 43.122C157.618 44.082 157.402 44.946 156.97 45.714C156.55 46.482 155.974 47.094 155.242 47.55C154.51 47.994 153.676 48.216 152.74 48.216C151.984 48.216 151.294 48.06 150.67 47.748C150.058 47.436 149.584 46.986 149.248 46.398L149.572 46.02V51.6H147.538ZM152.542 46.326C153.118 46.326 153.628 46.188 154.072 45.912C154.516 45.636 154.864 45.258 155.116 44.778C155.38 44.286 155.512 43.734 155.512 43.122C155.512 42.51 155.38 41.964 155.116 41.484C154.864 41.004 154.516 40.626 154.072 40.35C153.628 40.074 153.118 39.936 152.542 39.936C151.978 39.936 151.468 40.074 151.012 40.35C150.568 40.626 150.214 41.004 149.95 41.484C149.698 41.964 149.572 42.51 149.572 43.122C149.572 43.734 149.698 44.286 149.95 44.778C150.214 45.258 150.568 45.636 151.012 45.912C151.468 46.188 151.978 46.326 152.542 46.326Z" fill="#2A3547"/>
<path d="M38.112 88.288C36.992 88.288 35.952 88.08 34.992 87.664C34.032 87.232 33.216 86.648 32.544 85.912C31.872 85.176 31.376 84.328 31.056 83.368L33.456 82.36C33.888 83.464 34.52 84.312 35.352 84.904C36.184 85.496 37.144 85.792 38.232 85.792C38.872 85.792 39.432 85.696 39.912 85.504C40.392 85.296 40.76 85.008 41.016 84.64C41.288 84.272 41.424 83.848 41.424 83.368C41.424 82.712 41.24 82.192 40.872 81.808C40.504 81.424 39.96 81.12 39.24 80.896L35.88 79.84C34.536 79.424 33.512 78.792 32.808 77.944C32.104 77.08 31.752 76.072 31.752 74.92C31.752 73.912 32 73.032 32.496 72.28C32.992 71.512 33.672 70.912 34.536 70.48C35.416 70.048 36.416 69.832 37.536 69.832C38.608 69.832 39.584 70.024 40.464 70.408C41.344 70.776 42.096 71.288 42.72 71.944C43.36 72.6 43.824 73.36 44.112 74.224L41.76 75.256C41.408 74.312 40.856 73.584 40.104 73.072C39.368 72.56 38.512 72.304 37.536 72.304C36.944 72.304 36.424 72.408 35.976 72.616C35.528 72.808 35.176 73.096 34.92 73.48C34.68 73.848 34.56 74.28 34.56 74.776C34.56 75.352 34.744 75.864 35.112 76.312C35.48 76.76 36.04 77.096 36.792 77.32L39.912 78.304C41.336 78.736 42.408 79.36 43.128 80.176C43.848 80.976 44.208 81.976 44.208 83.176C44.208 84.168 43.944 85.048 43.416 85.816C42.904 86.584 42.192 87.192 41.28 87.64C40.368 88.072 39.312 88.288 38.112 88.288ZM37.008 90.4V67.72H38.928V90.4H37.008ZM52.5711 88.288C51.6111 88.288 50.7071 88.112 49.8591 87.76C49.0271 87.408 48.3071 86.912 47.6991 86.272C47.1071 85.632 46.6831 84.88 46.4271 84.016L48.8271 83.104C49.1471 83.952 49.6351 84.608 50.2911 85.072C50.9471 85.536 51.7071 85.768 52.5711 85.768C53.2751 85.768 53.8831 85.632 54.3951 85.36C54.9231 85.088 55.3311 84.704 55.6191 84.208C55.9231 83.712 56.0751 83.112 56.0751 82.408C56.0751 81.72 55.9231 81.128 55.6191 80.632C55.3311 80.136 54.9231 79.76 54.3951 79.504C53.8831 79.248 53.2751 79.12 52.5711 79.12C52.2831 79.12 51.9871 79.144 51.6831 79.192C51.3951 79.24 51.1391 79.304 50.9151 79.384L50.2911 78.064L54.9951 72.52H47.3871V70.12H58.1631V72.4L53.5551 77.92L53.4831 77.008C54.5551 77.024 55.4991 77.264 56.3151 77.728C57.1311 78.176 57.7631 78.8 58.2111 79.6C58.6751 80.384 58.9071 81.296 58.9071 82.336C58.9071 83.456 58.6351 84.472 58.0911 85.384C57.5471 86.28 56.7951 86.992 55.8351 87.52C54.8911 88.032 53.8031 88.288 52.5711 88.288ZM67.4349 88.288C66.2669 88.288 65.2269 88.032 64.3149 87.52C63.4029 87.008 62.6829 86.304 62.1549 85.408C61.6429 84.512 61.3869 83.496 61.3869 82.36C61.3869 81.768 61.4509 81.176 61.5789 80.584C61.7069 79.992 61.9309 79.376 62.2509 78.736C62.5869 78.096 63.0349 77.408 63.5949 76.672L68.5869 70.12H71.9709L65.8509 78.04L65.3709 77.728C65.5949 77.472 65.8349 77.272 66.0909 77.128C66.3629 76.984 66.6429 76.88 66.9309 76.816C67.2349 76.752 67.5549 76.72 67.8909 76.72C68.9629 76.72 69.9229 76.968 70.7709 77.464C71.6189 77.96 72.2829 78.632 72.7629 79.48C73.2589 80.328 73.5069 81.304 73.5069 82.408C73.5069 83.528 73.2429 84.536 72.7149 85.432C72.1869 86.312 71.4669 87.008 70.5549 87.52C69.6589 88.032 68.6189 88.288 67.4349 88.288ZM67.4349 85.768C68.0589 85.768 68.6109 85.624 69.0909 85.336C69.5709 85.048 69.9549 84.656 70.2429 84.16C70.5309 83.648 70.6749 83.072 70.6749 82.432C70.6749 81.776 70.5309 81.2 70.2429 80.704C69.9709 80.208 69.5869 79.824 69.0909 79.552C68.6109 79.264 68.0589 79.12 67.4349 79.12C66.8269 79.12 66.2749 79.264 65.7789 79.552C65.2989 79.824 64.9149 80.208 64.6269 80.704C64.3389 81.2 64.1949 81.776 64.1949 82.432C64.1949 83.072 64.3389 83.648 64.6269 84.16C64.9149 84.656 65.2989 85.048 65.7789 85.336C66.2749 85.624 66.8269 85.768 67.4349 85.768ZM76.905 91.528V90.208C77.433 90.08 77.841 89.832 78.129 89.464C78.417 89.112 78.593 88.624 78.657 88H77.385V84.88H80.145V86.92C80.145 88.2 79.873 89.232 79.329 90.016C78.785 90.8 77.977 91.304 76.905 91.528ZM89.532 88.288C88.572 88.288 87.668 88.112 86.82 87.76C85.988 87.408 85.268 86.912 84.66 86.272C84.068 85.632 83.644 84.88 83.388 84.016L85.788 83.104C86.108 83.952 86.596 84.608 87.252 85.072C87.908 85.536 88.668 85.768 89.532 85.768C90.236 85.768 90.844 85.632 91.356 85.36C91.884 85.088 92.292 84.704 92.58 84.208C92.884 83.712 93.036 83.112 93.036 82.408C93.036 81.72 92.884 81.128 92.58 80.632C92.292 80.136 91.884 79.76 91.356 79.504C90.844 79.248 90.236 79.12 89.532 79.12C89.244 79.12 88.948 79.144 88.644 79.192C88.356 79.24 88.1 79.304 87.876 79.384L87.252 78.064L91.956 72.52H84.348V70.12H95.124V72.4L90.516 77.92L90.444 77.008C91.516 77.024 92.46 77.264 93.276 77.728C94.092 78.176 94.724 78.8 95.172 79.6C95.636 80.384 95.868 81.296 95.868 82.336C95.868 83.456 95.596 84.472 95.052 85.384C94.508 86.28 93.756 86.992 92.796 87.52C91.852 88.032 90.764 88.288 89.532 88.288ZM104.348 88.288C103.404 88.288 102.516 88.12 101.684 87.784C100.852 87.432 100.132 86.944 99.5239 86.32C98.9159 85.696 98.4839 84.944 98.2279 84.064L100.604 83.152C100.908 84 101.404 84.648 102.092 85.096C102.78 85.544 103.532 85.768 104.348 85.768C105.02 85.768 105.612 85.616 106.124 85.312C106.636 85.008 107.036 84.592 107.324 84.064C107.628 83.536 107.78 82.936 107.78 82.264C107.78 81.576 107.628 80.976 107.324 80.464C107.036 79.936 106.636 79.528 106.124 79.24C105.612 78.936 105.02 78.784 104.348 78.784C103.676 78.784 103.06 78.936 102.5 79.24C101.94 79.544 101.532 79.952 101.276 80.464L98.9959 79.96L100.388 70.12H109.916V72.52H101.492L102.572 71.344L101.54 78.88L100.652 78.28C101.132 77.608 101.716 77.12 102.404 76.816C103.092 76.512 103.876 76.36 104.756 76.36C105.924 76.36 106.94 76.624 107.804 77.152C108.684 77.664 109.364 78.368 109.844 79.264C110.34 80.144 110.588 81.144 110.588 82.264C110.588 83.4 110.316 84.424 109.772 85.336C109.228 86.248 108.484 86.968 107.54 87.496C106.612 88.024 105.548 88.288 104.348 88.288ZM119.498 88.288C118.25 88.288 117.154 88.048 116.21 87.568C115.282 87.072 114.562 86.416 114.05 85.6C113.538 84.768 113.282 83.848 113.282 82.84C113.282 81.688 113.594 80.696 114.218 79.864C114.858 79.016 115.754 78.4 116.906 78.016L116.786 78.736C115.938 78.416 115.266 77.88 114.77 77.128C114.29 76.36 114.05 75.52 114.05 74.608C114.05 73.696 114.282 72.88 114.746 72.16C115.226 71.44 115.874 70.872 116.69 70.456C117.522 70.04 118.458 69.832 119.498 69.832C120.554 69.832 121.49 70.04 122.306 70.456C123.122 70.856 123.762 71.416 124.226 72.136C124.706 72.856 124.946 73.68 124.946 74.608C124.946 75.552 124.698 76.4 124.202 77.152C123.722 77.888 123.066 78.416 122.234 78.736L122.114 78.016C123.266 78.416 124.162 79.032 124.802 79.864C125.442 80.696 125.762 81.688 125.762 82.84C125.762 83.848 125.498 84.768 124.97 85.6C124.458 86.416 123.73 87.072 122.786 87.568C121.842 88.048 120.746 88.288 119.498 88.288ZM119.498 85.888C120.186 85.888 120.786 85.76 121.298 85.504C121.81 85.232 122.21 84.864 122.498 84.4C122.786 83.936 122.93 83.392 122.93 82.768C122.93 82.144 122.786 81.6 122.498 81.136C122.21 80.672 121.81 80.312 121.298 80.056C120.786 79.8 120.186 79.672 119.498 79.672C118.826 79.672 118.234 79.8 117.722 80.056C117.21 80.312 116.81 80.672 116.522 81.136C116.234 81.6 116.09 82.144 116.09 82.768C116.09 83.392 116.234 83.936 116.522 84.4C116.81 84.864 117.21 85.232 117.722 85.504C118.234 85.76 118.826 85.888 119.498 85.888ZM119.498 77.272C120.01 77.272 120.458 77.168 120.842 76.96C121.242 76.736 121.554 76.432 121.778 76.048C122.002 75.664 122.114 75.232 122.114 74.752C122.114 74.256 122.002 73.824 121.778 73.456C121.554 73.072 121.242 72.776 120.842 72.568C120.458 72.344 120.01 72.232 119.498 72.232C119.002 72.232 118.554 72.344 118.154 72.568C117.754 72.776 117.442 73.072 117.218 73.456C116.994 73.824 116.882 74.256 116.882 74.752C116.882 75.232 116.994 75.664 117.218 76.048C117.442 76.432 117.754 76.736 118.154 76.96C118.554 77.168 119.002 77.272 119.498 77.272Z" fill="#1E3146"/>
<rect x="30" y="101" width="20" height="20" rx="10" fill="#E6FFFA"/>
<path d="M43.1331 114.767L43.8331 114.067L37.2664 107.5H43.2331V106.5H35.5664V114.167H36.5664V108.2L43.1331 114.767Z" fill="#13DEB9"/>
<path d="M57.724 117V114.018H54.742V112.968H57.724V110H58.774V112.968H61.742V114.018H58.774V117H57.724ZM64.2402 117L67.8662 112.254L68.0762 112.128C67.9362 112.352 67.7729 112.529 67.5862 112.66C67.3996 112.791 67.1942 112.884 66.9702 112.94C66.7462 112.996 66.4989 113.024 66.2282 113.024C65.6216 113.024 65.0756 112.884 64.5902 112.604C64.1049 112.315 63.7176 111.923 63.4282 111.428C63.1482 110.924 63.0082 110.35 63.0082 109.706C63.0082 109.071 63.1529 108.507 63.4422 108.012C63.7409 107.517 64.1422 107.125 64.6462 106.836C65.1596 106.547 65.7336 106.402 66.3682 106.402C67.0216 106.402 67.6002 106.551 68.1042 106.85C68.6082 107.139 69.0049 107.545 69.2942 108.068C69.5836 108.581 69.7282 109.174 69.7282 109.846C69.7282 110.219 69.6816 110.588 69.5882 110.952C69.5042 111.316 69.3736 111.675 69.1962 112.03C69.0189 112.385 68.7949 112.739 68.5242 113.094L65.5842 117H64.2402ZM66.3682 112.016C66.8069 112.016 67.1942 111.918 67.5302 111.722C67.8662 111.517 68.1276 111.241 68.3142 110.896C68.5102 110.541 68.6082 110.145 68.6082 109.706C68.6082 109.258 68.5102 108.861 68.3142 108.516C68.1182 108.161 67.8522 107.886 67.5162 107.69C67.1802 107.485 66.7976 107.382 66.3682 107.382C65.9389 107.382 65.5562 107.485 65.2202 107.69C64.8842 107.886 64.6182 108.161 64.4222 108.516C64.2262 108.861 64.1282 109.258 64.1282 109.706C64.1282 110.145 64.2216 110.541 64.4082 110.896C64.6042 111.241 64.8702 111.517 65.2062 111.722C65.5516 111.918 65.9389 112.016 66.3682 112.016ZM72.2158 117L80.7558 106.57H82.1138L73.5738 117H72.2158ZM73.7418 111.862C73.2378 111.862 72.7804 111.741 72.3698 111.498C71.9591 111.246 71.6278 110.915 71.3758 110.504C71.1331 110.093 71.0118 109.636 71.0118 109.132C71.0118 108.628 71.1331 108.171 71.3758 107.76C71.6278 107.34 71.9591 107.009 72.3698 106.766C72.7804 106.523 73.2378 106.402 73.7418 106.402C74.2458 106.402 74.7031 106.523 75.1138 106.766C75.5244 107.009 75.8511 107.34 76.0938 107.76C76.3364 108.171 76.4578 108.628 76.4578 109.132C76.4578 109.636 76.3364 110.093 76.0938 110.504C75.8511 110.915 75.5244 111.246 75.1138 111.498C74.7031 111.741 74.2458 111.862 73.7418 111.862ZM73.7418 110.854C74.0684 110.854 74.3531 110.775 74.5958 110.616C74.8478 110.448 75.0438 110.233 75.1838 109.972C75.3331 109.701 75.4078 109.421 75.4078 109.132C75.4078 108.833 75.3331 108.553 75.1838 108.292C75.0438 108.031 74.8478 107.821 74.5958 107.662C74.3531 107.494 74.0684 107.41 73.7418 107.41C73.4244 107.41 73.1351 107.494 72.8738 107.662C72.6218 107.821 72.4211 108.031 72.2718 108.292C72.1318 108.553 72.0618 108.833 72.0618 109.132C72.0618 109.421 72.1318 109.701 72.2718 109.972C72.4211 110.233 72.6218 110.448 72.8738 110.616C73.1351 110.775 73.4244 110.854 73.7418 110.854ZM80.4618 117.168C79.9578 117.168 79.5004 117.047 79.0898 116.804C78.6791 116.552 78.3478 116.221 78.0958 115.81C77.8531 115.399 77.7318 114.942 77.7318 114.438C77.7318 113.934 77.8531 113.477 78.0958 113.066C78.3478 112.646 78.6791 112.315 79.0898 112.072C79.5004 111.829 79.9578 111.708 80.4618 111.708C80.9658 111.708 81.4231 111.829 81.8338 112.072C82.2444 112.315 82.5711 112.646 82.8138 113.066C83.0564 113.477 83.1778 113.934 83.1778 114.438C83.1778 114.942 83.0564 115.399 82.8138 115.81C82.5711 116.221 82.2444 116.552 81.8338 116.804C81.4231 117.047 80.9658 117.168 80.4618 117.168ZM80.4618 116.16C80.7884 116.16 81.0731 116.081 81.3158 115.922C81.5678 115.754 81.7638 115.539 81.9038 115.278C82.0531 115.007 82.1278 114.727 82.1278 114.438C82.1278 114.139 82.0531 113.859 81.9038 113.598C81.7638 113.337 81.5678 113.127 81.3158 112.968C81.0731 112.8 80.7884 112.716 80.4618 112.716C80.1444 112.716 79.8551 112.8 79.5938 112.968C79.3418 113.127 79.1411 113.337 78.9918 113.598C78.8518 113.859 78.7818 114.139 78.7818 114.438C78.7818 114.727 78.8518 115.007 78.9918 115.278C79.1411 115.539 79.3418 115.754 79.5938 115.922C79.8551 116.081 80.1444 116.16 80.4618 116.16Z" fill="#1E3146"/>
<path d="M91.948 117.084C91.276 117.084 90.758 116.888 90.394 116.496C90.03 116.104 89.848 115.544 89.848 114.816V110.546H88.462V109.496H88.812C89.1293 109.496 89.3813 109.393 89.568 109.188C89.7547 108.973 89.848 108.707 89.848 108.39V107.76H90.898V109.496H92.55V110.546H90.898V114.816C90.898 115.068 90.9353 115.292 91.01 115.488C91.0847 115.675 91.2107 115.824 91.388 115.936C91.5747 116.048 91.822 116.104 92.13 116.104C92.2047 116.104 92.2933 116.099 92.396 116.09C92.4987 116.081 92.5873 116.071 92.662 116.062V117C92.55 117.028 92.424 117.047 92.284 117.056C92.144 117.075 92.032 117.084 91.948 117.084ZM94.2257 117V106.402H95.2757V110.952L95.0377 110.896C95.2244 110.411 95.5277 110.028 95.9477 109.748C96.3771 109.468 96.8717 109.328 97.4317 109.328C97.9637 109.328 98.4397 109.449 98.8597 109.692C99.2891 109.935 99.6251 110.271 99.8677 110.7C100.12 111.12 100.246 111.596 100.246 112.128V117H99.1957V112.534C99.1957 112.077 99.1117 111.689 98.9437 111.372C98.7757 111.055 98.5424 110.812 98.2437 110.644C97.9544 110.467 97.6231 110.378 97.2497 110.378C96.8764 110.378 96.5404 110.467 96.2417 110.644C95.9431 110.812 95.7051 111.059 95.5277 111.386C95.3597 111.703 95.2757 112.086 95.2757 112.534V117H94.2257ZM104.141 117.168C103.665 117.168 103.24 117.079 102.867 116.902C102.494 116.715 102.2 116.463 101.985 116.146C101.77 115.829 101.663 115.465 101.663 115.054C101.663 114.662 101.747 114.307 101.915 113.99C102.083 113.663 102.344 113.388 102.699 113.164C103.054 112.94 103.506 112.781 104.057 112.688L106.997 112.198V113.15L104.309 113.598C103.768 113.691 103.376 113.864 103.133 114.116C102.9 114.368 102.783 114.667 102.783 115.012C102.783 115.348 102.914 115.633 103.175 115.866C103.446 116.099 103.791 116.216 104.211 116.216C104.724 116.216 105.172 116.109 105.555 115.894C105.938 115.67 106.236 115.371 106.451 114.998C106.666 114.625 106.773 114.209 106.773 113.752V111.848C106.773 111.4 106.61 111.036 106.283 110.756C105.956 110.476 105.532 110.336 105.009 110.336C104.552 110.336 104.15 110.453 103.805 110.686C103.46 110.91 103.203 111.204 103.035 111.568L102.083 111.05C102.223 110.733 102.442 110.443 102.741 110.182C103.049 109.921 103.399 109.715 103.791 109.566C104.183 109.407 104.589 109.328 105.009 109.328C105.56 109.328 106.045 109.435 106.465 109.65C106.894 109.865 107.226 110.163 107.459 110.546C107.702 110.919 107.823 111.353 107.823 111.848V117H106.773V115.502L106.927 115.656C106.796 115.936 106.591 116.193 106.311 116.426C106.04 116.65 105.718 116.832 105.345 116.972C104.981 117.103 104.58 117.168 104.141 117.168ZM109.703 117V109.496H110.753V110.952L110.515 110.896C110.702 110.411 111.005 110.028 111.425 109.748C111.854 109.468 112.349 109.328 112.909 109.328C113.441 109.328 113.917 109.449 114.337 109.692C114.766 109.935 115.102 110.271 115.345 110.7C115.597 111.12 115.723 111.596 115.723 112.128V117H114.673V112.534C114.673 112.077 114.589 111.689 114.421 111.372C114.262 111.055 114.034 110.812 113.735 110.644C113.446 110.467 113.11 110.378 112.727 110.378C112.344 110.378 112.004 110.467 111.705 110.644C111.406 110.812 111.173 111.059 111.005 111.386C110.837 111.703 110.753 112.086 110.753 112.534V117H109.703ZM119.547 117V106.402H120.597V117H119.547ZM124.636 117.168C124.16 117.168 123.736 117.079 123.362 116.902C122.989 116.715 122.695 116.463 122.48 116.146C122.266 115.829 122.158 115.465 122.158 115.054C122.158 114.662 122.242 114.307 122.41 113.99C122.578 113.663 122.84 113.388 123.194 113.164C123.549 112.94 124.002 112.781 124.552 112.688L127.492 112.198V113.15L124.804 113.598C124.263 113.691 123.871 113.864 123.628 114.116C123.395 114.368 123.278 114.667 123.278 115.012C123.278 115.348 123.409 115.633 123.67 115.866C123.941 116.099 124.286 116.216 124.706 116.216C125.22 116.216 125.668 116.109 126.05 115.894C126.433 115.67 126.732 115.371 126.946 114.998C127.161 114.625 127.268 114.209 127.268 113.752V111.848C127.268 111.4 127.105 111.036 126.778 110.756C126.452 110.476 126.027 110.336 125.504 110.336C125.047 110.336 124.646 110.453 124.3 110.686C123.955 110.91 123.698 111.204 123.53 111.568L122.578 111.05C122.718 110.733 122.938 110.443 123.236 110.182C123.544 109.921 123.894 109.715 124.286 109.566C124.678 109.407 125.084 109.328 125.504 109.328C126.055 109.328 126.54 109.435 126.96 109.65C127.39 109.865 127.721 110.163 127.954 110.546C128.197 110.919 128.318 111.353 128.318 111.848V117H127.268V115.502L127.422 115.656C127.292 115.936 127.086 116.193 126.806 116.426C126.536 116.65 126.214 116.832 125.84 116.972C125.476 117.103 125.075 117.168 124.636 117.168ZM132.802 117.168C132.083 117.168 131.453 116.986 130.912 116.622C130.371 116.258 129.979 115.763 129.736 115.138L130.618 114.718C130.833 115.175 131.131 115.539 131.514 115.81C131.906 116.081 132.335 116.216 132.802 116.216C133.25 116.216 133.628 116.109 133.936 115.894C134.244 115.67 134.398 115.381 134.398 115.026C134.398 114.765 134.323 114.559 134.174 114.41C134.025 114.251 133.852 114.13 133.656 114.046C133.46 113.962 133.287 113.901 133.138 113.864L132.06 113.556C131.369 113.36 130.87 113.085 130.562 112.73C130.254 112.375 130.1 111.965 130.1 111.498C130.1 111.059 130.212 110.677 130.436 110.35C130.66 110.023 130.963 109.771 131.346 109.594C131.729 109.417 132.153 109.328 132.62 109.328C133.255 109.328 133.829 109.496 134.342 109.832C134.865 110.159 135.233 110.616 135.448 111.204L134.552 111.624C134.365 111.204 134.095 110.877 133.74 110.644C133.395 110.401 133.007 110.28 132.578 110.28C132.158 110.28 131.822 110.387 131.57 110.602C131.318 110.817 131.192 111.087 131.192 111.414C131.192 111.666 131.257 111.867 131.388 112.016C131.519 112.165 131.668 112.277 131.836 112.352C132.013 112.427 132.167 112.483 132.298 112.52L133.544 112.884C134.151 113.061 134.622 113.337 134.958 113.71C135.303 114.083 135.476 114.522 135.476 115.026C135.476 115.437 135.359 115.805 135.126 116.132C134.902 116.459 134.589 116.715 134.188 116.902C133.787 117.079 133.325 117.168 132.802 117.168ZM139.911 117.084C139.239 117.084 138.721 116.888 138.357 116.496C137.993 116.104 137.811 115.544 137.811 114.816V110.546H136.425V109.496H136.775C137.092 109.496 137.344 109.393 137.531 109.188C137.718 108.973 137.811 108.707 137.811 108.39V107.76H138.861V109.496H140.513V110.546H138.861V114.816C138.861 115.068 138.898 115.292 138.973 115.488C139.048 115.675 139.174 115.824 139.351 115.936C139.538 116.048 139.785 116.104 140.093 116.104C140.168 116.104 140.256 116.099 140.359 116.09C140.462 116.081 140.55 116.071 140.625 116.062V117C140.513 117.028 140.387 117.047 140.247 117.056C140.107 117.075 139.995 117.084 139.911 117.084ZM144.442 120.08C144.292 120.08 144.138 120.066 143.98 120.038C143.83 120.019 143.681 119.982 143.532 119.926V118.946C143.625 118.955 143.742 118.969 143.882 118.988C144.031 119.016 144.18 119.03 144.33 119.03C144.787 119.03 145.137 118.932 145.38 118.736C145.622 118.549 145.86 118.185 146.094 117.644L146.57 116.524L146.542 117.448L143.364 109.496H144.498L147.102 116.062H146.808L149.398 109.496H150.56L147.13 117.952C146.98 118.316 146.789 118.661 146.556 118.988C146.332 119.315 146.047 119.576 145.702 119.772C145.356 119.977 144.936 120.08 144.442 120.08ZM154.793 117.168C154.093 117.168 153.458 117 152.889 116.664C152.329 116.319 151.886 115.847 151.559 115.25C151.232 114.653 151.069 113.976 151.069 113.22C151.069 112.464 151.228 111.797 151.545 111.218C151.862 110.63 152.292 110.168 152.833 109.832C153.384 109.496 154 109.328 154.681 109.328C155.222 109.328 155.703 109.431 156.123 109.636C156.552 109.832 156.916 110.103 157.215 110.448C157.514 110.784 157.742 111.167 157.901 111.596C158.06 112.016 158.139 112.45 158.139 112.898C158.139 112.991 158.134 113.099 158.125 113.22C158.116 113.332 158.102 113.449 158.083 113.57H151.741V112.59H157.481L156.977 113.01C157.061 112.497 157 112.039 156.795 111.638C156.599 111.227 156.314 110.905 155.941 110.672C155.568 110.429 155.148 110.308 154.681 110.308C154.214 110.308 153.78 110.429 153.379 110.672C152.987 110.915 152.679 111.255 152.455 111.694C152.231 112.123 152.142 112.637 152.189 113.234C152.142 113.831 152.236 114.354 152.469 114.802C152.712 115.241 153.038 115.581 153.449 115.824C153.869 116.067 154.317 116.188 154.793 116.188C155.344 116.188 155.806 116.057 156.179 115.796C156.552 115.535 156.856 115.208 157.089 114.816L157.985 115.292C157.836 115.628 157.607 115.941 157.299 116.23C156.991 116.51 156.622 116.739 156.193 116.916C155.773 117.084 155.306 117.168 154.793 117.168ZM161.743 117.168C161.267 117.168 160.843 117.079 160.469 116.902C160.096 116.715 159.802 116.463 159.587 116.146C159.373 115.829 159.265 115.465 159.265 115.054C159.265 114.662 159.349 114.307 159.517 113.99C159.685 113.663 159.947 113.388 160.301 113.164C160.656 112.94 161.109 112.781 161.659 112.688L164.599 112.198V113.15L161.911 113.598C161.37 113.691 160.978 113.864 160.735 114.116C160.502 114.368 160.385 114.667 160.385 115.012C160.385 115.348 160.516 115.633 160.777 115.866C161.048 116.099 161.393 116.216 161.813 116.216C162.327 116.216 162.775 116.109 163.157 115.894C163.54 115.67 163.839 115.371 164.053 114.998C164.268 114.625 164.375 114.209 164.375 113.752V111.848C164.375 111.4 164.212 111.036 163.885 110.756C163.559 110.476 163.134 110.336 162.611 110.336C162.154 110.336 161.753 110.453 161.407 110.686C161.062 110.91 160.805 111.204 160.637 111.568L159.685 111.05C159.825 110.733 160.045 110.443 160.343 110.182C160.651 109.921 161.001 109.715 161.393 109.566C161.785 109.407 162.191 109.328 162.611 109.328C163.162 109.328 163.647 109.435 164.067 109.65C164.497 109.865 164.828 110.163 165.061 110.546C165.304 110.919 165.425 111.353 165.425 111.848V117H164.375V115.502L164.529 115.656C164.399 115.936 164.193 116.193 163.913 116.426C163.643 116.65 163.321 116.832 162.947 116.972C162.583 117.103 162.182 117.168 161.743 117.168ZM167.305 117V109.496H168.355V110.728L168.215 110.546C168.393 110.191 168.659 109.911 169.013 109.706C169.377 109.501 169.816 109.398 170.329 109.398H170.805V110.448H170.147C169.606 110.448 169.172 110.616 168.845 110.952C168.519 111.288 168.355 111.764 168.355 112.38V117H167.305Z" fill="#7C8FAC"/>
<circle cx="35" cy="154.5" r="5" fill="#5D87FF"/>
<path d="M48.696 159V158.4L51.192 155.652C51.68 155.116 52.076 154.672 52.38 154.32C52.692 153.968 52.924 153.648 53.076 153.36C53.228 153.072 53.304 152.76 53.304 152.424C53.304 151.888 53.148 151.476 52.836 151.188C52.524 150.9 52.108 150.756 51.588 150.756C51.052 150.756 50.6 150.908 50.232 151.212C49.872 151.516 49.628 151.94 49.5 152.484L48.624 152.292C48.728 151.804 48.916 151.384 49.188 151.032C49.46 150.68 49.8 150.408 50.208 150.216C50.616 150.016 51.072 149.916 51.576 149.916C52.112 149.916 52.58 150.024 52.98 150.24C53.38 150.456 53.692 150.752 53.916 151.128C54.148 151.504 54.264 151.936 54.264 152.424C54.264 152.76 54.192 153.084 54.048 153.396C53.912 153.708 53.704 154.044 53.424 154.404C53.144 154.764 52.784 155.184 52.344 155.664L50.076 158.16H54.504V159H48.696ZM59.5993 159.144C58.8953 159.144 58.2753 158.952 57.7393 158.568C57.2113 158.176 56.7993 157.636 56.5033 156.948C56.2073 156.252 56.0593 155.444 56.0593 154.524C56.0593 153.604 56.2073 152.8 56.5033 152.112C56.7993 151.416 57.2113 150.876 57.7393 150.492C58.2673 150.108 58.8833 149.916 59.5873 149.916C60.2913 149.916 60.9073 150.108 61.4353 150.492C61.9633 150.876 62.3753 151.416 62.6713 152.112C62.9673 152.8 63.1153 153.604 63.1153 154.524C63.1153 155.444 62.9673 156.252 62.6713 156.948C62.3833 157.644 61.9753 158.184 61.4473 158.568C60.9193 158.952 60.3033 159.144 59.5993 159.144ZM59.5993 158.244C60.1113 158.244 60.5593 158.088 60.9433 157.776C61.3273 157.464 61.6273 157.032 61.8433 156.48C62.0593 155.92 62.1673 155.268 62.1673 154.524C62.1673 153.78 62.0593 153.132 61.8433 152.58C61.6273 152.02 61.3273 151.588 60.9433 151.284C60.5593 150.972 60.1073 150.816 59.5873 150.816C59.0753 150.816 58.6273 150.972 58.2433 151.284C57.8593 151.588 57.5593 152.02 57.3433 152.58C57.1273 153.132 57.0193 153.78 57.0193 154.524C57.0193 155.26 57.1273 155.908 57.3433 156.468C57.5593 157.028 57.8593 157.464 58.2433 157.776C58.6353 158.088 59.0873 158.244 59.5993 158.244ZM64.6804 159V158.4L67.1764 155.652C67.6644 155.116 68.0604 154.672 68.3644 154.32C68.6764 153.968 68.9084 153.648 69.0604 153.36C69.2124 153.072 69.2884 152.76 69.2884 152.424C69.2884 151.888 69.1324 151.476 68.8204 151.188C68.5084 150.9 68.0924 150.756 67.5724 150.756C67.0364 150.756 66.5844 150.908 66.2164 151.212C65.8564 151.516 65.6124 151.94 65.4844 152.484L64.6084 152.292C64.7124 151.804 64.9004 151.384 65.1724 151.032C65.4444 150.68 65.7844 150.408 66.1924 150.216C66.6004 150.016 67.0564 149.916 67.5604 149.916C68.0964 149.916 68.5644 150.024 68.9644 150.24C69.3644 150.456 69.6764 150.752 69.9004 151.128C70.1324 151.504 70.2484 151.936 70.2484 152.424C70.2484 152.76 70.1764 153.084 70.0324 153.396C69.8964 153.708 69.6884 154.044 69.4084 154.404C69.1284 154.764 68.7684 155.184 68.3284 155.664L66.0604 158.16H70.4884V159H64.6804ZM76.1625 159V156.888H71.6145V156.108L76.1625 150.06H77.0025V156.108H78.0945V156.888H77.0025V159H76.1625ZM72.3465 156.456L72.2385 156.108H76.1625V150.888L76.4625 150.972L72.3465 156.456Z" fill="#7C8FAC"/>
<circle cx="128.5" cy="154.5" r="5" fill="#ECF2FF"/>
<path d="M142.196 159V158.4L144.692 155.652C145.18 155.116 145.576 154.672 145.88 154.32C146.192 153.968 146.424 153.648 146.576 153.36C146.728 153.072 146.804 152.76 146.804 152.424C146.804 151.888 146.648 151.476 146.336 151.188C146.024 150.9 145.608 150.756 145.088 150.756C144.552 150.756 144.1 150.908 143.732 151.212C143.372 151.516 143.128 151.94 143 152.484L142.124 152.292C142.228 151.804 142.416 151.384 142.688 151.032C142.96 150.68 143.3 150.408 143.708 150.216C144.116 150.016 144.572 149.916 145.076 149.916C145.612 149.916 146.08 150.024 146.48 150.24C146.88 150.456 147.192 150.752 147.416 151.128C147.648 151.504 147.764 151.936 147.764 152.424C147.764 152.76 147.692 153.084 147.548 153.396C147.412 153.708 147.204 154.044 146.924 154.404C146.644 154.764 146.284 155.184 145.844 155.664L143.576 158.16H148.004V159H142.196ZM153.099 159.144C152.395 159.144 151.775 158.952 151.239 158.568C150.711 158.176 150.299 157.636 150.003 156.948C149.707 156.252 149.559 155.444 149.559 154.524C149.559 153.604 149.707 152.8 150.003 152.112C150.299 151.416 150.711 150.876 151.239 150.492C151.767 150.108 152.383 149.916 153.087 149.916C153.791 149.916 154.407 150.108 154.935 150.492C155.463 150.876 155.875 151.416 156.171 152.112C156.467 152.8 156.615 153.604 156.615 154.524C156.615 155.444 156.467 156.252 156.171 156.948C155.883 157.644 155.475 158.184 154.947 158.568C154.419 158.952 153.803 159.144 153.099 159.144ZM153.099 158.244C153.611 158.244 154.059 158.088 154.443 157.776C154.827 157.464 155.127 157.032 155.343 156.48C155.559 155.92 155.667 155.268 155.667 154.524C155.667 153.78 155.559 153.132 155.343 152.58C155.127 152.02 154.827 151.588 154.443 151.284C154.059 150.972 153.607 150.816 153.087 150.816C152.575 150.816 152.127 150.972 151.743 151.284C151.359 151.588 151.059 152.02 150.843 152.58C150.627 153.132 150.519 153.78 150.519 154.524C150.519 155.26 150.627 155.908 150.843 156.468C151.059 157.028 151.359 157.464 151.743 157.776C152.135 158.088 152.587 158.244 153.099 158.244ZM158.18 159V158.4L160.676 155.652C161.164 155.116 161.56 154.672 161.864 154.32C162.176 153.968 162.408 153.648 162.56 153.36C162.712 153.072 162.788 152.76 162.788 152.424C162.788 151.888 162.632 151.476 162.32 151.188C162.008 150.9 161.592 150.756 161.072 150.756C160.536 150.756 160.084 150.908 159.716 151.212C159.356 151.516 159.112 151.94 158.984 152.484L158.108 152.292C158.212 151.804 158.4 151.384 158.672 151.032C158.944 150.68 159.284 150.408 159.692 150.216C160.1 150.016 160.556 149.916 161.06 149.916C161.596 149.916 162.064 150.024 162.464 150.24C162.864 150.456 163.176 150.752 163.4 151.128C163.632 151.504 163.748 151.936 163.748 152.424C163.748 152.76 163.676 153.084 163.532 153.396C163.396 153.708 163.188 154.044 162.908 154.404C162.628 154.764 162.268 155.184 161.828 155.664L159.56 158.16H163.988V159H158.18ZM168.208 159.144C167.744 159.144 167.316 159.064 166.924 158.904C166.532 158.744 166.188 158.516 165.892 158.22C165.604 157.924 165.384 157.572 165.232 157.164L166 156.804C166.184 157.268 166.472 157.636 166.864 157.908C167.256 158.172 167.704 158.304 168.208 158.304C168.608 158.304 168.964 158.228 169.276 158.076C169.588 157.916 169.832 157.688 170.008 157.392C170.184 157.096 170.272 156.736 170.272 156.312C170.272 155.888 170.18 155.528 169.996 155.232C169.82 154.936 169.576 154.712 169.264 154.56C168.952 154.408 168.596 154.332 168.196 154.332C168.092 154.332 167.976 154.336 167.848 154.344C167.728 154.352 167.628 154.364 167.548 154.38L167.356 153.96L169.768 150.9H165.652V150.06H170.848V150.9L168.592 153.744L168.472 153.588C169.008 153.604 169.484 153.732 169.9 153.972C170.316 154.204 170.64 154.52 170.872 154.92C171.112 155.32 171.232 155.784 171.232 156.312C171.232 156.84 171.104 157.32 170.848 157.752C170.592 158.176 170.236 158.516 169.78 158.772C169.324 159.02 168.8 159.144 168.208 159.144Z" fill="#7C8FAC"/>
<path d="M324.555 113.5C327.562 113.5 330.031 111.055 329.701 108.066C328.832 100.198 326.085 92.6249 321.658 85.9993C316.219 77.859 308.488 71.5145 299.443 67.768C290.398 64.0214 280.445 63.0412 270.843 64.9511C261.241 66.8611 252.421 71.5755 245.498 78.4982C238.576 85.4209 233.861 94.241 231.951 103.843C230.041 113.445 231.021 123.398 234.768 132.443C238.515 141.488 244.859 149.219 252.999 154.658C259.625 159.085 267.198 161.832 275.066 162.701C278.055 163.031 280.5 160.562 280.5 157.555V157.555C280.5 154.548 278.05 152.149 275.073 151.727C269.363 150.916 263.883 148.833 259.049 145.603C252.7 141.361 247.751 135.33 244.829 128.275C241.907 121.22 241.142 113.457 242.632 105.968C244.122 98.478 247.799 91.5983 253.199 86.1986C258.598 80.7989 265.478 77.1217 272.968 75.6319C280.457 74.1421 288.22 74.9067 295.275 77.829C302.33 80.7513 308.361 85.7001 312.603 92.0494C315.833 96.883 317.916 102.363 318.727 108.073C319.149 111.05 321.548 113.5 324.555 113.5V113.5Z" fill="#F9F9FD"/>
<path d="M254.565 149.112C252.795 151.543 253.318 154.978 255.928 156.471C262.8 160.4 270.539 162.638 278.501 162.96C288.283 163.355 297.963 160.841 306.316 155.735C314.669 150.629 321.321 143.161 325.43 134.274C328.774 127.041 330.311 119.134 329.948 111.226C329.81 108.222 326.991 106.19 324.02 106.657V106.657C321.05 107.124 319.061 109.917 319.106 112.924C319.192 118.69 317.985 124.427 315.545 129.704C312.34 136.635 307.152 142.46 300.637 146.443C294.121 150.426 286.571 152.387 278.941 152.078C273.132 151.844 267.476 150.302 262.383 147.596C259.728 146.185 256.335 146.681 254.565 149.112V149.112Z" fill="#EDEAFF"/>
<path d="M324.555 113.5C327.562 113.5 330.031 111.055 329.701 108.066C329.189 103.431 328.024 98.8822 326.232 94.5572C323.744 88.5516 320.098 83.0947 315.502 78.4982C310.905 73.9017 305.448 70.2556 299.443 67.768C295.118 65.9765 290.569 64.8111 285.934 64.2992C282.945 63.969 280.5 66.4378 280.5 69.445V69.445C280.5 72.4522 282.95 74.8506 285.927 75.2733C289.131 75.7282 292.272 76.5851 295.275 77.829C299.96 79.7693 304.216 82.6133 307.801 86.1986C311.387 89.7839 314.231 94.0402 316.171 98.7246C317.415 101.728 318.272 104.869 318.727 108.073C319.149 111.05 321.548 113.5 324.555 113.5V113.5Z" fill="#5D87FF"/>
</svg>
