<svg width="32" height="24" viewBox="0 0 32 24" fill="none" xmlns="http://www.w3.org/2000/svg">
<g clip-path="url(#clip0_21817_22239)">
<path d="M31.5482 19.1018C31.5482 21.7455 29.3955 23.8981 26.7519 23.8981H0.655518V4.90177C0.655518 2.25814 2.80819 0.105469 5.45182 0.105469H31.5482V19.1018Z" fill="white"/>
<path d="M23.051 14.2307H25.0337C25.0904 14.2307 25.2226 14.2119 25.2792 14.2119C25.6569 14.1363 25.9779 13.7964 25.9779 13.3244C25.9779 12.8712 25.6569 12.5313 25.2792 12.4369C25.2226 12.418 25.1093 12.418 25.0337 12.418H23.051V14.2307Z" fill="url(#paint0_linear_21817_22239)"/>
<path d="M24.8074 1.71094C22.9191 1.71094 21.3707 3.24047 21.3707 5.14766V8.71656H26.2236C26.3369 8.71656 26.4691 8.71656 26.5635 8.73544C27.6588 8.79209 28.4707 9.35858 28.4707 10.3405C28.4707 11.1147 27.9231 11.7756 26.9034 11.9078V11.9456C28.0175 12.0211 28.8673 12.6442 28.8673 13.6073C28.8673 14.6458 27.9231 15.3256 26.6768 15.3256H21.3518V22.3124H26.3936C28.2819 22.3124 29.8303 20.7828 29.8303 18.8756V1.71094H24.8074Z" fill="url(#paint1_linear_21817_22239)"/>
<path d="M25.7324 10.5652C25.7324 10.112 25.4114 9.80991 25.0337 9.75326C24.996 9.75326 24.9016 9.73438 24.8449 9.73438H23.051V11.3961H24.8449C24.9016 11.3961 25.0149 11.3961 25.0337 11.3772C25.4114 11.3206 25.7324 11.0184 25.7324 10.5652Z" fill="url(#paint2_linear_21817_22239)"/>
<path d="M5.81034 1.71094C3.92203 1.71094 2.37362 3.24047 2.37362 5.14766V13.6262C3.33666 14.0982 4.33746 14.4004 5.33826 14.4004C6.52789 14.4004 7.16992 13.6828 7.16992 12.7009V8.69767H10.1157V12.682C10.1157 14.2304 9.15264 15.4956 5.88587 15.4956C3.90315 15.4956 2.35474 15.0613 2.35474 15.0613V22.2935H7.39652C9.28482 22.2935 10.8332 20.764 10.8332 18.8568V1.71094H5.81034Z" fill="url(#paint3_linear_21817_22239)"/>
<path d="M15.309 1.71094C13.4207 1.71094 11.8723 3.24047 11.8723 5.14766V9.64183C12.7409 8.90539 14.2516 8.43331 16.6875 8.54661C17.9904 8.60326 19.3878 8.96204 19.3878 8.96204V10.416C18.6891 10.0573 17.8582 9.73624 16.7819 9.66071C14.9314 9.52853 13.8173 10.4349 13.8173 12.0211C13.8173 13.6262 14.9314 14.5325 16.7819 14.3815C17.8582 14.3059 18.6891 13.966 19.3878 13.6262V15.0802C19.3878 15.0802 18.0093 15.4389 16.6875 15.4956C14.2516 15.6089 12.7409 15.1368 11.8723 14.4004V22.3312H16.9141C18.8024 22.3312 20.3508 20.8017 20.3508 18.8945V1.71094H15.309Z" fill="url(#paint4_linear_21817_22239)"/>
</g>
<defs>
<linearGradient id="paint0_linear_21817_22239" x1="21.3673" y1="13.3266" x2="29.8528" y2="13.3266" gradientUnits="userSpaceOnUse">
<stop stop-color="#007940"/>
<stop offset="0.2285" stop-color="#00873F"/>
<stop offset="0.7433" stop-color="#40A737"/>
<stop offset="1" stop-color="#5CB531"/>
</linearGradient>
<linearGradient id="paint1_linear_21817_22239" x1="21.3673" y1="12.0034" x2="29.8535" y2="12.0034" gradientUnits="userSpaceOnUse">
<stop stop-color="#007940"/>
<stop offset="0.2285" stop-color="#00873F"/>
<stop offset="0.7433" stop-color="#40A737"/>
<stop offset="1" stop-color="#5CB531"/>
</linearGradient>
<linearGradient id="paint2_linear_21817_22239" x1="21.3671" y1="10.5629" x2="29.853" y2="10.5629" gradientUnits="userSpaceOnUse">
<stop stop-color="#007940"/>
<stop offset="0.2285" stop-color="#00873F"/>
<stop offset="0.7433" stop-color="#40A737"/>
<stop offset="1" stop-color="#5CB531"/>
</linearGradient>
<linearGradient id="paint3_linear_21817_22239" x1="2.36962" y1="12.0034" x2="10.9865" y2="12.0034" gradientUnits="userSpaceOnUse">
<stop stop-color="#1F286F"/>
<stop offset="0.4751" stop-color="#004E94"/>
<stop offset="0.8261" stop-color="#0066B1"/>
<stop offset="1" stop-color="#006FBC"/>
</linearGradient>
<linearGradient id="paint4_linear_21817_22239" x1="11.8235" y1="12.0034" x2="20.1925" y2="12.0034" gradientUnits="userSpaceOnUse">
<stop stop-color="#6C2C2F"/>
<stop offset="0.1735" stop-color="#882730"/>
<stop offset="0.5731" stop-color="#BE1833"/>
<stop offset="0.8585" stop-color="#DC0436"/>
<stop offset="1" stop-color="#E60039"/>
</linearGradient>
<clipPath id="clip0_21817_22239">
<rect width="31.1" height="24" fill="white" transform="translate(0.551758)"/>
</clipPath>
</defs>
</svg>
