<svg width="91" height="24" viewBox="0 0 91 24" fill="none" xmlns="http://www.w3.org/2000/svg">
<g clip-path="url(#clip0_21817_22208)">
<path d="M29.1754 4.80078C28.9891 4.80078 28.8308 4.93604 28.8017 5.12021L26.6451 18.7969C26.6373 18.8468 26.6403 18.8979 26.6541 18.9465C26.6679 18.9952 26.6921 19.0403 26.7249 19.0787C26.7578 19.1172 26.7986 19.148 26.8445 19.1692C26.8904 19.1903 26.9404 19.2013 26.991 19.2013H29.5486C29.7346 19.2013 29.8931 19.0658 29.9223 18.8819L30.5558 14.8656C30.5846 14.6817 30.7432 14.5462 30.9295 14.5462H33.2547C35.9716 14.5462 38.2779 12.5638 38.6992 9.8777C39.124 7.16884 37.0077 4.80666 34.0083 4.80078H29.1754ZM31.6616 7.85394H33.522C35.0537 7.85394 35.5525 8.7577 35.3948 9.75715C35.2371 10.7587 34.4624 11.4965 32.9808 11.4965H31.0872L31.6616 7.85394ZM43.901 8.78362C43.2552 8.78603 42.5121 8.91834 41.6778 9.26584C39.7642 10.0635 38.8452 11.7119 38.4549 12.9138C38.4549 12.9138 37.2127 16.5804 40.0192 18.5948C40.0192 18.5948 42.6219 20.5341 45.5518 18.4753L45.5013 18.7969C45.4935 18.8468 45.4966 18.8978 45.5103 18.9464C45.5241 18.995 45.5482 19.0401 45.581 19.0785C45.6138 19.1169 45.6545 19.1478 45.7004 19.169C45.7462 19.1902 45.7961 19.2012 45.8467 19.2013H48.2746C48.4609 19.2013 48.6192 19.0658 48.6483 18.8819L50.1252 9.51604C50.1331 9.46608 50.1301 9.41501 50.1164 9.36632C50.1027 9.31764 50.0786 9.2725 50.0457 9.23402C50.0129 9.19554 49.9722 9.16462 49.9263 9.1434C49.8803 9.12217 49.8304 9.11114 49.7798 9.11107H47.3519C47.1656 9.11107 47.007 9.2466 46.9782 9.4305L46.8988 9.93464C46.8988 9.93464 45.8387 8.77641 43.901 8.78362ZM43.9803 11.7419C44.2591 11.7419 44.5142 11.7804 44.743 11.8539C45.7905 12.1902 46.3845 13.1966 46.2126 14.2874C46.0006 15.6306 44.8991 16.6197 43.4864 16.6197C43.2078 16.6197 42.9528 16.5814 42.7238 16.5079C41.6765 16.1717 41.0788 15.1653 41.2506 14.0744C41.4626 12.7312 42.5676 11.7419 43.9803 11.7419Z" fill="#003087"/>
<path d="M64.139 4.80078C63.9527 4.80078 63.7945 4.93604 63.7653 5.12021L61.6087 18.7969C61.6009 18.8468 61.604 18.8979 61.6177 18.9465C61.6315 18.9952 61.6557 19.0403 61.6886 19.0787C61.7214 19.1172 61.7622 19.148 61.8082 19.1692C61.8541 19.1903 61.904 19.2013 61.9546 19.2013H64.5122C64.6982 19.2013 64.8567 19.0658 64.8859 18.8819L65.5194 14.8656C65.5483 14.6817 65.7068 14.5462 65.8931 14.5462H68.2184C70.9353 14.5462 73.2413 12.5638 73.6623 9.8777C74.0873 7.16884 71.9713 4.80666 68.9719 4.80078H64.139ZM66.6252 7.85394H68.4857C70.0173 7.85394 70.5161 8.7577 70.3584 9.75715C70.2007 10.7587 69.4263 11.4965 67.9444 11.4965H66.0508L66.6252 7.85394ZM78.8643 8.78362C78.2185 8.78603 77.4754 8.91834 76.6411 9.26584C74.7275 10.0635 73.8085 11.7119 73.4182 12.9138C73.4182 12.9138 72.1766 16.5804 74.9831 18.5948C74.9831 18.5948 77.5853 20.5341 80.5155 18.4753L80.4649 18.7969C80.4571 18.8468 80.4602 18.8979 80.474 18.9465C80.4877 18.9952 80.5119 19.0403 80.5448 19.0787C80.5776 19.1172 80.6184 19.148 80.6644 19.1692C80.7103 19.1903 80.7603 19.2013 80.8108 19.2013H83.2385C83.4248 19.2013 83.5831 19.0658 83.6122 18.8819L85.0896 9.51604C85.0975 9.46604 85.0945 9.41492 85.0808 9.3662C85.067 9.31747 85.0429 9.27231 85.01 9.23382C84.9771 9.19533 84.9363 9.16442 84.8903 9.14323C84.8443 9.12204 84.7943 9.11107 84.7437 9.11107H82.3158C82.1294 9.11107 81.9709 9.2466 81.9421 9.4305L81.8627 9.93464C81.8627 9.93464 80.802 8.77641 78.8643 8.78362ZM78.9437 11.7419C79.2225 11.7419 79.4775 11.7804 79.7063 11.8539C80.7539 12.1902 81.3479 13.1966 81.176 14.2874C80.964 15.6306 79.8624 16.6197 78.4497 16.6197C78.1712 16.6197 77.9162 16.5814 77.6871 16.5079C76.6398 16.1717 76.0421 15.1653 76.214 14.0744C76.426 12.7312 77.531 11.7419 78.9437 11.7419Z" fill="#0070E0"/>
<path d="M51.2775 9.10964C51.085 9.10964 50.9481 9.29756 51.0069 9.48066L53.6688 17.7406L51.2619 21.6331C51.1451 21.8221 51.2809 22.0662 51.5031 22.0662H54.3477C54.4291 22.0661 54.509 22.0451 54.5799 22.0051C54.6507 21.9651 54.71 21.9075 54.7521 21.8379L62.1862 9.54C62.3003 9.35102 62.164 9.10938 61.9432 9.10938H59.0988C59.0167 9.10945 58.9359 9.1309 58.8646 9.17163C58.7933 9.21236 58.7338 9.27096 58.692 9.34166L55.7658 14.282L54.2804 9.37828C54.232 9.2187 54.0847 9.10938 53.9182 9.10938L51.2775 9.10964Z" fill="#003087"/>
<path d="M87.8477 4.80078C87.6616 4.80078 87.5031 4.9363 87.474 5.12021L85.3168 18.7963C85.3089 18.8463 85.3119 18.8974 85.3257 18.9462C85.3394 18.9949 85.3635 19.0401 85.3964 19.0785C85.4293 19.117 85.4701 19.1479 85.5161 19.1691C85.5621 19.1903 85.6121 19.2013 85.6627 19.2013H88.2203C88.4063 19.2013 88.5648 19.0658 88.594 18.8819L90.7506 5.20521C90.7584 5.1553 90.7554 5.10428 90.7416 5.05566C90.7279 5.00705 90.7037 4.96198 90.6709 4.92356C90.6381 4.88513 90.5974 4.85427 90.5515 4.83307C90.5057 4.81188 90.4558 4.80087 90.4052 4.80078H87.8477Z" fill="#0070E0"/>
<path d="M7.85338 4.80078C7.68863 4.80092 7.52933 4.8598 7.4041 4.96686C7.27887 5.07391 7.1959 5.22212 7.17014 5.38484L6.03491 12.585C6.08784 12.2487 6.37759 12.0009 6.71814 12.0009H10.0447C13.3927 12.0009 16.2336 9.55854 16.7528 6.24877C16.7914 6.00167 16.8133 5.75224 16.8183 5.50219C15.9674 5.05606 14.968 4.80078 13.8728 4.80078H7.85338Z" fill="#001C64"/>
<path d="M16.8181 5.5C16.8131 5.75005 16.7912 5.99948 16.7526 6.24658C16.2334 9.55635 13.3923 11.9987 10.0445 11.9987H6.71793C6.37766 11.9987 6.08764 12.2462 6.03471 12.5828L4.99088 19.1991L4.33705 23.3498C4.32429 23.43 4.32908 23.512 4.35109 23.5902C4.3731 23.6683 4.41181 23.7408 4.46454 23.8025C4.51727 23.8643 4.58277 23.9139 4.65652 23.9479C4.73027 23.9818 4.81051 23.9994 4.89172 23.9994H8.50247C8.66722 23.9992 8.82652 23.9403 8.95175 23.8333C9.07698 23.7262 9.15993 23.578 9.18569 23.4153L10.1368 17.383C10.1625 17.2202 10.2456 17.0719 10.3709 16.9649C10.4963 16.8578 10.6557 16.799 10.8205 16.799H12.9464C16.2944 16.799 19.1353 14.3566 19.6544 11.0468C20.023 8.69777 18.84 6.56013 16.8181 5.5Z" fill="#0070E0"/>
<path d="M3.75118 0C3.4109 0 3.12088 0.247524 3.06795 0.583527L0.234513 18.5507C0.180784 18.8918 0.444354 19.2002 0.789712 19.2002H4.99148L6.03477 12.5839L7.17 5.38379C7.19576 5.22106 7.27873 5.07286 7.40396 4.9658C7.52919 4.85875 7.68849 4.79986 7.85324 4.79973H13.8727C14.9681 4.79973 15.9673 5.05527 16.8181 5.50113C16.8764 2.48781 14.3899 0 10.9713 0H3.75118Z" fill="#003087"/>
</g>
<defs>
<clipPath id="clip0_21817_22208">
<rect width="90.5273" height="24" fill="white" transform="translate(0.227539)"/>
</clipPath>
</defs>
</svg>
