<svg width="81" height="34" viewBox="0 0 81 34" fill="none" xmlns="http://www.w3.org/2000/svg">
<g clip-path="url(#clip0_21817_22125)">
<path d="M7.73608 9.75H10.4861L9.11108 6.25L7.73608 9.75Z" fill="#2FABF7"/>
<path d="M41.8611 6.75C41.6111 6.625 41.2361 6.625 40.8611 6.625H38.3611V8.625H40.8611C41.2361 8.625 41.6111 8.625 41.8611 8.5C42.1111 8.375 42.2361 8 42.2361 7.625C42.3611 7.125 42.1111 6.875 41.8611 6.75Z" fill="#228FE0"/>
<path d="M68.6111 3V4.5L67.8611 3H61.9861V4.5L61.2361 3H53.2361C51.8611 3 50.7361 3.25 49.7361 3.75V3H44.1111V3.75C43.4861 3.25 42.7361 3 41.7361 3H21.6111L20.2361 6.125L18.8611 3H12.4861V4.5L11.7361 3H6.36108L3.86108 8.875L0.986084 15.375H3.86108H7.36108L8.11108 13.375H9.86108L10.6111 15.375H17.8611V13.875L18.4861 15.375H22.1111L22.7361 13.875V15.375H40.1111V12.125H40.3611C40.6111 12.125 40.6111 12.125 40.6111 12.5V15.25H49.6111V14.5C50.3611 14.875 51.4861 15.25 52.9861 15.25H56.7361L57.4861 13.25H59.2361L59.9861 15.25H67.2361V13.375L68.3611 15.25H74.2361V3H68.6111ZM26.3611 13.5H24.2361V6.625L21.2361 13.5H19.3611L16.3611 6.625V13.5H12.1111L11.2361 11.625H6.98608L6.23608 13.625H3.86108L7.61108 4.75H10.7361L14.2361 13.125V4.75H17.6111L20.3611 10.75L22.8611 4.75H26.3611V13.5ZM34.8611 6.625H29.9861V8.25H34.7361V10H29.9861V11.75H34.8611V13.625H27.8611V4.75H34.8611V6.625ZM44.2361 10.25C44.4861 10.75 44.6111 11.125 44.6111 11.875V13.625H42.4861V12.5C42.4861 12 42.4861 11.25 42.1111 10.75C41.7361 10.375 41.3611 10.375 40.6111 10.375H38.3611V13.625H36.2361V4.75H40.9861C42.1111 4.75 42.8611 4.75 43.4861 5.125C44.1111 5.5 44.4861 6.125 44.4861 7.125C44.4861 8.5 43.6111 9.25 42.9861 9.5C43.6111 9.625 43.9861 10 44.2361 10.25ZM47.9861 13.5H45.8611V4.625H47.9861V13.5ZM72.6111 13.5H69.6111L65.6111 6.875V13.5H61.3611L60.6111 11.625H56.2361L55.4861 13.625H53.1111C52.1111 13.625 50.8611 13.375 50.1111 12.625C49.3611 11.875 48.9861 10.875 48.9861 9.25C48.9861 8 49.2361 6.75 50.1111 5.75C50.7361 5 51.8611 4.75 53.2361 4.75H55.2361V6.625H53.2361C52.4861 6.625 52.1111 6.75 51.6111 7.125C51.2361 7.5 50.9861 8.25 50.9861 9.125C50.9861 10.125 51.1111 10.75 51.6111 11.25C51.9861 11.625 52.4861 11.75 53.1111 11.75H53.9861L56.8611 4.875H59.9861L63.4861 13.25V4.875H66.6111L70.2361 11V4.875H72.3611V13.5H72.6111Z" fill="#0571C1"/>
<path d="M56.9861 9.75H59.8611L58.4861 6.25L56.9861 9.75Z" fill="#228FE0"/>
<path d="M35.7361 27.75V20.625L32.4861 24.125L35.7361 27.75Z" fill="#228FE0"/>
<path d="M22.3611 21.5V23.125H26.9861V24.875H22.3611V26.75H27.4861L29.8611 24.125L27.6111 21.5H22.3611Z" fill="#2FABF7"/>
<path d="M40.4861 21.5H37.8611V23.75H40.6111C41.3611 23.75 41.8611 23.375 41.8611 22.625C41.7361 21.875 41.2361 21.5 40.4861 21.5Z" fill="#228FE0"/>
<path d="M79.1111 23.625V18H77.6111H73.8611C72.7361 18 71.8611 18.25 71.2361 18.75V18H65.4861C64.6111 18 63.4861 18.25 62.9861 18.75V18H52.8611V18.75C52.1111 18.125 50.7361 18 50.1111 18H43.3611V18.75C42.7361 18.125 41.2361 18 40.4861 18H32.9861L31.2361 19.875L29.6111 18H18.3611V30.25H29.3611L31.1111 28.375L32.7361 30.25H39.4861V27.375H40.3611C41.2361 27.375 42.3611 27.375 43.2361 27V30.375H48.8611V27.125H49.1111C49.4861 27.125 49.4861 27.125 49.4861 27.5V30.375H66.4861C67.6111 30.375 68.7361 30.125 69.3611 29.625V30.375H74.7361C75.8611 30.375 76.9861 30.25 77.7361 29.75C78.9861 29 79.7361 27.625 79.7361 26C79.7361 25.125 79.4861 24.25 79.1111 23.625ZM40.3611 25.625H37.8611V28.625H33.8611L31.3611 25.75L28.7361 28.625H20.4861V19.75H28.8611L31.3611 22.625L33.9861 19.75H40.6111C42.2361 19.75 44.1111 20.25 44.1111 22.625C43.9861 25.125 42.2361 25.625 40.3611 25.625ZM52.8611 25.125C53.1111 25.5 53.2361 26 53.2361 26.75V28.5H51.1111V27.375C51.1111 26.875 51.1111 26 50.7361 25.625C50.4861 25.25 49.9861 25.25 49.2361 25.25H46.9861V28.5H44.8611V19.625H49.6111C50.6111 19.625 51.4861 19.625 52.1111 20C52.7361 20.375 53.2361 21 53.2361 22C53.2361 23.375 52.3611 24.125 51.7361 24.375C52.3611 24.625 52.7361 24.875 52.8611 25.125ZM61.4861 21.5H56.6111V23.125H61.3611V24.875H56.6111V26.625H61.4861V28.5H54.4861V19.625H61.4861V21.5ZM66.7361 28.5H62.7361V26.625H66.7361C67.1111 26.625 67.3611 26.625 67.6111 26.375C67.7361 26.25 67.8611 26 67.8611 25.75C67.8611 25.5 67.7361 25.25 67.6111 25.125C67.4861 25 67.2361 24.875 66.8611 24.875C64.8611 24.75 62.4861 24.875 62.4861 22.125C62.4861 20.875 63.2361 19.5 65.4861 19.5H69.6111V21.625H65.7361C65.3611 21.625 65.1111 21.625 64.8611 21.75C64.6111 21.875 64.6111 22.125 64.6111 22.375C64.6111 22.75 64.8611 22.875 65.1111 23C65.3611 23.125 65.6111 23.125 65.8611 23.125H66.9861C68.1111 23.125 68.8611 23.375 69.3611 23.875C69.7361 24.25 69.9861 24.875 69.9861 25.75C69.9861 27.625 68.8611 28.5 66.7361 28.5ZM77.4861 27.625C76.9861 28.125 76.1111 28.5 74.8611 28.5H70.8611V26.625H74.8611C75.2361 26.625 75.4861 26.625 75.7361 26.375C75.8611 26.25 75.9861 26 75.9861 25.75C75.9861 25.5 75.8611 25.25 75.7361 25.125C75.6111 25 75.3611 24.875 74.9861 24.875C72.9861 24.75 70.6111 24.875 70.6111 22.125C70.6111 20.875 71.3611 19.5 73.6111 19.5H77.7361V21.625H73.9861C73.6111 21.625 73.3611 21.625 73.1111 21.75C72.8611 21.875 72.8611 22.125 72.8611 22.375C72.8611 22.75 72.9861 22.875 73.3611 23C73.6111 23.125 73.8611 23.125 74.1111 23.125H75.2361C76.3611 23.125 77.1111 23.375 77.6111 23.875C77.7361 23.875 77.7361 24 77.7361 24C78.1111 24.5 78.2361 25.125 78.2361 25.75C78.2361 26.5 77.9861 27.125 77.4861 27.625Z" fill="#0571C1"/>
<path d="M50.6111 21.75C50.3611 21.625 49.9861 21.625 49.6111 21.625H47.1111V23.625H49.6111C49.9861 23.625 50.3611 23.625 50.6111 23.5C50.8611 23.375 50.9861 23 50.9861 22.625C51.1111 22.125 50.8611 21.875 50.6111 21.75Z" fill="#228FE0"/>
<path d="M41.8611 6.75C41.6111 6.625 41.2361 6.625 40.8611 6.625H38.3611V8.625H40.8611C41.2361 8.625 41.6111 8.625 41.8611 8.5C42.1111 8.375 42.2361 8 42.2361 7.625C42.3611 7.125 42.1111 6.875 41.8611 6.75Z" fill="#228FE0"/>
<path d="M56.9861 9.75H59.8611L58.4861 6.25L56.9861 9.75Z" fill="#228FE0"/>
<path d="M35.7361 27.75V20.625L32.4861 24.125L35.7361 27.75Z" fill="#228FE0"/>
<path d="M40.4861 21.5H37.8611V23.75H40.6111C41.3611 23.75 41.8611 23.375 41.8611 22.625C41.7361 21.875 41.2361 21.5 40.4861 21.5Z" fill="#228FE0"/>
<path d="M50.6111 21.75C50.3611 21.625 49.9861 21.625 49.6111 21.625H47.1111V23.625H49.6111C49.9861 23.625 50.3611 23.625 50.6111 23.5C50.8611 23.375 50.9861 23 50.9861 22.625C51.1111 22.125 50.8611 21.875 50.6111 21.75Z" fill="#228FE0"/>
<path d="M39.6111 28.25L37.8611 26.375V28.5H33.7361L31.2361 25.625L28.4861 28.5H20.2361V19.75H28.6111L31.2361 22.625L32.4861 21.125L29.3611 18H18.3611V30.25H29.3611L31.2361 28.375L32.8611 30.25H39.6111V28.25Z" fill="#2FABF7"/>
<path d="M26.6111 15.25L24.9861 13.5H24.2361V12.75L22.3611 10.875L21.1111 13.5H19.3611L16.3611 6.625V13.5H12.1111L11.2361 11.625H6.98608L6.11108 13.5H3.86108L7.61108 4.75H10.7361L14.2361 13.125V4.75H16.1111L14.3611 3H12.4861V4.5L11.8611 3H6.36108L3.86108 8.875L0.986084 15.25H3.86108H7.48608L8.23608 13.375H9.98608L10.8611 15.25H17.8611V13.75L18.4861 15.25H22.1111L22.7361 13.75V15.25H26.6111Z" fill="#2FABF7"/>
<path d="M20.8611 9.5L18.8611 7.5L20.3611 10.75L20.8611 9.5Z" fill="#2FABF7"/>
<path d="M77.7361 29.625C78.8611 28.875 79.6111 27.625 79.7361 26.25L77.9861 24.5C78.1111 24.875 78.2361 25.25 78.2361 25.75C78.2361 26.5 77.9861 27.125 77.4861 27.625C76.9861 28.125 76.1111 28.5 74.8611 28.5H70.8611V26.625H74.8611C75.2361 26.625 75.4861 26.625 75.7361 26.375C75.8611 26.25 75.9861 26 75.9861 25.75C75.9861 25.5 75.8611 25.25 75.7361 25.125C75.6111 25 75.3611 24.875 74.9861 24.875C72.9861 24.75 70.6111 24.875 70.6111 22.125C70.6111 20.875 71.3611 19.75 73.2361 19.5L71.8611 18.125C71.6111 18.25 71.4861 18.375 71.3611 18.375V17.625H65.6111C64.7361 17.625 63.6111 17.875 63.1111 18.375V17.625H52.8611V18.375C52.1111 17.75 50.7361 17.625 50.1111 17.625H43.3611V18.375C42.7361 17.75 41.2361 17.625 40.4861 17.625H32.9861L31.2361 19.5L29.6111 17.625H28.2361L31.9861 21.375L33.8611 19.375H40.4861C42.1111 19.375 43.9861 19.875 43.9861 22.25C43.9861 24.75 42.2361 25.25 40.3611 25.25H37.8611V27.125L39.7361 29V27.125H40.3611C41.2361 27.125 42.3611 27.125 43.2361 26.75V30.125H48.8611V26.875H49.1111C49.4861 26.875 49.4861 26.875 49.4861 27.25V30.125H66.4861C67.6111 30.125 68.7361 29.875 69.3611 29.375V30.125H74.7361C75.7361 30.25 76.8611 30.125 77.7361 29.625ZM52.8611 25.125C53.1111 25.5 53.2361 26 53.2361 26.75V28.5H51.1111V27.375C51.1111 26.875 51.1111 26 50.7361 25.625C50.4861 25.25 49.9861 25.25 49.2361 25.25H46.9861V28.5H44.8611V19.625H49.6111C50.6111 19.625 51.4861 19.625 52.1111 20C52.7361 20.375 53.2361 21 53.2361 22C53.2361 23.375 52.3611 24.125 51.7361 24.375C52.3611 24.625 52.7361 24.875 52.8611 25.125ZM61.4861 21.5H56.6111V23.125H61.3611V24.875H56.6111V26.625H61.4861V28.5H54.4861V19.625H61.4861V21.5ZM66.7361 28.5H62.7361V26.625H66.7361C67.1111 26.625 67.3611 26.625 67.6111 26.375C67.7361 26.25 67.8611 26 67.8611 25.75C67.8611 25.5 67.7361 25.25 67.6111 25.125C67.4861 25 67.2361 24.875 66.8611 24.875C64.8611 24.75 62.4861 24.875 62.4861 22.125C62.4861 20.875 63.2361 19.5 65.4861 19.5H69.6111V21.625H65.7361C65.3611 21.625 65.1111 21.625 64.8611 21.75C64.6111 21.875 64.6111 22.125 64.6111 22.375C64.6111 22.75 64.8611 22.875 65.1111 23C65.3611 23.125 65.6111 23.125 65.8611 23.125H66.9861C68.1111 23.125 68.8611 23.375 69.3611 23.875C69.7361 24.25 69.9861 24.875 69.9861 25.75C69.9861 27.625 68.8611 28.5 66.7361 28.5Z" fill="#228FE0"/>
<path d="M72.7361 22.375C72.7361 22.75 72.8611 22.875 73.2361 23C73.4861 23.125 73.7361 23.125 73.9861 23.125H75.1111C75.8611 23.125 76.3611 23.25 76.8611 23.5L74.9861 21.625H73.8611C73.4861 21.625 73.2361 21.625 72.9861 21.75C72.8611 21.875 72.7361 22.125 72.7361 22.375Z" fill="#228FE0"/>
<path d="M68.3611 14.875L68.6111 15.25H68.7361L68.3611 14.875Z" fill="#228FE0"/>
<path d="M61.4861 8L63.6111 13.125V10.125L61.4861 8Z" fill="#228FE0"/>
<path d="M40.1111 12.125H40.3611C40.6111 12.125 40.6111 12.125 40.6111 12.5V15.25H49.6111V14.5C50.3611 14.875 51.4861 15.25 52.9861 15.25H56.7361L57.4861 13.25H59.2361L59.9861 15.25H67.2361V14L65.4861 12.25V13.625H61.2361L60.6111 11.625H56.2361L55.4861 13.625H53.1111C52.1111 13.625 50.8611 13.375 50.1111 12.625C49.3611 11.875 48.9861 10.875 48.9861 9.25C48.9861 8 49.2361 6.75 50.1111 5.75C50.7361 5 51.8611 4.75 53.2361 4.75H55.2361V6.625H53.2361C52.4861 6.625 52.1111 6.75 51.6111 7.125C51.2361 7.5 50.9861 8.25 50.9861 9.125C50.9861 10.125 51.1111 10.75 51.6111 11.25C51.9861 11.625 52.4861 11.75 53.1111 11.75H53.9861L56.8611 4.875H58.1111L56.3611 3.125H53.1111C51.7361 3.125 50.6111 3.375 49.6111 3.875V3.125H44.1111V3.875C43.4861 3.375 42.7361 3.125 41.7361 3.125H21.6111L20.2361 6.25L18.8611 3.125H13.3611L15.1111 4.875H17.6111L19.7361 9.5L20.4861 10.25L22.7361 4.75H26.2361V13.625H24.1111V6.75L21.9861 11.75L25.6111 15.375H39.9861L40.1111 12.125ZM45.8611 4.75H47.9861V13.625H45.8611V4.75ZM34.8611 6.625H29.9861V8.25H34.7361V10H29.9861V11.75H34.8611V13.625H27.8611V4.75H34.8611V6.625ZM38.3611 13.5H36.2361V4.625H40.9861C42.1111 4.625 42.8611 4.625 43.4861 5C44.1111 5.375 44.4861 6 44.4861 7C44.4861 8.375 43.6111 9.125 42.9861 9.375C43.4861 9.5 43.8611 9.875 43.9861 10.125C44.2361 10.625 44.3611 11 44.3611 11.75V13.5H42.2361V12.375C42.2361 11.875 42.2361 11.125 41.8611 10.625C41.7361 10.375 41.3611 10.375 40.6111 10.375H38.3611V13.5Z" fill="#228FE0"/>
</g>
<defs>
<clipPath id="clip0_21817_22125">
<rect width="80" height="34" fill="white" transform="translate(0.193115)"/>
</clipPath>
</defs>
</svg>
