<svg width="63" height="20" viewBox="0 0 63 20" fill="none" xmlns="http://www.w3.org/2000/svg">
<g clip-path="url(#clip0_21817_22085)">
<path d="M27.5075 19.7121H22.5015L25.6326 0.351562H30.6383L27.5075 19.7121Z" fill="#00579F"/>
<path d="M45.6551 0.824255C44.6677 0.432522 43.1016 0 41.1651 0C36.2215 0 32.7403 2.63619 32.7189 6.40515C32.6778 9.18588 35.2114 10.7304 37.1063 11.6575C39.043 12.605 39.7014 13.2234 39.7014 14.0679C39.6817 15.3649 38.1364 15.9628 36.6951 15.9628C34.6965 15.9628 33.6256 15.6545 31.9981 14.9329L31.3389 14.6236L30.6384 18.9696C31.8125 19.5045 33.9757 19.9792 36.2215 20C41.4742 20 44.8938 17.4046 44.9344 13.3882C44.9543 11.1842 43.6165 9.49549 40.7323 8.11552C38.9814 7.22968 37.9092 6.63236 37.9092 5.72598C37.9297 4.902 38.8161 4.05804 40.7926 4.05804C42.42 4.0167 43.6157 4.40789 44.5215 4.79934L44.9743 5.00493L45.6551 0.824255Z" fill="#00579F"/>
<path d="M52.3081 12.8533C52.7204 11.7411 54.3068 7.43643 54.3068 7.43643C54.286 7.47776 54.7182 6.30366 54.9654 5.58288L55.3152 7.2511C55.3152 7.2511 56.2632 11.8854 56.4691 12.8533C55.6867 12.8533 53.2969 12.8533 52.3081 12.8533ZM58.4874 0.351562H54.6153C53.4212 0.351562 52.514 0.701412 51.9988 1.95791L44.563 19.7118H49.8157C49.8157 19.7118 50.6804 17.3223 50.8663 16.8076C51.4425 16.8076 56.5523 16.8076 57.2936 16.8076C57.4373 17.4873 57.8909 19.7118 57.8909 19.7118H62.526L58.4874 0.351562Z" fill="#00579F"/>
<path d="M18.3209 0.351562L13.4183 13.5536L12.8826 10.8761C11.9762 7.78655 9.13361 4.42986 5.96143 2.76082L10.452 19.6916H15.7457L23.6143 0.351562H18.3209Z" fill="#00579F"/>
<path d="M8.8656 0.351562H0.811402L0.729004 0.742748C7.01179 2.34937 11.1727 6.22208 12.8823 10.8769L11.1314 1.97899C10.8432 0.742474 9.95731 0.392351 8.8656 0.351562Z" fill="#FAA61A"/>
</g>
<defs>
<clipPath id="clip0_21817_22085">
<rect width="61.7974" height="20" fill="white" transform="translate(0.729004)"/>
</clipPath>
</defs>
</svg>
