<svg width="48" height="28" viewBox="0 0 48 28" fill="none" xmlns="http://www.w3.org/2000/svg">
<g clip-path="url(#clip0_21817_22217)">
<path d="M24.1534 24.3774C26.9846 21.8157 28.7541 18.1133 28.7541 13.9985C28.7541 9.88406 26.9846 6.18471 24.1534 3.62259C21.6763 1.37048 18.3663 0 14.7649 0C7.02083 0 0.754883 6.26706 0.754883 13.9985C0.754883 21.7329 7.02083 28 14.7649 28C18.3659 28.0004 21.6759 26.6269 24.1534 24.3774Z" fill="#0066CB"/>
<path d="M24.1536 24.3759C26.9847 21.8142 28.7543 18.1118 28.7543 13.997C28.7543 9.88257 26.9847 6.18321 24.1536 3.62109" fill="#0066CB"/>
<path d="M24.1536 24.3759C26.9847 21.8142 28.7543 18.1118 28.7543 13.997C28.7543 9.88257 26.9847 6.18321 24.1536 3.62109" stroke="#0066CB" stroke-width="0.3097"/>
<path d="M33.563 0C29.9408 0 26.6309 1.37048 24.1537 3.62259C23.654 4.08314 23.1752 4.57799 22.7381 5.10673H25.5693C25.965 5.57586 26.319 6.07068 26.6312 6.58825H21.6765C21.3851 7.06296 21.1146 7.5578 20.8646 8.06978H27.4428C27.6716 8.55046 27.859 9.04493 28.0256 9.55393H20.2814C20.1149 10.0346 19.9692 10.5294 19.8652 11.0354H28.4421C28.6504 11.9908 28.7544 12.9831 28.7544 13.9985C28.7544 15.5534 28.5044 17.0495 28.0256 18.4457H20.2818C20.4484 18.9543 20.6358 19.4492 20.8646 19.9295H27.4428C27.1928 20.4418 26.9431 20.9363 26.6309 21.4114H21.6762C21.9884 21.9289 22.3633 22.4238 22.7381 22.8933H25.5693C25.1322 23.4216 24.6534 23.9165 24.1537 24.377C26.6309 26.6265 29.9408 28 33.563 28C41.2863 28 47.5522 21.7329 47.5522 13.9985C47.5522 6.26706 41.2859 0 33.563 0Z" fill="#CC0001"/>
<path d="M46.0741 21.7752H46.1367C46.1579 21.7752 46.178 21.7782 46.178 21.7693C46.1993 21.7581 46.2198 21.7409 46.2198 21.7242C46.2198 21.7067 46.1989 21.6899 46.178 21.6813C46.178 21.6728 46.1367 21.6754 46.1367 21.6754H46.0741V21.7752ZM46.0741 22.0025H45.991V21.6046H46.1575C46.1989 21.6046 46.2198 21.6046 46.2615 21.6247C46.2824 21.6474 46.3028 21.6843 46.3028 21.7245C46.3028 21.7696 46.282 21.8099 46.2403 21.8263L46.3028 22.0029H46.1989L46.1575 21.8438H46.0737V22.0025H46.0741ZM46.1367 22.1478C46.3241 22.1478 46.4907 21.9943 46.4907 21.8036C46.4907 21.6128 46.3241 21.4592 46.1367 21.4592C45.9496 21.4592 45.8035 21.6128 45.8035 21.8036C45.8035 21.9943 45.9496 22.1478 46.1367 22.1478ZM45.6787 21.8036C45.6787 21.5532 45.887 21.3516 46.1367 21.3516C46.3867 21.3516 46.5946 21.5532 46.5946 21.8036C46.5946 22.054 46.3863 22.2555 46.1367 22.2555C45.887 22.2555 45.6787 22.054 45.6787 21.8036Z" fill="#231F20"/>
<path d="M12.5789 17.8941H10.8093L11.85 12.4371L9.45596 17.8941H7.99866L7.70727 12.4684L6.54172 17.8941H4.93872L6.2917 10.7969H9.06062L9.10198 15.19L11.0172 10.7969H13.9523L12.5789 17.8941Z" fill="#231F20"/>
<path d="M32.0431 17.8233C31.5643 17.9545 31.1895 18.0111 30.7941 18.0111C29.8991 18.0111 29.4199 17.5647 29.4199 16.7431C29.4199 16.581 29.4199 16.4078 29.4613 16.2252L29.5652 15.6595L29.6487 15.2046L30.4606 10.7969H32.1885L31.9388 12.1219H32.8338L32.5842 13.5237H31.6892L31.2312 15.9323C31.2103 16.04 31.2103 16.1171 31.2103 16.1711C31.2103 16.4696 31.3769 16.6004 31.7931 16.6004C32.0014 16.6004 32.1467 16.5836 32.2719 16.5464L32.0431 17.8233Z" fill="#231F20"/>
<path d="M25.132 13.9467C25.132 14.6774 25.5278 15.1783 26.4642 15.5561C27.1721 15.8464 27.2966 15.9317 27.2966 16.1933C27.2966 16.5547 26.9843 16.716 26.2771 16.716C25.7566 16.716 25.2569 16.6456 24.695 16.4861L24.4658 17.8194L24.5284 17.8309L24.8615 17.8905C24.9655 17.9077 25.1116 17.9248 25.3195 17.9416C25.7357 17.9729 26.0688 17.9904 26.2976 17.9904C28.1506 17.9904 29.0043 17.3789 29.0043 16.0625C29.0043 15.2718 28.6503 14.8056 27.7758 14.4554C27.0264 14.1625 26.9434 14.0999 26.9434 13.8301C26.9434 13.5171 27.2347 13.358 27.797 13.358C28.1506 13.358 28.6294 13.3923 29.0665 13.4463L29.3165 12.1097C28.8586 12.0471 28.1715 11.9961 27.7758 11.9961C25.7983 11.9961 25.1112 12.8833 25.132 13.9467Z" fill="#231F20"/>
<path d="M17.0335 15.3249C16.8464 15.3048 16.7629 15.2995 16.6377 15.2995C15.6596 15.2995 15.1599 15.595 15.1599 16.1778C15.1599 16.5359 15.4096 16.7665 15.7844 16.7665C16.492 16.7669 17.0126 16.1782 17.0335 15.3249ZM18.2199 17.8956H16.7626L16.8043 17.2957C16.3464 17.7704 15.7636 17.9951 14.9721 17.9951C14.0145 17.9951 13.3691 17.3523 13.3691 16.4196C13.3691 15.0123 14.4933 14.1932 16.4291 14.1932C16.6374 14.1932 16.887 14.207 17.1371 14.2383C17.1993 14.0479 17.2201 13.9656 17.2201 13.8631C17.2201 13.4793 16.9079 13.337 16.096 13.337C15.5963 13.337 15.0344 13.3996 14.6386 13.4991L14.4095 13.5587L14.2429 13.5956L14.4926 12.2992C15.3667 12.0771 15.9286 11.9922 16.574 11.9922C18.0727 11.9922 18.8641 12.5779 18.8641 13.6868C18.8641 13.9712 18.8433 14.1873 18.7184 14.8301L18.3645 16.8772L18.3022 17.2439L18.2605 17.5367L18.2188 17.7387V17.8956" fill="#231F20"/>
<path d="M23.0923 14.3338C23.0923 14.2145 23.1132 14.115 23.1132 14.0409C23.1132 13.5718 22.8009 13.2956 22.2804 13.2956C21.7185 13.2956 21.3228 13.6653 21.1771 14.3304L23.0923 14.3338ZM23.9456 17.7689C23.342 17.9284 22.7588 18.0048 22.1552 18.0018C20.1986 18.0018 19.1992 17.1146 19.1992 15.4173C19.1992 13.4354 20.49 11.9766 22.2387 11.9766C23.6747 11.9766 24.591 12.7926 24.591 14.0748C24.591 14.5018 24.5284 14.9136 24.3618 15.4993H20.9062C20.8853 15.5872 20.8853 15.6275 20.8853 15.6811C20.8853 16.3492 21.4059 16.6906 22.4257 16.6906C23.0502 16.6906 23.6125 16.5799 24.237 16.3265L23.9456 17.7689Z" fill="#231F20"/>
<path d="M40.7651 14.5873C40.7651 13.9845 40.5155 13.4128 39.8079 13.4128C38.9128 13.4128 38.3718 14.4651 38.3718 15.3918C38.3718 16.174 38.7463 16.7001 39.3712 16.6882C39.7456 16.6882 40.5576 16.1736 40.7032 15.2748C40.7442 15.0676 40.7651 14.8377 40.7651 14.5873ZM42.5347 15.2778C42.2847 17.1972 40.9317 18.0478 39.1416 18.0478C37.1846 18.0478 36.3936 16.8536 36.3936 15.3892C36.3936 13.3417 37.726 11.957 39.8079 11.957C41.6188 11.957 42.5768 13.0973 42.5768 14.562C42.5764 14.9171 42.5764 14.9424 42.5347 15.2778Z" fill="#231F20"/>
<path d="M43.1178 17.0057H43.18C43.18 17.0057 43.2012 17.0057 43.2217 16.9971C43.2422 16.9886 43.2426 16.9688 43.2426 16.9517C43.2426 16.9375 43.2426 16.9204 43.2217 16.9122C43.2217 16.9036 43.18 16.9036 43.1595 16.9036H43.1178V17.0057ZM43.1178 17.2304H43.0343V16.8324H43.2009C43.2217 16.8324 43.2634 16.8354 43.3048 16.8555C43.3257 16.8753 43.3462 16.9151 43.3462 16.955C43.3462 16.9975 43.3253 17.0403 43.284 17.0571L43.3462 17.2307H43.2422L43.1796 17.0743H43.1178V17.2304ZM43.18 17.3753C43.3678 17.3753 43.5135 17.2218 43.5135 17.031C43.5135 16.8432 43.3678 16.6897 43.18 16.6897C42.9929 16.6897 42.8264 16.8432 42.8264 17.031C42.8264 17.2218 42.9929 17.3753 43.18 17.3753ZM42.7224 17.031C42.7224 16.7836 42.9307 16.582 43.1804 16.582C43.4304 16.582 43.6383 16.7836 43.6383 17.031C43.6383 17.2814 43.43 17.483 43.1804 17.483C42.9303 17.483 42.7224 17.2814 42.7224 17.031Z" fill="white"/>
<path d="M13.0154 17.484H11.2667L12.3074 12.0274L9.91337 17.484H8.33123L8.03985 12.0616L6.99913 17.484H5.41699L6.76996 10.3867H9.49679L9.62161 14.7829L11.5577 10.3867H14.3889L13.0154 17.484Z" fill="white"/>
<path d="M32.4801 17.4162C32.0012 17.5469 31.6264 17.6036 31.2307 17.6036C30.3356 17.6036 29.8564 17.1546 29.8564 16.3359C29.8564 16.1735 29.8773 16.0006 29.8982 15.8184L30.0021 15.252L30.0852 14.794L30.8975 10.3867H32.6254L32.3757 11.7118H33.2708L33.0207 13.1165H32.1257L31.6677 15.5247C31.6469 15.6302 31.6469 15.7096 31.6469 15.764C31.6469 16.0628 31.8343 16.1906 32.2505 16.1906C32.4379 16.1906 32.584 16.1735 32.7085 16.1362L32.4801 17.4162Z" fill="white"/>
<path d="M36.9561 13.3721L36.9148 13.1903L37.2688 12.286C37.1849 12.2774 37.1436 12.2748 37.1436 12.2692C37.0396 12.2491 36.9979 12.2379 36.977 12.2379C36.9357 12.2263 36.873 12.2237 36.8108 12.2237C36.228 12.2237 35.8323 12.4767 35.2909 13.1594L35.4787 12.1328H33.6674L32.6055 17.8965H34.3337C34.5625 16.5741 34.6668 15.821 34.8125 15.195C35.0413 14.1573 35.8118 13.6851 36.3737 13.7902C36.436 13.8018 36.4777 13.8018 36.5608 13.8331L36.6648 13.8726L36.9561 13.3721Z" fill="#231F20"/>
<path d="M37.5596 11.7595C37.4139 11.7025 37.3931 11.7025 37.3726 11.6969C37.2887 11.6768 37.2265 11.6656 37.2265 11.6626C37.1643 11.654 37.1017 11.6484 37.0391 11.6484C36.4772 11.6484 36.0609 11.9044 35.5195 12.5871L35.6861 11.711H34.1039L33.042 17.4833H34.7907C35.4152 13.9546 35.6857 13.3349 36.5185 13.3349C36.5811 13.3349 36.6433 13.3405 36.7268 13.3491L36.9351 13.3916L37.5596 11.7595Z" fill="white"/>
<path d="M25.5682 13.5399C25.5682 14.2677 25.9844 14.7711 26.9216 15.1493C27.6292 15.4366 27.7335 15.5219 27.7335 15.7865C27.7335 16.1445 27.4212 16.3066 26.7341 16.3066C26.1927 16.3066 25.7139 16.2355 25.152 16.079L24.9023 17.41L24.9854 17.4237L25.2977 17.4804C25.4016 17.5009 25.5686 17.5176 25.7765 17.5322C26.1927 17.5635 26.505 17.5802 26.7341 17.5802C28.6073 17.5802 29.461 16.9717 29.461 15.6553C29.461 14.862 29.1073 14.3985 28.2119 14.0486C27.4835 13.7557 27.3996 13.6905 27.3996 13.42C27.3996 13.1099 27.6914 12.9508 28.2533 12.9508C28.6069 12.9508 29.0652 12.9821 29.5232 13.0362L29.7728 11.6999C29.3149 11.6373 28.6282 11.5859 28.2119 11.5859C26.2553 11.5863 25.5682 12.4735 25.5682 13.5399Z" fill="white"/>
<path d="M17.409 14.9157C17.2216 14.8959 17.1381 14.8929 17.0133 14.8929C16.0348 14.8929 15.5351 15.1884 15.5351 15.7712C15.5351 16.1296 15.7643 16.3599 16.1596 16.3599C16.8676 16.3603 17.3673 15.7686 17.409 14.9157ZM18.6785 17.486H17.2212L17.2629 16.889C16.8258 17.3634 16.2222 17.5855 15.4308 17.5855C14.494 17.5855 13.8486 16.9427 13.8486 16.01C13.8486 14.6049 14.9728 13.7836 16.9086 13.7836C17.096 13.7836 17.3456 13.8004 17.6162 13.8291C17.6579 13.6383 17.6784 13.5589 17.6784 13.4539C17.6784 13.0727 17.3661 12.9307 16.5542 12.9307C16.0545 12.9307 15.4922 12.9903 15.1178 13.0898L14.8681 13.1524L14.7224 13.1897L14.9516 11.89C15.8257 11.6683 16.3876 11.5859 17.033 11.5859C18.5317 11.5859 19.3231 12.1717 19.3231 13.278C19.3231 13.5623 19.3023 13.7784 19.1983 14.4208L18.8234 16.4713L18.7612 16.838L18.7195 17.1309L18.6986 17.3295L18.6785 17.486Z" fill="white"/>
<path d="M23.4663 13.9275C23.4663 13.8053 23.4663 13.7084 23.4663 13.6316C23.4663 13.1625 23.1749 12.8894 22.6543 12.8894C22.0924 12.8894 21.6967 13.256 21.5301 13.9245L23.4663 13.9275ZM24.3825 17.3623C23.7994 17.5188 23.2166 17.5955 22.6126 17.5955C20.656 17.5955 19.6357 16.7083 19.6357 15.0081C19.6357 13.0291 20.9261 11.5703 22.6748 11.5703C24.1113 11.5703 25.0271 12.3863 25.0271 13.6659C25.0271 14.0925 24.9646 14.5077 24.8185 15.093H21.3632C21.3423 15.1813 21.3423 15.2212 21.3423 15.2749C21.3423 15.9433 21.8625 16.2847 22.8619 16.2847C23.4864 16.2847 24.0487 16.1707 24.6728 15.9176L24.3825 17.3623Z" fill="white"/>
<path d="M41.1817 14.1288C41.1817 13.5259 40.9321 12.9546 40.2245 12.9546C39.3295 12.9546 38.7884 14.0065 38.7884 14.9336C38.7884 15.7183 39.1633 16.2448 39.7878 16.2329C40.1626 16.2329 40.9742 15.7183 41.1199 14.8196C41.1612 14.6091 41.1817 14.3791 41.1817 14.1288ZM42.993 14.8684C42.7221 16.7874 41.3897 17.6403 39.6 17.6403C37.6221 17.6403 36.8311 16.4431 36.8311 14.9787C36.8311 12.9341 38.184 11.5469 40.2662 11.5469C42.0768 11.5469 43.0348 12.6871 43.0348 14.1515C43.0348 14.5096 43.0348 14.5327 42.993 14.8684Z" fill="white"/>
</g>
<defs>
<clipPath id="clip0_21817_22217">
<rect width="46.7971" height="28" fill="white" transform="translate(0.754883)"/>
</clipPath>
</defs>
</svg>
