<svg width="94" height="24" viewBox="0 0 94 24" fill="none" xmlns="http://www.w3.org/2000/svg">
<g clip-path="url(#clip0_21817_22249)">
<path d="M18.399 24C24.9585 24.0314 30.9457 18.6504 30.9457 12.1043C30.9457 4.94571 24.9585 -0.00238009 18.399 8.58885e-07H12.7538C6.11567 -0.00238009 0.651855 4.94719 0.651855 12.1043C0.651855 18.6519 6.11567 24.0314 12.7538 24H18.399Z" fill="#0079BE"/>
<path d="M12.7807 0.992188C6.71501 0.994092 1.79977 5.91076 1.79834 11.9789C1.79977 18.046 6.71496 22.9622 12.7807 22.9641C18.8479 22.9622 23.7641 18.046 23.765 11.9789C23.7641 5.91076 18.8479 0.994092 12.7807 0.992188ZM5.81929 11.9789C5.82501 9.01366 7.67691 6.48509 10.2883 5.48028V18.476C7.67691 17.4718 5.82496 14.9446 5.81929 11.9789ZM15.2722 18.4789V5.47985C17.8845 6.48223 19.7393 9.01223 19.7441 11.9789C19.7393 14.9465 17.8845 17.4746 15.2722 18.4789Z" fill="white"/>
<path d="M34.7929 5.16267C34.7929 4.02739 34.201 4.10215 33.6333 4.08981V3.76172C34.1253 3.786 34.6295 3.786 35.1224 3.786C35.6524 3.786 36.372 3.76172 37.3062 3.76172C40.5738 3.76172 42.3533 5.94458 42.3533 8.17977C42.3533 9.42977 41.622 12.5721 37.1543 12.5721C36.511 12.5721 35.9172 12.5473 35.3243 12.5473C34.7567 12.5473 34.201 12.5598 33.6333 12.5721V12.2445C34.39 12.1683 34.7567 12.1431 34.7929 11.2845L34.7929 5.16267ZM36.0301 11.0831C36.0301 12.055 36.7248 12.1683 37.3429 12.1683C40.0696 12.1683 40.9648 10.1107 40.9648 8.22977C40.9648 5.87024 39.4501 4.16643 37.0149 4.16643C36.4968 4.16643 36.2587 4.20358 36.0301 4.21696L36.0301 11.0831Z" fill="#211E1F"/>
<path d="M42.7954 12.2474H43.0345C43.3873 12.2474 43.6402 12.2474 43.6402 11.8298V8.40981C43.6402 7.8551 43.4511 7.7779 42.984 7.52695V7.32457C43.5769 7.14648 44.2846 6.90838 44.334 6.87029C44.4231 6.81981 44.4983 6.80648 44.5616 6.80648C44.6241 6.80648 44.6502 6.88267 44.6502 6.9841V11.8298C44.6502 12.2474 44.9278 12.2474 45.2812 12.2474H45.4955V12.5755C45.0659 12.5755 44.624 12.5503 44.1707 12.5503C43.7164 12.5503 43.2617 12.5627 42.7955 12.5755V12.2474H42.7954ZM44.1454 4.8631C43.8169 4.8631 43.5274 4.56029 43.5274 4.23214C43.5274 3.91595 43.8302 3.625 44.1454 3.625C44.4726 3.625 44.764 3.89124 44.764 4.23214C44.764 4.5731 44.4855 4.8631 44.1454 4.8631Z" fill="#211E1F"/>
<path d="M46.6948 8.48326C46.6948 8.01659 46.5552 7.89088 45.9633 7.65088V7.4114C46.5057 7.23474 47.0224 7.07045 47.6285 6.80473C47.6662 6.80473 47.7033 6.83045 47.7033 6.93093V7.75183C48.4238 7.23474 49.0424 6.80469 49.889 6.80469C50.9604 6.80469 51.339 7.5875 51.339 8.57178V11.828C51.339 12.2456 51.6166 12.2456 51.9704 12.2456H52.1976V12.5737C51.7547 12.5737 51.3133 12.5485 50.86 12.5485C50.4051 12.5485 49.9503 12.5609 49.4966 12.5737V12.2456H49.7232C50.0775 12.2456 50.3285 12.2456 50.3285 11.828V8.55988C50.3285 7.8394 49.889 7.48654 49.1685 7.48654C48.7652 7.48654 48.1213 7.81469 47.7032 8.09273V11.8279C47.7032 12.2456 47.9822 12.2456 48.3361 12.2456H48.5628V12.5737C48.1213 12.5737 47.679 12.5484 47.2247 12.5484C46.7709 12.5484 46.3157 12.5609 45.8618 12.5737V12.2456H46.0894C46.4428 12.2456 46.6947 12.2456 46.6947 11.8279V8.48326H46.6948Z" fill="#211E1F"/>
<path d="M53.1571 9.08993C53.1308 9.20378 53.1308 9.39278 53.1571 9.82231C53.2314 11.0209 54.0033 12.0052 55.0113 12.0052C55.7061 12.0052 56.2499 11.6266 56.7161 11.16L56.8923 11.3371C56.3114 12.1066 55.5922 12.7628 54.558 12.7628C52.5508 12.7628 52.147 10.8185 52.147 10.0114C52.147 7.53707 53.8127 6.80469 54.6955 6.80469C55.7184 6.80469 56.817 7.44807 56.8289 8.78612C56.8289 8.86278 56.8289 8.93754 56.817 9.01421L56.7027 9.08993H53.1571ZM55.3914 8.68569C55.7061 8.68569 55.7433 8.5214 55.7433 8.37045C55.7433 7.72659 55.3523 7.20897 54.6452 7.20897C53.8761 7.20897 53.3461 7.77612 53.1946 8.68569H55.3914Z" fill="#211E1F"/>
<path d="M57.1196 12.2457H57.4606C57.8129 12.2457 58.0653 12.2457 58.0653 11.828V8.28183C58.0653 7.89088 57.5992 7.81469 57.4092 7.71373V7.52516C58.3306 7.13326 58.8358 6.80469 58.9505 6.80469C59.0253 6.80469 59.0624 6.84278 59.0624 6.96945V8.10516H59.0892C59.4039 7.61326 59.9349 6.80469 60.7039 6.80469C61.0196 6.80469 61.423 7.01897 61.423 7.47374C61.423 7.81469 61.1839 8.1185 60.8306 8.1185C60.4378 8.1185 60.4378 7.81469 59.9968 7.81469C59.7821 7.81469 59.0759 8.10516 59.0759 8.86278V11.828C59.0759 12.2456 59.3277 12.2456 59.6815 12.2456H60.3877V12.5738C59.6934 12.5609 59.1653 12.5485 58.6215 12.5485C58.1044 12.5485 57.5739 12.5609 57.1197 12.5738L57.1196 12.2457Z" fill="#211E1F"/>
<path d="M61.9782 10.8184C62.1425 11.6518 62.6468 12.359 63.5686 12.359C64.3115 12.359 64.5895 11.9047 64.5895 11.4628C64.5895 9.97326 61.8391 10.4528 61.8391 8.42088C61.8391 7.71373 62.4076 6.80469 63.7953 6.80469C64.1986 6.80469 64.7409 6.91897 65.2328 7.17183L65.3224 8.45807H65.0315C64.9057 7.66373 64.4643 7.20902 63.6557 7.20902C63.151 7.20902 62.6719 7.49954 62.6719 8.04188C62.6719 9.51997 65.5995 9.06426 65.5995 11.0457C65.5995 11.8785 64.9304 12.7628 63.4286 12.7628C62.9238 12.7628 62.3309 12.5862 61.8895 12.3343L61.7505 10.8824L61.9782 10.8184Z" fill="#211E1F"/>
<path d="M76.9961 6.04507H76.6813C76.4414 4.56888 75.3938 3.97507 73.9809 3.97507C72.5285 3.97507 70.4209 4.94646 70.4209 7.97555C70.4209 10.527 72.2394 12.3565 74.1823 12.3565C75.4313 12.3565 76.4671 11.4984 76.7194 10.1727L77.009 10.2479L76.7194 12.0907C76.1894 12.4198 74.7632 12.7603 73.9294 12.7603C70.9771 12.7603 69.1099 10.8542 69.1099 8.01412C69.1099 5.4265 71.4189 3.57031 73.8922 3.57031C74.9142 3.57031 75.8985 3.89984 76.8704 4.24079L76.9961 6.04507Z" fill="#211E1F"/>
<path d="M77.451 12.2459H77.6901C78.0439 12.2459 78.2972 12.2459 78.2972 11.8283V4.79878C78.2972 3.97783 78.1077 3.95254 77.6276 3.81397V3.61207C78.1324 3.44831 78.6624 3.22064 78.9277 3.06878C79.0653 2.99354 79.1672 2.92969 79.2043 2.92969C79.2815 2.92969 79.3067 3.00593 79.3067 3.10731V11.8283C79.3067 12.2459 79.5838 12.2459 79.9376 12.2459H80.1505V12.574C79.7234 12.574 79.2815 12.5488 78.8267 12.5488C78.3729 12.5488 77.9186 12.5612 77.4509 12.574V12.2459H77.451Z" fill="#211E1F"/>
<path d="M85.5538 11.8761C85.5538 12.1042 85.6919 12.1166 85.9061 12.1166C86.058 12.1166 86.2466 12.1042 86.4113 12.1042V12.3699C85.8681 12.4199 84.8333 12.6852 84.5932 12.7604L84.5299 12.7223V11.7009C83.7738 12.3189 83.1923 12.7604 82.2956 12.7604C81.6142 12.7604 80.9076 12.3189 80.9076 11.2594V8.02704C80.9076 7.69895 80.8576 7.38319 80.1519 7.32038V7.08038C80.6067 7.068 81.6143 6.99223 81.779 6.99223C81.919 6.99223 81.919 7.08038 81.919 7.358V10.6137C81.919 10.9932 81.919 12.0784 83.0161 12.0784C83.4452 12.0784 84.0128 11.7503 84.5424 11.3099V7.91271C84.5424 7.66128 83.9371 7.52271 83.4838 7.396V7.16885C84.6181 7.09266 85.3261 6.99219 85.4514 6.99219C85.5537 6.99219 85.5537 7.08028 85.5537 7.21981L85.5538 11.8761Z" fill="#211E1F"/>
<path d="M88.0652 7.71402C88.5695 7.28493 89.2508 6.80497 89.9456 6.80497C91.4098 6.80497 92.2923 8.08116 92.2923 9.45588C92.2923 11.1093 91.0813 12.763 89.2755 12.763C88.3422 12.763 87.8503 12.4597 87.5217 12.3215L87.1437 12.6111L86.8794 12.473C86.9913 11.7283 87.0556 10.9959 87.0556 10.2264V4.79874C87.0556 3.97783 86.8651 3.95254 86.386 3.81397V3.61207C86.8922 3.44831 87.4207 3.22064 87.686 3.06874C87.8251 2.9935 87.9255 2.92969 87.9646 2.92969C88.0398 2.92969 88.065 3.00593 88.065 3.10731V7.71397H88.0652V7.71402ZM88.0652 11.1469C88.0652 11.6269 88.5189 12.4355 89.3647 12.4355C90.7151 12.4355 91.2827 11.1093 91.2827 9.9855C91.2827 8.62264 90.2489 7.48693 89.2642 7.48693C88.7961 7.48693 88.4056 7.79026 88.0651 8.08116L88.0652 11.1469Z" fill="#211E1F"/>
<path d="M33.6184 19.9114H33.7151C33.9617 19.9114 34.2227 19.8781 34.2227 19.5204V15.9223C34.2227 15.5642 33.9617 15.5304 33.7151 15.5304H33.6184V15.3242C33.8865 15.3242 34.2984 15.3514 34.636 15.3514C34.9789 15.3514 35.3903 15.3242 35.7132 15.3242V15.5304H35.6165C35.3703 15.5304 35.1089 15.5642 35.1089 15.9223V19.5204C35.1089 19.8781 35.3703 19.9114 35.6165 19.9114H35.7132V20.1186C35.3836 20.1186 34.9708 20.0914 34.6284 20.0914C34.2918 20.0914 33.8865 20.1186 33.6184 20.1186V19.9114Z" fill="#211E1F"/>
<path d="M35.7134 20.1468C35.3814 20.1468 34.9701 20.1192 34.6281 20.1192C34.2924 20.1192 33.8886 20.1468 33.6186 20.1468H33.5891V20.1173V19.9111V19.8811H33.6186H33.7148C33.9638 19.8754 34.1905 19.8554 34.1929 19.5197V15.9215C34.1905 15.5858 33.9639 15.5634 33.7148 15.5587H33.5891V15.5297V15.293H33.6186C33.8886 15.293 34.3001 15.3201 34.6357 15.3201C34.9776 15.3201 35.3886 15.293 35.7134 15.293H35.7439V15.3244V15.5587H35.7134H35.6172C35.3681 15.5634 35.14 15.5858 35.1386 15.9215V19.5197C35.14 19.8554 35.3681 19.8754 35.6172 19.8811H35.7438V19.9111V20.1468H35.7134ZM35.6838 20.0882V19.9415H35.6172C35.372 19.9415 35.0801 19.8992 35.0786 19.5197V15.9215C35.08 15.542 35.3719 15.4992 35.6172 15.4992H35.6838V15.3534C35.3667 15.3534 34.9691 15.3801 34.6357 15.3801C34.3095 15.3801 33.9148 15.3554 33.6491 15.3534V15.4992H33.7148C33.9595 15.4992 34.2524 15.542 34.2524 15.9215V19.5197C34.2524 19.8992 33.9595 19.9415 33.7148 19.9415H33.6491V20.0882C33.9148 20.0854 34.3028 20.0606 34.6281 20.0606C34.9624 20.0606 35.36 20.0863 35.6838 20.0882Z" fill="#211E1F"/>
<path d="M40.4313 18.7647L40.4451 18.7514V16.1762C40.4451 15.6124 40.0532 15.5305 39.8475 15.5305H39.696V15.3242C40.0194 15.3242 40.3351 15.3514 40.6575 15.3514C40.9388 15.3514 41.2217 15.3242 41.5027 15.3242V15.5305H41.3998C41.1108 15.5305 40.7879 15.5852 40.7879 16.4024V19.5281C40.7879 19.7681 40.795 20.0081 40.8288 20.221H40.5675L37.0317 16.2786V19.1086C37.0317 19.7062 37.1475 19.9115 37.677 19.9115H37.7931V20.1186C37.4984 20.1186 37.2036 20.0915 36.9079 20.0915C36.5998 20.0915 36.2836 20.1186 35.9741 20.1186V19.9115H36.0703C36.5441 19.9115 36.688 19.5895 36.688 19.0405V16.1476C36.688 15.7634 36.3713 15.5305 36.0637 15.5305H35.9742V15.3243C36.2351 15.3243 36.5027 15.3514 36.7632 15.3514C36.9694 15.3514 37.1689 15.3243 37.3746 15.3243L40.4313 18.7647Z" fill="#211E1F"/>
<path d="M40.8284 20.2531L40.5452 20.2425L37.0604 16.3583V19.1107C37.0684 19.7078 37.1594 19.8774 37.6765 19.884H37.8237V19.9135V20.1497H37.7932C37.4961 20.1497 37.2004 20.1221 36.9074 20.1221C36.5998 20.1221 36.2846 20.1497 35.9732 20.1497H35.9432V20.1202V19.884H35.9732H36.0698C36.5236 19.8816 36.6532 19.5902 36.6584 19.0426V16.1502C36.6574 15.7845 36.3574 15.5626 36.0632 15.5616H35.9431V15.5312V15.2969H35.9731C36.2355 15.2969 36.5045 15.3231 36.7622 15.3231C36.9664 15.3231 37.1655 15.2969 37.3969 15.3069L40.415 18.7045V16.1788C40.4112 15.6322 40.047 15.5664 39.8469 15.5616H39.665V15.5312V15.2969H39.6955C40.0198 15.2969 40.336 15.3231 40.6569 15.3231C40.9364 15.3231 41.2179 15.2969 41.5017 15.2969H41.5317V15.3264V15.5616H41.5017H41.3993C41.116 15.5697 40.825 15.5944 40.817 16.4044V19.5297C40.817 19.7697 40.8241 20.0097 40.8574 20.2178L40.8641 20.253H40.8284V20.2531ZM40.5675 20.1925H40.7947C40.7638 19.9864 40.7585 19.7578 40.7585 19.5297V16.4044C40.7585 15.5802 41.1037 15.5021 41.3994 15.5021H41.4718V15.3564C41.2014 15.3583 40.9299 15.383 40.6571 15.383C40.3428 15.383 40.0371 15.3583 39.7262 15.3564L39.7257 15.5021H39.8471C40.0581 15.5021 40.4747 15.5964 40.4747 16.1788L40.4652 18.774L40.4514 18.7883L40.4281 18.8097L37.3743 15.3564C37.1705 15.3564 36.9714 15.383 36.7624 15.383C36.5104 15.383 36.2528 15.3583 36.0038 15.3564L36.0024 15.5021H36.0633C36.3857 15.5021 36.7166 15.7483 36.7166 16.1502V19.0425C36.7166 19.5915 36.5638 19.943 36.07 19.9449L36.0038 19.943V20.0911C36.3014 20.0882 36.6071 20.0634 36.9075 20.0634C37.1943 20.0634 37.4795 20.0883 37.7633 20.0911V19.9449H37.6766C37.1361 19.943 37.0019 19.7078 37.0014 19.1106V16.2034L40.5675 20.1925ZM40.4151 18.7531V18.7507L40.4094 18.7459L40.4151 18.7531Z" fill="#211E1F"/>
<path d="M42.5303 15.6694C42.0146 15.6694 41.9951 15.7933 41.8922 16.2942H41.686C41.7132 16.1023 41.7475 15.9104 41.7684 15.7104C41.796 15.518 41.8093 15.3265 41.8093 15.1275H41.9746C42.0298 15.3337 42.2013 15.3266 42.3875 15.3266H45.9298C46.1155 15.3266 46.287 15.3199 46.3013 15.1133L46.465 15.1409C46.4384 15.3266 46.4107 15.5119 46.3898 15.6975C46.3774 15.8828 46.3774 16.0685 46.3774 16.2532L46.1708 16.3299C46.1565 16.0761 46.1222 15.6694 45.6627 15.6694H44.5365V19.3237C44.5365 19.8532 44.777 19.9138 45.1055 19.9138H45.2365V20.1209C44.9688 20.1209 44.4875 20.0938 44.1174 20.0938C43.7056 20.0938 43.2241 20.1209 42.956 20.1209V19.9138H43.0869C43.4655 19.9138 43.6569 19.8799 43.6569 19.338V15.6694H42.5303Z" fill="#211E1F"/>
<path d="M45.2376 20.1496C44.9671 20.1496 44.4866 20.122 44.1176 20.122C43.7061 20.122 43.2257 20.1496 42.9561 20.1496H42.9276V20.1206V19.8839H42.9561H43.0871C43.4657 19.8749 43.618 19.8701 43.6266 19.3377V15.6992H42.5304V15.6691V15.6386H43.6862V19.3377C43.6862 19.8886 43.4643 19.9444 43.0871 19.9448H42.9862V20.0896C43.2571 20.0882 43.719 20.0634 44.1176 20.0634C44.4758 20.0634 44.9348 20.0882 45.2062 20.0896V19.9448H45.1057C44.7738 19.9444 44.5067 19.8629 44.5067 19.3234V15.6386H45.6629C46.1238 15.6406 46.1838 16.0325 46.199 16.2872L46.3471 16.2325C46.3471 16.0534 46.3481 15.8739 46.3605 15.6929C46.3805 15.5163 46.4057 15.341 46.4314 15.1658L46.3266 15.1482C46.2948 15.3482 46.1019 15.3582 45.929 15.3563H42.3876H42.3519C42.1904 15.3563 42.0138 15.3486 41.9523 15.1568H41.839C41.838 15.3468 41.8247 15.5311 41.7985 15.7139C41.7785 15.9025 41.747 16.0839 41.7213 16.2654H41.8685C41.959 15.7867 42.018 15.6315 42.5304 15.6387V15.6692V15.6992C42.0228 15.7082 42.0333 15.7939 41.9213 16.3016L41.9161 16.3249H41.8923H41.6519L41.6557 16.2892C41.6833 16.0968 41.7181 15.9053 41.7385 15.7053C41.7671 15.5148 41.7804 15.3244 41.7804 15.1272V15.0972H41.8095H41.998L42.0028 15.1186C42.05 15.292 42.1771 15.2929 42.3519 15.2958H42.3876H45.929C46.1205 15.2929 46.2595 15.2901 46.2714 15.1105L46.2742 15.0781L46.3052 15.0848L46.499 15.1153L46.4947 15.1453C46.467 15.3291 46.44 15.5148 46.42 15.6991C46.4061 15.882 46.4061 16.0677 46.4061 16.2529V16.2744L46.3871 16.282L46.1438 16.3705L46.1419 16.3305C46.1238 16.0724 46.0966 15.6991 45.6628 15.6991H44.5666V19.3234C44.5728 19.8415 44.7785 19.8772 45.1056 19.8838H45.2666V19.9134V20.1496L45.2376 20.1496Z" fill="#211E1F"/>
<path d="M46.6851 19.9114H46.7817C47.0284 19.9114 47.2898 19.8781 47.2898 19.5204V15.9223C47.2898 15.5642 47.0284 15.5304 46.7817 15.5304H46.6851V15.3242C47.1032 15.3242 47.8184 15.3514 48.3941 15.3514C48.9722 15.3514 49.6851 15.3242 50.1517 15.3242C50.1403 15.619 50.1465 16.0733 50.1669 16.3747L49.9598 16.4299C49.927 15.9838 49.8445 15.6271 49.1231 15.6271H48.1693V17.4257H48.9856C49.3974 17.4257 49.4874 17.1928 49.5279 16.821H49.7336C49.7203 17.09 49.7132 17.3576 49.7132 17.6253C49.7132 17.8867 49.7203 18.1472 49.7336 18.4081L49.5279 18.449C49.4874 18.0372 49.4665 17.7695 48.9922 17.7695H48.1694V19.369C48.1694 19.8162 48.5661 19.8162 49.0061 19.8162C49.8303 19.8162 50.1936 19.7605 50.3999 18.9786L50.5923 19.0257C50.5023 19.3905 50.4203 19.7538 50.3594 20.1186C49.9194 20.1186 49.1294 20.0914 48.5122 20.0914C47.8932 20.0914 47.0766 20.1186 46.6851 20.1186V19.9114Z" fill="#211E1F"/>
<path d="M50.3583 20.1497C49.9174 20.1497 49.1279 20.1216 48.5112 20.1216C47.8927 20.1216 47.0764 20.1497 46.6845 20.1497H46.6555V20.1207V19.9135V19.884H46.6845H46.7808C47.0298 19.8802 47.2555 19.8583 47.2589 19.5226V15.9244C47.2555 15.5892 47.0298 15.5668 46.7808 15.5616H46.6555V15.5326V15.2969H46.6845C47.1036 15.2969 47.8179 15.3231 48.3936 15.3231C48.9711 15.3231 49.6836 15.2969 50.1512 15.2969H50.1821L50.1807 15.3274C50.1759 15.4307 50.174 15.5525 50.174 15.6821C50.174 15.9197 50.1807 16.1792 50.1945 16.375L50.1955 16.3997L50.1726 16.4064L49.9312 16.4693L49.9298 16.4341C49.8893 15.9884 49.8298 15.665 49.1227 15.6584H48.1975L48.1965 17.3969H48.9851C49.3804 17.3931 49.4512 17.1907 49.4979 16.8207L49.5004 16.7936H49.527H49.7637L49.7632 16.8245C49.7499 17.0921 49.7413 17.3597 49.7413 17.6274C49.7413 17.8874 49.7499 18.1478 49.7632 18.4093L49.7637 18.4336L49.7389 18.4393L49.5004 18.4869L49.4979 18.4545C49.4508 18.0354 49.4474 17.8059 48.9912 17.8007L48.1974 17.8002V19.3712C48.198 19.7883 48.5579 19.7859 49.0056 19.7883C49.8322 19.7835 50.1637 19.7436 50.3708 18.9721L50.3775 18.9445L50.4065 18.9497L50.6266 19.0064L50.6198 19.035C50.5313 19.3988 50.4489 19.7616 50.3874 20.1254L50.3818 20.1497H50.3583ZM50.3331 20.0897C50.3927 19.7435 50.4711 19.3959 50.5555 19.0502L50.4198 19.0159C50.2141 19.7845 49.8159 19.853 49.0055 19.8478C48.5731 19.8478 48.1398 19.8478 48.1378 19.3711V17.7416H48.9912C49.4707 17.7364 49.5198 18.0259 49.5536 18.4168L49.7022 18.3859C49.6888 18.133 49.6827 17.8792 49.6827 17.6273C49.6827 17.3687 49.6888 17.1116 49.7022 16.853H49.5536C49.5155 17.2106 49.4036 17.4621 48.985 17.4573H48.1379V15.5983H49.1227C49.837 15.5934 49.9555 15.9621 49.986 16.394L50.1341 16.354C50.1222 16.1602 50.114 15.9116 50.114 15.6821C50.114 15.5644 50.1169 15.4535 50.1208 15.3564C49.6541 15.3583 48.9589 15.383 48.3936 15.383C47.8293 15.383 47.1346 15.3583 46.7141 15.3564V15.5021H46.7807C47.0255 15.5021 47.3179 15.5449 47.3188 15.9244V19.5226C47.3179 19.9012 47.0255 19.9431 46.7807 19.945H46.7141V20.0897C47.1146 20.0892 47.9079 20.0635 48.5112 20.0635C49.1169 20.0635 49.8902 20.0892 50.3331 20.0897Z" fill="#211E1F"/>
<path d="M51.5182 16.0523C51.5182 15.5514 51.2439 15.5309 51.0301 15.5309H50.9067V15.3242C51.1267 15.3242 51.5519 15.3518 51.971 15.3518C52.3829 15.3518 52.7129 15.3242 53.0763 15.3242C53.941 15.3242 54.7111 15.558 54.7111 16.5342C54.7111 17.1509 54.2992 17.529 53.7567 17.7428L54.9305 19.4999C55.1229 19.7904 55.2596 19.8718 55.5967 19.9118V20.119C55.3701 20.119 55.15 20.0918 54.9238 20.0918C54.711 20.0918 54.4905 20.119 54.2785 20.119C53.75 19.4252 53.2957 18.6833 52.8495 17.8928H52.3977V19.3633C52.3977 19.8928 52.6439 19.9118 52.9595 19.9118H53.0834V20.119C52.691 20.119 52.2944 20.0919 51.9024 20.0919C51.5724 20.0919 51.2495 20.119 50.9067 20.119V19.9118H51.0301C51.2853 19.9118 51.5182 19.7966 51.5182 19.5418V16.0523ZM52.3976 17.6456H52.7329C53.42 17.6456 53.79 17.3847 53.79 16.5742C53.79 15.9637 53.3991 15.5718 52.7872 15.5718C52.581 15.5718 52.4934 15.5933 52.3975 15.5995V17.6456H52.3976Z" fill="#211E1F"/>
<path d="M55.5975 20.1467C55.3675 20.1467 55.149 20.1191 54.9233 20.1191C54.7137 20.1191 54.4947 20.1467 54.2552 20.1353C53.7285 19.4443 53.2771 18.7067 52.8333 17.9219H52.4275V19.361C52.4347 19.8777 52.6423 19.8734 52.9599 19.881H53.1137V19.9105V20.1467H53.0832C52.6908 20.1467 52.2923 20.1191 51.9023 20.1191C51.5742 20.1191 51.2523 20.1467 50.9075 20.1467H50.8774V20.1172V19.881H50.9075H51.0308C51.2784 19.8796 51.487 19.772 51.488 19.5405V16.0511C51.4828 15.5634 51.2442 15.5663 51.0308 15.5592H50.8774V15.5296V15.293H50.9075C51.1299 15.293 51.5537 15.3201 51.9718 15.3201C52.3817 15.3201 52.7118 15.293 53.0775 15.293C53.9428 15.2949 54.7399 15.5339 54.7423 16.5311C54.7423 17.1515 54.3323 17.5386 53.8023 17.7549L54.9561 19.4824C55.148 19.7672 55.2675 19.8382 55.6018 19.881L55.627 19.8848V19.9105V20.1467H55.5975V20.1467ZM52.3976 17.8619H52.8671L52.8752 17.8771C53.3228 18.6662 53.7737 19.4071 54.2794 20.0881C54.489 20.0881 54.7094 20.06 54.9233 20.06C55.1427 20.06 55.3542 20.0838 55.568 20.0871V19.9366C55.2456 19.8966 55.0947 19.8004 54.9071 19.5152L53.7123 17.7271L53.7461 17.7133C54.2832 17.5019 54.6809 17.1347 54.6813 16.5309C54.6809 15.578 53.9408 15.3571 53.0775 15.3533C52.7151 15.3533 52.3856 15.3804 51.9718 15.3804C51.5685 15.3804 51.1613 15.3552 50.9365 15.3533V15.499H51.0308C51.2442 15.4995 51.5479 15.5347 51.5479 16.051V19.5404C51.5479 19.8162 51.2893 19.9419 51.0308 19.9423H50.9365V20.0871C51.2671 20.0861 51.5799 20.06 51.9023 20.06C52.2865 20.06 52.6737 20.0862 53.0537 20.0871V19.9423H52.9599C52.6465 19.9418 52.3675 19.9028 52.3675 19.3609V17.8619H52.3975H52.3976ZM52.3976 17.6733H52.3675V15.5704L52.3937 15.5681C52.4875 15.561 52.5804 15.5414 52.788 15.5414C53.4138 15.5414 53.8204 15.9481 53.8213 16.5742C53.8194 17.3942 53.4261 17.6728 52.7337 17.6733H52.3976V17.6733ZM52.7337 17.6143C53.4136 17.6085 53.7556 17.3724 53.7628 16.5743C53.759 15.9743 53.3861 15.6019 52.788 15.5995C52.6022 15.5995 52.5151 15.6166 52.4275 15.6243V17.6143H52.7337Z" fill="#211E1F"/>
<path d="M60.2598 18.7647L60.2722 18.7514V16.1762C60.2722 15.6124 59.8813 15.5305 59.6756 15.5305H59.5251V15.3242C59.8475 15.3242 60.1628 15.3514 60.4861 15.3514C60.768 15.3514 61.0485 15.3242 61.3318 15.3242V15.5305H61.2285C60.9399 15.5305 60.617 15.5852 60.617 16.4024V19.5281C60.617 19.7681 60.6237 20.0081 60.6575 20.221H60.3971L56.8609 16.2786V19.1086C56.8609 19.7062 56.9775 19.9115 57.5061 19.9115H57.6228V20.1186C57.328 20.1186 57.0323 20.0915 56.7376 20.0915C56.4275 20.0915 56.1118 20.1186 55.8032 20.1186V19.9115H55.8985C56.3728 19.9115 56.517 19.5895 56.517 19.0405V16.1476C56.517 15.7634 56.2013 15.5305 55.8928 15.5305H55.8032V15.3243C56.0633 15.3243 56.3323 15.3514 56.5928 15.3514C56.7976 15.3514 56.9975 15.3243 57.2037 15.3243L60.2598 18.7647Z" fill="#211E1F"/>
<path d="M60.6574 20.2496L60.3746 20.2401L56.8894 16.3553V19.1073C56.8975 19.7049 56.988 19.8743 57.506 19.8811H57.6513V19.9106V20.1468H57.6213C57.3242 20.1468 57.0298 20.1186 56.7355 20.1186C56.4289 20.1186 56.1117 20.1468 55.8027 20.1468H55.7717V20.1177V19.8811H55.8027H55.8979C56.3512 19.8792 56.4813 19.5873 56.4855 19.0377V16.1468C56.4851 15.781 56.1856 15.5592 55.8923 15.5586H55.7717V15.5296V15.293H55.8027C56.0646 15.293 56.3332 15.3201 56.5922 15.3201C56.7941 15.3201 56.9932 15.293 57.2236 15.3024L60.2423 18.7015V16.1748C60.2403 15.6291 59.8746 15.5615 59.6751 15.5587H59.4936V15.5296V15.293H59.5237C59.8484 15.293 60.1646 15.3201 60.4855 15.3201C60.7656 15.3201 61.047 15.293 61.3298 15.293H61.3598V15.3239V15.5587H61.3298H61.2279C60.9446 15.5663 60.6526 15.5915 60.6455 16.4015V19.5267C60.6455 19.7667 60.6517 20.0048 60.6865 20.2163L60.6903 20.2496H60.6574ZM60.3965 20.1896H60.6222C60.5922 19.9834 60.5855 19.7548 60.5855 19.5267V16.4015C60.586 15.5772 60.9336 15.501 61.2279 15.4986H61.2998V15.3534C61.0303 15.3553 60.7584 15.3801 60.4855 15.3801C60.1703 15.3801 59.864 15.3553 59.5531 15.3534V15.4986H59.6751C59.8864 15.501 60.3027 15.5934 60.3027 16.1748L60.2932 18.771L60.2798 18.7853L60.2589 18.8072L57.2027 15.3534C56.9989 15.3534 56.7998 15.3801 56.5923 15.3801C56.338 15.3801 56.0813 15.3553 55.8313 15.3534V15.4987H55.8922C56.2146 15.5011 56.5456 15.7444 56.5456 16.1468V19.0377C56.5456 19.5891 56.3903 19.9401 55.898 19.942L55.8313 19.9415V20.0867C56.128 20.0853 56.4342 20.0605 56.7356 20.0605C57.0237 20.0605 57.309 20.0853 57.5927 20.0867V19.942H57.5061C56.9652 19.9415 56.8299 19.7049 56.829 19.1072V16.2015L60.3965 20.1896ZM60.2422 18.7505V18.7481L60.2369 18.7429L60.2422 18.7505Z" fill="#211E1F"/>
<path d="M62.436 19.1366C62.3665 19.3695 62.2836 19.5495 62.2836 19.6719C62.2836 19.8785 62.5727 19.9119 62.7984 19.9119H62.8751V20.119C62.5999 20.1042 62.3193 20.0919 62.0427 20.0919C61.7956 20.0919 61.5498 20.1043 61.3022 20.119V19.9119H61.3436C61.6112 19.9119 61.8384 19.7542 61.9398 19.4652L63.0398 16.3137C63.1284 16.0594 63.2532 15.7161 63.2947 15.4614C63.5132 15.3866 63.7884 15.2495 63.9185 15.1666C63.9399 15.1595 63.9518 15.1523 63.9732 15.1523C63.9937 15.1523 64.007 15.1523 64.0222 15.1738C64.0422 15.2281 64.0622 15.2904 64.0842 15.3452L65.3475 18.9376C65.4299 19.1776 65.5112 19.4314 65.6004 19.6381C65.6832 19.8304 65.828 19.9119 66.0551 19.9119H66.0956V20.119C65.7866 20.1042 65.4771 20.0919 65.1485 20.0919C64.8118 20.0919 64.4675 20.1043 64.1175 20.119V19.9119H64.1937C64.3509 19.9119 64.6195 19.8852 64.6195 19.7133C64.6195 19.6242 64.5575 19.439 64.4809 19.2185L64.2137 18.4219H62.6552L62.436 19.1366ZM63.4379 16.0938H63.4241L62.7855 18.0376H64.0689L63.4379 16.0938Z" fill="#211E1F"/>
<path d="M66.0934 20.1468C65.7843 20.133 65.4753 20.1187 65.1481 20.1187C64.8115 20.1187 64.4695 20.133 64.1181 20.1468L64.0871 20.1487V20.1177V19.8801H64.1172H64.1929C64.3519 19.8801 64.5881 19.8439 64.5881 19.7121C64.59 19.6339 64.5281 19.4454 64.4524 19.2268L64.1909 18.4502H62.6762L62.4629 19.1439C62.3933 19.3782 62.311 19.5597 62.3115 19.6716C62.3138 19.8392 62.5705 19.8801 62.7981 19.8801H62.9038V19.9111V20.1487L62.8729 20.1468C62.5981 20.133 62.3176 20.1187 62.0438 20.1187C61.7976 20.1187 61.5501 20.133 61.3039 20.1468L61.272 20.1487V20.1177V19.8801H61.3019H61.3429C61.5986 19.8792 61.812 19.734 61.911 19.4545L63.0105 16.3026C63.1006 16.0478 63.2244 15.7054 63.2839 15.4316C63.4991 15.3587 63.7748 15.2207 63.9072 15.1368C63.9263 15.1307 63.9454 15.1211 63.9735 15.1211C63.9901 15.1207 64.0272 15.1249 64.0492 15.1612C64.0687 15.2178 64.0901 15.2788 64.111 15.3345L65.3758 18.9265C65.4568 19.1674 65.5387 19.4212 65.6283 19.624C65.7078 19.8074 65.834 19.8793 66.0549 19.8802H66.1249V19.9112V20.1488L66.0934 20.1468ZM64.1471 20.0854C64.4872 20.0735 64.82 20.0601 65.1481 20.0601C65.4671 20.0601 65.7657 20.0735 66.0642 20.0854V19.942H66.0547C65.8195 19.9434 65.6571 19.8511 65.5728 19.6487C65.4833 19.4401 65.3995 19.1854 65.3191 18.9449L64.0547 15.3535C64.0338 15.2987 64.0138 15.2363 63.9957 15.1877C63.99 15.1811 63.9914 15.1811 63.9857 15.1811H63.9733C63.959 15.1811 63.9509 15.1854 63.9333 15.1901C63.8009 15.2763 63.5253 15.4111 63.3218 15.4649C63.2795 15.7249 63.1562 16.0677 63.0666 16.322L61.9676 19.4744C61.8629 19.7725 61.6224 19.9425 61.3429 19.942H61.3319V20.0854C61.5671 20.0735 61.8052 20.0601 62.0438 20.0601C62.309 20.0601 62.5805 20.0735 62.8424 20.0854V19.942H62.7981C62.5748 19.9391 62.2624 19.9139 62.2538 19.6715C62.2543 19.5344 62.3386 19.3587 62.4056 19.1268L62.4357 19.1358L62.4056 19.1258L62.6318 18.3915H64.2328L64.5085 19.2077C64.5857 19.4282 64.648 19.6111 64.648 19.712C64.6385 19.923 64.3485 19.9377 64.1928 19.942H64.1471L64.1471 20.0854ZM62.7434 18.0658L63.4009 16.0625H63.4238H63.4381H63.4586L64.1105 18.0658H62.7434ZM62.8257 18.0063H64.0276L63.4299 16.1658L62.8257 18.0063Z" fill="#211E1F"/>
<path d="M66.3976 15.6655C65.8823 15.6655 65.8619 15.7894 65.7584 16.2903H65.5522C65.5794 16.0984 65.6142 15.9065 65.6357 15.7065C65.6632 15.5141 65.6757 15.3226 65.6757 15.1236H65.8413C65.8961 15.3298 66.0685 15.3227 66.2528 15.3227H69.7971C69.9814 15.3227 70.1529 15.316 70.1671 15.1094L70.3314 15.137C70.3051 15.3227 70.2781 15.5079 70.2571 15.6936C70.2423 15.8789 70.2423 16.0646 70.2423 16.2493L70.0366 16.326C70.0237 16.0722 69.9895 15.6655 69.529 15.6655H68.4028V19.3198C68.4028 19.8493 68.6438 19.9099 68.9724 19.9099H69.1028V20.117C68.8352 20.117 68.3552 20.0899 67.9837 20.0899C67.5723 20.0899 67.0909 20.117 66.8233 20.117V19.9099H66.9533C67.3318 19.9099 67.5242 19.876 67.5242 19.3341V15.6655H66.3976Z" fill="#211E1F"/>
<path d="M69.1025 20.1496C68.8329 20.1496 68.352 20.122 67.9834 20.122C67.5729 20.122 67.0919 20.1496 66.8229 20.1496H66.7925V20.1206V19.8839H66.8229H66.9529C67.3314 19.8748 67.4834 19.8701 67.4929 19.3376L67.4919 15.6991H66.3972V15.6691V15.6386H67.5524V19.3376C67.5524 19.8886 67.33 19.9429 66.9529 19.9443H66.852V20.091C67.1238 20.0881 67.5848 20.0634 67.9834 20.0634C68.3419 20.0634 68.801 20.0882 69.0724 20.091V19.9443H68.971C68.6409 19.9429 68.3734 19.8634 68.3725 19.3234V15.6386H69.5286C69.9896 15.6405 70.05 16.0324 70.0629 16.2872L70.2129 16.2324C70.2129 16.0534 70.2134 15.8738 70.2267 15.6938C70.2458 15.5172 70.2714 15.341 70.2968 15.1657L70.1929 15.1481C70.1615 15.3481 69.9677 15.3591 69.7968 15.3562H66.2524H66.2177C66.0558 15.3581 65.8805 15.3486 65.8181 15.1557H65.7058C65.7038 15.3462 65.6909 15.531 65.6638 15.7138C65.6458 15.9029 65.6119 16.0848 65.5862 16.2653H65.7334C65.8243 15.7866 65.8839 15.6314 66.3972 15.6386V15.6691L66.3971 15.6991C65.8881 15.7077 65.8996 15.7938 65.7871 16.3015L65.7819 16.3248H65.7581H65.5171L65.5214 16.2905C65.5499 16.0967 65.5842 15.9052 65.6042 15.7066C65.6323 15.5147 65.6457 15.3243 65.6457 15.1271V15.0971H65.6752H65.8628L65.8685 15.1186C65.9166 15.2919 66.0418 15.2928 66.2176 15.2957L66.2523 15.2966H69.7967C69.9862 15.2929 70.1247 15.29 70.1366 15.111L70.1386 15.0781L70.1709 15.0848L70.3657 15.1153L70.3605 15.1453C70.3324 15.3291 70.3062 15.5148 70.2853 15.6991C70.2714 15.882 70.2714 16.0682 70.2714 16.2529V16.2744L70.252 16.282L70.0086 16.3706L70.0072 16.3305C69.9896 16.0725 69.9624 15.6991 69.5286 15.6991H68.432V19.3234C68.4391 19.8415 68.6443 19.8772 68.971 19.8838H69.1319V19.9134V20.1496L69.1025 20.1496Z" fill="#211E1F"/>
<path d="M70.5847 19.9114H70.681C70.929 19.9114 71.1885 19.8781 71.1885 19.5204V15.9223C71.1885 15.5642 70.929 15.5304 70.681 15.5304H70.5847V15.3242C70.8529 15.3242 71.2643 15.3514 71.6 15.3514C71.9447 15.3514 72.3567 15.3242 72.6795 15.3242V15.5304H72.5833C72.3362 15.5304 72.0743 15.5642 72.0743 15.9223V19.5204C72.0743 19.8781 72.3362 19.9114 72.5833 19.9114H72.6795V20.1186C72.3495 20.1186 71.9371 20.0914 71.5948 20.0914C71.2576 20.0914 70.8529 20.1186 70.5847 20.1186V19.9114Z" fill="#211E1F"/>
<path d="M72.6799 20.1497C72.348 20.1497 71.937 20.1216 71.5947 20.1216C71.2589 20.1216 70.8533 20.1497 70.5851 20.1497H70.5552V20.1207V19.9135V19.884H70.5851H70.6814C70.9294 19.8802 71.1571 19.8588 71.158 19.5226V15.9244C71.1571 15.5892 70.9294 15.5663 70.6814 15.5616H70.5552V15.5326V15.2969H70.5851C70.8533 15.2969 71.2657 15.3231 71.6004 15.3231C71.9428 15.3231 72.3547 15.2969 72.6799 15.2969H72.709V15.3264V15.5616H72.6799H72.5837C72.3327 15.5664 72.1075 15.5892 72.1042 15.9244V19.5226C72.1075 19.8588 72.3328 19.8802 72.5837 19.884H72.709V19.9135V20.1497H72.6799ZM72.649 20.0897V19.9444H72.5837C72.3375 19.9444 72.0461 19.9012 72.0461 19.5226V15.9244C72.0461 15.5449 72.3375 15.5021 72.5837 15.5021H72.649V15.3564C72.3318 15.3583 71.9352 15.383 71.6004 15.383C71.2751 15.383 70.8813 15.3583 70.6152 15.3564V15.5021H70.6814C70.9257 15.5021 71.2181 15.5449 71.219 15.9244V19.5226C71.218 19.9011 70.9257 19.9444 70.6814 19.9444H70.6152V20.0897C70.88 20.0868 71.2686 20.0635 71.5947 20.0635C71.9276 20.0635 72.3252 20.0883 72.649 20.0897Z" fill="#211E1F"/>
<path d="M75.4181 15.2227C76.8819 15.2227 78.0485 16.1303 78.0485 17.5927C78.0485 19.1727 76.9156 20.2227 75.4538 20.2227C73.9966 20.2227 72.8853 19.2336 72.8853 17.7569C72.8853 16.3288 73.99 15.2227 75.4181 15.2227ZM75.5219 19.9203C76.8542 19.9203 77.0862 18.745 77.0862 17.7436C77.0862 16.7398 76.5452 15.5246 75.4048 15.5246C74.2029 15.5246 73.8462 16.596 73.8462 17.5155C73.8462 18.745 74.4091 19.9203 75.5219 19.9203Z" fill="#211E1F"/>
<path d="M72.854 17.7557C72.8569 16.3109 73.975 15.1933 75.4173 15.1914V15.2214V15.2504C74.006 15.2504 72.9135 16.3424 72.9122 17.7556C72.9155 19.2156 74.0112 20.1899 75.4531 20.1904C76.9007 20.1899 78.0174 19.1547 78.0197 17.59C78.0183 16.1462 76.8692 15.2523 75.4174 15.2504V15.2214V15.1914C76.8926 15.1924 78.075 16.109 78.0779 17.59C78.0765 19.1866 76.9288 20.2476 75.4531 20.2504C73.9845 20.2475 72.8569 19.2485 72.8541 17.7556H72.854V17.7557ZM73.816 17.5143C73.8179 16.5905 74.1788 15.4924 75.4045 15.4924C76.5702 15.4953 77.1145 16.7334 77.1164 17.7424C77.1145 18.7438 76.8789 19.9476 75.5217 19.9476V19.9191V19.8895C76.8274 19.8876 77.0536 18.7438 77.0569 17.7424C77.0569 16.7467 76.5207 15.5548 75.4045 15.5533C74.2264 15.5547 73.8778 16.5995 73.8755 17.5143C73.8765 18.7376 74.4341 19.8866 75.5217 19.8895V19.9191V19.9476C74.3817 19.9462 73.8179 18.751 73.816 17.5143Z" fill="#211E1F"/>
<path d="M82.6764 18.7647L82.6902 18.7514V16.1762C82.6902 15.6124 82.2979 15.5305 82.0917 15.5305H81.9431V15.3242C82.265 15.3242 82.5807 15.3514 82.9026 15.3514C83.185 15.3514 83.4664 15.3242 83.7483 15.3242V15.5305H83.6445C83.3568 15.5305 83.0335 15.5852 83.0335 16.4024V19.5281C83.0335 19.7681 83.0402 20.0081 83.075 20.221H82.8145L79.2773 16.2786V19.1086C79.2773 19.7062 79.3935 19.9115 79.9221 19.9115H80.0397V20.1186C79.744 20.1186 79.4493 20.0915 79.154 20.0915C78.8449 20.0915 78.5283 20.1186 78.2192 20.1186V19.9115H78.3159C78.7907 19.9115 78.933 19.5895 78.933 19.0405V16.1476C78.933 15.7634 78.6187 15.5305 78.3087 15.5305H78.2192V15.3243C78.4801 15.3243 78.7482 15.3514 79.0088 15.3514C79.215 15.3514 79.4135 15.3243 79.6202 15.3243L82.6764 18.7647Z" fill="#211E1F"/>
<path d="M83.075 20.2525L82.7908 20.2425L79.3065 16.3583V19.1107C79.314 19.7078 79.405 19.8769 79.9207 19.8831H80.0693V19.914V20.1497H80.0393C79.7416 20.1497 79.4469 20.1221 79.1536 20.1221C78.8454 20.1221 78.5302 20.1497 78.2183 20.1497H78.1897V20.1202V19.8831H78.2183H78.3155C78.7683 19.8817 78.8983 19.5903 78.904 19.0426V16.1497C78.903 15.784 78.6035 15.5621 78.3083 15.5616H78.1897V15.5326V15.2969H78.2183C78.4816 15.2969 78.7492 15.3231 79.0083 15.3231C79.2121 15.3231 79.4102 15.2969 79.6426 15.3069L82.6597 18.7045V16.1788C82.6578 15.6322 82.2921 15.5664 82.0911 15.5617H81.9107V15.5327V15.297H81.9417C82.2649 15.297 82.5816 15.3232 82.9011 15.3232C83.183 15.3232 83.463 15.297 83.7478 15.297H83.7773V15.3264V15.5617H83.7478H83.6439C83.3615 15.5698 83.0692 15.5955 83.0635 16.4045V19.5298C83.0635 19.7698 83.0687 20.0093 83.1021 20.2193L83.1077 20.2526H83.075V20.2525ZM82.8142 20.1925H83.0389C83.0089 19.9864 83.0037 19.7578 83.0037 19.5297V16.4044C83.0037 15.5787 83.3499 15.504 83.6442 15.5016H83.7184V15.3564C83.4475 15.3583 83.1761 15.383 82.9014 15.383C82.5889 15.383 82.2817 15.3583 81.9708 15.3564V15.5016H82.0913C82.3042 15.504 82.7184 15.5978 82.7184 16.1787L82.7109 18.774L82.698 18.7883L82.6761 18.8102L79.6199 15.3564C79.4176 15.3564 79.217 15.3831 79.0085 15.3831C78.7556 15.3831 78.498 15.3583 78.248 15.3564V15.5016H78.3085C78.6309 15.504 78.9627 15.7474 78.9627 16.1497V19.0426C78.9627 19.5916 78.8095 19.9431 78.3156 19.945L78.248 19.9444V20.0897C78.5461 20.0883 78.8518 20.0635 79.1537 20.0635C79.4399 20.0635 79.7242 20.0883 80.0095 20.0897V19.945H79.9208C79.3819 19.9444 79.2471 19.7078 79.2471 19.1106V16.2035L82.8142 20.1925ZM82.6598 18.7535V18.7511L82.6541 18.7459L82.6598 18.7535Z" fill="#211E1F"/>
<path d="M84.8514 19.1366C84.7843 19.3695 84.7009 19.5495 84.7009 19.6719C84.7009 19.8785 84.99 19.9119 85.2153 19.9119H85.2919V20.119C85.0171 20.1042 84.7353 20.0919 84.4605 20.0919C84.2124 20.0919 83.9662 20.1043 83.72 20.119V19.9119H83.759C84.0281 19.9119 84.2557 19.7542 84.3572 19.4652L85.4572 16.3137C85.5457 16.0594 85.67 15.7161 85.7101 15.4614C85.93 15.3866 86.2043 15.2495 86.3362 15.1666C86.3557 15.1595 86.3695 15.1523 86.3905 15.1523C86.411 15.1523 86.4238 15.1523 86.4376 15.1738C86.4585 15.2281 86.4801 15.2904 86.5005 15.3452L87.7634 18.9376C87.8457 19.1776 87.9277 19.4314 88.0181 19.6381C88.1005 19.8304 88.2453 19.9119 88.471 19.9119H88.5129V20.119C88.2034 20.1042 87.8943 20.0919 87.5643 20.0919C87.2286 20.0919 86.8848 20.1043 86.5343 20.119V19.9119H86.6106C86.7672 19.9119 87.0367 19.8852 87.0367 19.7133C87.0367 19.6242 86.9743 19.439 86.8977 19.2185L86.631 18.4219H85.072L84.8514 19.1366ZM85.8552 16.0938H85.8414L85.2019 18.0376H86.4871L85.8552 16.0938Z" fill="#211E1F"/>
<path d="M88.51 20.1497C88.2009 20.1373 87.8924 20.1221 87.5643 20.1221C87.2295 20.1221 86.8857 20.1373 86.5352 20.1497L86.5048 20.1516V20.1202V19.884H86.5343H86.609C86.769 19.884 87.0057 19.8468 87.0062 19.7149C87.0076 19.6368 86.9457 19.4497 86.8691 19.2297L86.6081 18.453H85.0924L84.88 19.1468C84.8115 19.382 84.7295 19.5625 84.731 19.6735C84.731 19.8421 84.988 19.884 85.2153 19.884H85.32V19.9135V20.1516L85.2896 20.1497C85.0147 20.1373 84.7338 20.1221 84.4605 20.1221C84.2143 20.1221 83.9676 20.1373 83.72 20.1497L83.6899 20.1516V20.1202V19.884H83.72H83.759C84.0152 19.883 84.2295 19.7359 84.3295 19.4573L85.4286 16.3054C85.5162 16.0507 85.6399 15.7083 85.7009 15.4354C85.9167 15.3607 86.1923 15.2235 86.3257 15.1397C86.3437 15.1335 86.3624 15.1254 86.3904 15.1254C86.4086 15.1235 86.4437 15.1278 86.4657 15.1654C86.4861 15.2192 86.5061 15.2816 86.529 15.3373L87.7918 18.9292C87.8738 19.1702 87.9562 19.424 88.0452 19.6283C88.1256 19.8102 88.2509 19.8821 88.4699 19.884H88.5414V19.9135V20.1516L88.51 20.1497ZM86.5638 20.0892C86.9033 20.0763 87.2377 20.063 87.5643 20.063C87.8838 20.063 88.1834 20.0763 88.4824 20.0882L88.4814 19.9448H88.47C88.2376 19.9454 88.0753 19.8539 87.99 19.6516C87.8995 19.443 87.8177 19.1882 87.7357 18.9487L86.4718 15.3563C86.4514 15.3016 86.4305 15.2392 86.4138 15.1925C86.408 15.1839 86.4086 15.1839 86.4033 15.1839H86.3904C86.3762 15.1839 86.3685 15.1887 86.3518 15.1935C86.218 15.2778 85.9427 15.4148 85.7395 15.4678C85.697 15.7278 85.5723 16.0701 85.4838 16.3249L84.3843 19.4773C84.2799 19.7754 84.04 19.9454 83.759 19.9448H83.7489V20.0882C83.9852 20.0763 84.2213 20.063 84.4604 20.063C84.7266 20.063 84.9975 20.0763 85.2618 20.0882V19.9448H85.2152C84.9919 19.942 84.6785 19.9178 84.6705 19.6735C84.6718 19.5373 84.757 19.3625 84.8233 19.1297L84.8514 19.1387L84.8233 19.1287L85.0495 18.3944H86.6509L86.9261 19.2106C87.0018 19.4316 87.0642 19.6139 87.0642 19.7149C87.0542 19.9258 86.7661 19.9406 86.6089 19.9448H86.5637V20.0892H86.5638ZM85.1609 18.0683L85.8195 16.0654H85.8404H85.8552H85.8767L86.5257 18.0683H85.1609ZM85.2433 18.0092H86.4443L85.8471 16.1697L85.2433 18.0092Z" fill="#211E1F"/>
<path d="M90.2433 19.4452C90.2433 19.72 90.4338 19.8018 90.6538 19.8299C90.9352 19.8509 91.2443 19.8509 91.5615 19.8161C91.8491 19.7814 92.0967 19.6166 92.2195 19.4452C92.3291 19.2937 92.391 19.1014 92.4324 18.9504H92.6314C92.5562 19.3418 92.46 19.7276 92.3772 20.1185C91.7743 20.1185 91.1686 20.0914 90.5652 20.0914C89.96 20.0914 89.3567 20.1185 88.7524 20.1185V19.9113H88.8467C89.0953 19.9113 89.3639 19.878 89.3639 19.4518V15.9223C89.3639 15.5642 89.0952 15.5304 88.8467 15.5304H88.7524V15.3242C89.1153 15.3242 89.4729 15.3514 89.8362 15.3514C90.1876 15.3514 90.5305 15.3242 90.881 15.3242V15.5304H90.7081C90.4481 15.5304 90.2433 15.538 90.2433 15.9009V19.4452Z" fill="#211E1F"/>
<path d="M92.3774 20.1497C91.7722 20.1497 91.168 20.1221 90.5656 20.1221C89.9607 20.1221 89.3565 20.1497 88.7513 20.1497H88.7222V20.1202V19.884H88.7513H88.847C89.096 19.8783 89.3313 19.8611 89.3341 19.454V15.9231C89.3312 15.5893 89.0974 15.5664 88.847 15.5616H88.7222V15.5326V15.2969H88.7513C89.1165 15.2969 89.4741 15.3231 89.8369 15.3231C90.1855 15.3231 90.5284 15.2969 90.8812 15.2969H90.9094V15.3264V15.5616H90.8812H90.7089C90.4427 15.5692 90.277 15.5568 90.2717 15.9031V19.4474C90.2736 19.7031 90.4413 19.7721 90.6556 19.8021C90.777 19.8107 90.9041 19.8159 91.0366 19.8159C91.2046 19.8159 91.3794 19.8078 91.5566 19.7888C91.8365 19.756 92.0775 19.5945 92.1956 19.4307C92.3013 19.284 92.3623 19.0954 92.4032 18.9454L92.4094 18.9226H92.4322H92.668L92.6617 18.9588C92.5842 19.3517 92.4899 19.7355 92.4066 20.1264L92.4009 20.1498H92.3776H92.3774V20.1497ZM92.3526 20.0897C92.4322 19.7173 92.5222 19.353 92.596 18.9815H92.455C92.4122 19.1311 92.3512 19.3154 92.2432 19.4654C92.115 19.6434 91.8607 19.8111 91.5631 19.8477C91.3832 19.8663 91.205 19.8758 91.0365 19.8758C90.9036 19.8758 90.7746 19.8696 90.6503 19.861C90.427 19.8363 90.2103 19.741 90.2113 19.4473V15.903C90.2113 15.5215 90.4526 15.502 90.7088 15.502H90.8507V15.3563C90.5122 15.3582 90.1789 15.3834 89.8369 15.3834C89.4812 15.3834 89.1335 15.3582 88.7812 15.3563V15.502H88.8469C89.0922 15.502 89.3921 15.5449 89.3921 15.923V19.4539C89.3921 19.8982 89.0935 19.9444 88.8469 19.9444H88.7812V20.0896C89.375 20.0892 89.9688 20.0634 90.5655 20.0634C91.1622 20.0634 91.7585 20.0892 92.3526 20.0897Z" fill="#211E1F"/>
<path d="M92.5481 15.1289C92.9619 15.1289 93.2709 15.447 93.2709 15.8546C93.2709 16.2603 92.9619 16.5756 92.5481 16.5756C92.1342 16.5756 91.8247 16.2603 91.8247 15.8546C91.8247 15.447 92.1342 15.1289 92.5481 15.1289ZM92.5481 16.4408C92.8714 16.4408 93.12 16.1646 93.12 15.8546C93.12 15.5427 92.8752 15.2641 92.5481 15.2641C92.2229 15.2641 91.9742 15.5428 91.9742 15.8546C91.9742 16.1646 92.2229 16.4408 92.5481 16.4408ZM92.188 16.2356V16.1999C92.277 16.1875 92.2932 16.1903 92.2932 16.1351V15.5999C92.2932 15.5247 92.2851 15.499 92.1914 15.5027V15.466H92.5614C92.689 15.466 92.8056 15.5265 92.8056 15.658C92.8056 15.7656 92.7342 15.8451 92.6347 15.876L92.7532 16.0417C92.8089 16.117 92.8713 16.1875 92.9128 16.2122V16.2355H92.7719C92.7042 16.2355 92.6452 16.0931 92.5118 15.9022H92.4318V16.1427C92.4318 16.1903 92.4485 16.1874 92.5376 16.1998V16.2355L92.188 16.2356ZM92.4318 15.8546H92.5171C92.6104 15.8546 92.6542 15.7837 92.6542 15.6699C92.6542 15.5546 92.5866 15.5141 92.5123 15.5141H92.4318V15.8546Z" fill="#211E1F"/>
<path d="M18.399 24C24.9585 24.0314 30.9457 18.6504 30.9457 12.1043C30.9457 4.94571 24.9585 -0.00238009 18.399 8.58885e-07H12.7538C6.11567 -0.00238009 0.651855 4.94719 0.651855 12.1043C0.651855 18.6519 6.11567 24.0314 12.7538 24H18.399Z" fill="#0079BE"/>
<path d="M12.7807 0.992188C6.71501 0.994092 1.79977 5.91076 1.79834 11.9789C1.79977 18.046 6.71496 22.9622 12.7807 22.9641C18.8479 22.9622 23.7641 18.046 23.765 11.9789C23.7641 5.91076 18.8479 0.994092 12.7807 0.992188ZM5.81929 11.9789C5.82501 9.01366 7.67691 6.48509 10.2883 5.48028V18.476C7.67691 17.4718 5.82496 14.9446 5.81929 11.9789ZM15.2722 18.4789V5.47985C17.8845 6.48223 19.7393 9.01223 19.7441 11.9789C19.7393 14.9465 17.8845 17.4746 15.2722 18.4789Z" fill="white"/>
<path d="M34.7929 5.16267C34.7929 4.02739 34.201 4.10215 33.6333 4.08981V3.76172C34.1253 3.786 34.6295 3.786 35.1224 3.786C35.6524 3.786 36.372 3.76172 37.3062 3.76172C40.5738 3.76172 42.3533 5.94458 42.3533 8.17977C42.3533 9.42977 41.622 12.5721 37.1543 12.5721C36.511 12.5721 35.9172 12.5473 35.3243 12.5473C34.7567 12.5473 34.201 12.5598 33.6333 12.5721V12.2445C34.39 12.1683 34.7567 12.1431 34.7929 11.2845L34.7929 5.16267ZM36.0301 11.0831C36.0301 12.055 36.7248 12.1683 37.3429 12.1683C40.0696 12.1683 40.9648 10.1107 40.9648 8.22977C40.9648 5.87024 39.4501 4.16643 37.0149 4.16643C36.4968 4.16643 36.2587 4.20358 36.0301 4.21696L36.0301 11.0831Z" fill="#211E1F"/>
<path d="M42.7954 12.2474H43.0345C43.3873 12.2474 43.6402 12.2474 43.6402 11.8298V8.40981C43.6402 7.8551 43.4511 7.7779 42.984 7.52695V7.32457C43.5769 7.14648 44.2846 6.90838 44.334 6.87029C44.4231 6.81981 44.4983 6.80648 44.5616 6.80648C44.6241 6.80648 44.6502 6.88267 44.6502 6.9841V11.8298C44.6502 12.2474 44.9278 12.2474 45.2812 12.2474H45.4955V12.5755C45.0659 12.5755 44.624 12.5503 44.1707 12.5503C43.7164 12.5503 43.2617 12.5627 42.7955 12.5755V12.2474H42.7954ZM44.1454 4.8631C43.8169 4.8631 43.5274 4.56029 43.5274 4.23214C43.5274 3.91595 43.8302 3.625 44.1454 3.625C44.4726 3.625 44.764 3.89124 44.764 4.23214C44.764 4.5731 44.4855 4.8631 44.1454 4.8631Z" fill="#211E1F"/>
<path d="M46.6948 8.48326C46.6948 8.01659 46.5552 7.89088 45.9633 7.65088V7.4114C46.5057 7.23474 47.0224 7.07045 47.6285 6.80473C47.6662 6.80473 47.7033 6.83045 47.7033 6.93093V7.75183C48.4238 7.23474 49.0424 6.80469 49.889 6.80469C50.9604 6.80469 51.339 7.5875 51.339 8.57178V11.828C51.339 12.2456 51.6166 12.2456 51.9704 12.2456H52.1976V12.5737C51.7547 12.5737 51.3133 12.5485 50.86 12.5485C50.4051 12.5485 49.9503 12.5609 49.4966 12.5737V12.2456H49.7232C50.0775 12.2456 50.3285 12.2456 50.3285 11.828V8.55988C50.3285 7.8394 49.889 7.48654 49.1685 7.48654C48.7652 7.48654 48.1213 7.81469 47.7032 8.09273V11.8279C47.7032 12.2456 47.9822 12.2456 48.3361 12.2456H48.5628V12.5737C48.1213 12.5737 47.679 12.5484 47.2247 12.5484C46.7709 12.5484 46.3157 12.5609 45.8618 12.5737V12.2456H46.0894C46.4428 12.2456 46.6947 12.2456 46.6947 11.8279V8.48326H46.6948Z" fill="#211E1F"/>
<path d="M53.1571 9.08993C53.1308 9.20378 53.1308 9.39278 53.1571 9.82231C53.2314 11.0209 54.0033 12.0052 55.0113 12.0052C55.7061 12.0052 56.2499 11.6266 56.7161 11.16L56.8923 11.3371C56.3114 12.1066 55.5922 12.7628 54.558 12.7628C52.5508 12.7628 52.147 10.8185 52.147 10.0114C52.147 7.53707 53.8127 6.80469 54.6955 6.80469C55.7184 6.80469 56.817 7.44807 56.8289 8.78612C56.8289 8.86278 56.8289 8.93754 56.817 9.01421L56.7027 9.08993H53.1571ZM55.3914 8.68569C55.7061 8.68569 55.7433 8.5214 55.7433 8.37045C55.7433 7.72659 55.3523 7.20897 54.6452 7.20897C53.8761 7.20897 53.3461 7.77612 53.1946 8.68569H55.3914Z" fill="#211E1F"/>
<path d="M57.1196 12.2457H57.4606C57.8129 12.2457 58.0653 12.2457 58.0653 11.828V8.28183C58.0653 7.89088 57.5992 7.81469 57.4092 7.71373V7.52516C58.3306 7.13326 58.8358 6.80469 58.9505 6.80469C59.0253 6.80469 59.0624 6.84278 59.0624 6.96945V8.10516H59.0892C59.4039 7.61326 59.9349 6.80469 60.7039 6.80469C61.0196 6.80469 61.423 7.01897 61.423 7.47374C61.423 7.81469 61.1839 8.1185 60.8306 8.1185C60.4378 8.1185 60.4378 7.81469 59.9968 7.81469C59.7821 7.81469 59.0759 8.10516 59.0759 8.86278V11.828C59.0759 12.2456 59.3277 12.2456 59.6815 12.2456H60.3877V12.5738C59.6934 12.5609 59.1653 12.5485 58.6215 12.5485C58.1044 12.5485 57.5739 12.5609 57.1197 12.5738L57.1196 12.2457Z" fill="#211E1F"/>
<path d="M61.9782 10.8184C62.1425 11.6518 62.6468 12.359 63.5686 12.359C64.3115 12.359 64.5895 11.9047 64.5895 11.4628C64.5895 9.97326 61.8391 10.4528 61.8391 8.42088C61.8391 7.71373 62.4076 6.80469 63.7953 6.80469C64.1986 6.80469 64.7409 6.91897 65.2328 7.17183L65.3224 8.45807H65.0315C64.9057 7.66373 64.4643 7.20902 63.6557 7.20902C63.151 7.20902 62.6719 7.49954 62.6719 8.04188C62.6719 9.51997 65.5995 9.06426 65.5995 11.0457C65.5995 11.8785 64.9304 12.7628 63.4286 12.7628C62.9238 12.7628 62.3309 12.5862 61.8895 12.3343L61.7505 10.8824L61.9782 10.8184Z" fill="#211E1F"/>
<path d="M76.9961 6.04507H76.6813C76.4414 4.56888 75.3938 3.97507 73.9809 3.97507C72.5285 3.97507 70.4209 4.94646 70.4209 7.97555C70.4209 10.527 72.2394 12.3565 74.1823 12.3565C75.4313 12.3565 76.4671 11.4984 76.7194 10.1727L77.009 10.2479L76.7194 12.0907C76.1894 12.4198 74.7632 12.7603 73.9294 12.7603C70.9771 12.7603 69.1099 10.8542 69.1099 8.01412C69.1099 5.4265 71.4189 3.57031 73.8922 3.57031C74.9142 3.57031 75.8985 3.89984 76.8704 4.24079L76.9961 6.04507Z" fill="#211E1F"/>
<path d="M77.451 12.2459H77.6901C78.0439 12.2459 78.2972 12.2459 78.2972 11.8283V4.79878C78.2972 3.97783 78.1077 3.95254 77.6276 3.81397V3.61207C78.1324 3.44831 78.6624 3.22064 78.9277 3.06878C79.0653 2.99354 79.1672 2.92969 79.2043 2.92969C79.2815 2.92969 79.3067 3.00593 79.3067 3.10731V11.8283C79.3067 12.2459 79.5838 12.2459 79.9376 12.2459H80.1505V12.574C79.7234 12.574 79.2815 12.5488 78.8267 12.5488C78.3729 12.5488 77.9186 12.5612 77.4509 12.574V12.2459H77.451Z" fill="#211E1F"/>
<path d="M85.5538 11.8761C85.5538 12.1042 85.6919 12.1166 85.9061 12.1166C86.058 12.1166 86.2466 12.1042 86.4113 12.1042V12.3699C85.8681 12.4199 84.8333 12.6852 84.5932 12.7604L84.5299 12.7223V11.7009C83.7738 12.3189 83.1923 12.7604 82.2956 12.7604C81.6142 12.7604 80.9076 12.3189 80.9076 11.2594V8.02704C80.9076 7.69895 80.8576 7.38319 80.1519 7.32038V7.08038C80.6067 7.068 81.6143 6.99223 81.779 6.99223C81.919 6.99223 81.919 7.08038 81.919 7.358V10.6137C81.919 10.9932 81.919 12.0784 83.0161 12.0784C83.4452 12.0784 84.0128 11.7503 84.5424 11.3099V7.91271C84.5424 7.66128 83.9371 7.52271 83.4838 7.396V7.16885C84.6181 7.09266 85.3261 6.99219 85.4514 6.99219C85.5537 6.99219 85.5537 7.08028 85.5537 7.21981L85.5538 11.8761Z" fill="#211E1F"/>
<path d="M88.0652 7.71402C88.5695 7.28493 89.2508 6.80497 89.9456 6.80497C91.4098 6.80497 92.2923 8.08116 92.2923 9.45588C92.2923 11.1093 91.0813 12.763 89.2755 12.763C88.3422 12.763 87.8503 12.4597 87.5217 12.3215L87.1437 12.6111L86.8794 12.473C86.9913 11.7283 87.0556 10.9959 87.0556 10.2264V4.79874C87.0556 3.97783 86.8651 3.95254 86.386 3.81397V3.61207C86.8922 3.44831 87.4207 3.22064 87.686 3.06874C87.8251 2.9935 87.9255 2.92969 87.9646 2.92969C88.0398 2.92969 88.065 3.00593 88.065 3.10731V7.71397H88.0652V7.71402ZM88.0652 11.1469C88.0652 11.6269 88.5189 12.4355 89.3647 12.4355C90.7151 12.4355 91.2827 11.1093 91.2827 9.9855C91.2827 8.62264 90.2489 7.48693 89.2642 7.48693C88.7961 7.48693 88.4056 7.79026 88.0651 8.08116L88.0652 11.1469Z" fill="#211E1F"/>
<path d="M33.6184 19.9114H33.7151C33.9617 19.9114 34.2227 19.8781 34.2227 19.5204V15.9223C34.2227 15.5642 33.9617 15.5304 33.7151 15.5304H33.6184V15.3242C33.8865 15.3242 34.2984 15.3514 34.636 15.3514C34.9789 15.3514 35.3903 15.3242 35.7132 15.3242V15.5304H35.6165C35.3703 15.5304 35.1089 15.5642 35.1089 15.9223V19.5204C35.1089 19.8781 35.3703 19.9114 35.6165 19.9114H35.7132V20.1186C35.3836 20.1186 34.9708 20.0914 34.6284 20.0914C34.2918 20.0914 33.8865 20.1186 33.6184 20.1186V19.9114Z" fill="#211E1F"/>
<path d="M35.7134 20.1468C35.3814 20.1468 34.9701 20.1192 34.6281 20.1192C34.2924 20.1192 33.8886 20.1468 33.6186 20.1468H33.5891V20.1173V19.9111V19.8811H33.6186H33.7148C33.9638 19.8754 34.1905 19.8554 34.1929 19.5197V15.9215C34.1905 15.5858 33.9639 15.5634 33.7148 15.5587H33.5891V15.5297V15.293H33.6186C33.8886 15.293 34.3001 15.3201 34.6357 15.3201C34.9776 15.3201 35.3886 15.293 35.7134 15.293H35.7439V15.3244V15.5587H35.7134H35.6172C35.3681 15.5634 35.14 15.5858 35.1386 15.9215V19.5197C35.14 19.8554 35.3681 19.8754 35.6172 19.8811H35.7438V19.9111V20.1468H35.7134ZM35.6838 20.0882V19.9415H35.6172C35.372 19.9415 35.0801 19.8992 35.0786 19.5197V15.9215C35.08 15.542 35.3719 15.4992 35.6172 15.4992H35.6838V15.3534C35.3667 15.3534 34.9691 15.3801 34.6357 15.3801C34.3095 15.3801 33.9148 15.3554 33.6491 15.3534V15.4992H33.7148C33.9595 15.4992 34.2524 15.542 34.2524 15.9215V19.5197C34.2524 19.8992 33.9595 19.9415 33.7148 19.9415H33.6491V20.0882C33.9148 20.0854 34.3028 20.0606 34.6281 20.0606C34.9624 20.0606 35.36 20.0863 35.6838 20.0882Z" fill="#211E1F"/>
<path d="M40.4313 18.7647L40.4451 18.7514V16.1762C40.4451 15.6124 40.0532 15.5305 39.8475 15.5305H39.696V15.3242C40.0194 15.3242 40.3351 15.3514 40.6575 15.3514C40.9388 15.3514 41.2217 15.3242 41.5027 15.3242V15.5305H41.3998C41.1108 15.5305 40.7879 15.5852 40.7879 16.4024V19.5281C40.7879 19.7681 40.795 20.0081 40.8288 20.221H40.5675L37.0317 16.2786V19.1086C37.0317 19.7062 37.1475 19.9115 37.677 19.9115H37.7931V20.1186C37.4984 20.1186 37.2036 20.0915 36.9079 20.0915C36.5998 20.0915 36.2836 20.1186 35.9741 20.1186V19.9115H36.0703C36.5441 19.9115 36.688 19.5895 36.688 19.0405V16.1476C36.688 15.7634 36.3713 15.5305 36.0637 15.5305H35.9742V15.3243C36.2351 15.3243 36.5027 15.3514 36.7632 15.3514C36.9694 15.3514 37.1689 15.3243 37.3746 15.3243L40.4313 18.7647Z" fill="#211E1F"/>
<path d="M40.8284 20.2531L40.5452 20.2425L37.0604 16.3583V19.1107C37.0684 19.7078 37.1594 19.8774 37.6765 19.884H37.8237V19.9135V20.1497H37.7932C37.4961 20.1497 37.2004 20.1221 36.9074 20.1221C36.5998 20.1221 36.2846 20.1497 35.9732 20.1497H35.9432V20.1202V19.884H35.9732H36.0698C36.5236 19.8816 36.6532 19.5902 36.6584 19.0426V16.1502C36.6574 15.7845 36.3574 15.5626 36.0632 15.5616H35.9431V15.5312V15.2969H35.9731C36.2355 15.2969 36.5045 15.3231 36.7622 15.3231C36.9664 15.3231 37.1655 15.2969 37.3969 15.3069L40.415 18.7045V16.1788C40.4112 15.6322 40.047 15.5664 39.8469 15.5616H39.665V15.5312V15.2969H39.6955C40.0198 15.2969 40.336 15.3231 40.6569 15.3231C40.9364 15.3231 41.2179 15.2969 41.5017 15.2969H41.5317V15.3264V15.5616H41.5017H41.3993C41.116 15.5697 40.825 15.5944 40.817 16.4044V19.5297C40.817 19.7697 40.8241 20.0097 40.8574 20.2178L40.8641 20.253H40.8284V20.2531ZM40.5675 20.1925H40.7947C40.7638 19.9864 40.7585 19.7578 40.7585 19.5297V16.4044C40.7585 15.5802 41.1037 15.5021 41.3994 15.5021H41.4718V15.3564C41.2014 15.3583 40.9299 15.383 40.6571 15.383C40.3428 15.383 40.0371 15.3583 39.7262 15.3564L39.7257 15.5021H39.8471C40.0581 15.5021 40.4747 15.5964 40.4747 16.1788L40.4652 18.774L40.4514 18.7883L40.4281 18.8097L37.3743 15.3564C37.1705 15.3564 36.9714 15.383 36.7624 15.383C36.5104 15.383 36.2528 15.3583 36.0038 15.3564L36.0024 15.5021H36.0633C36.3857 15.5021 36.7166 15.7483 36.7166 16.1502V19.0425C36.7166 19.5915 36.5638 19.943 36.07 19.9449L36.0038 19.943V20.0911C36.3014 20.0882 36.6071 20.0634 36.9075 20.0634C37.1943 20.0634 37.4795 20.0883 37.7633 20.0911V19.9449H37.6766C37.1361 19.943 37.0019 19.7078 37.0014 19.1106V16.2034L40.5675 20.1925ZM40.4151 18.7531V18.7507L40.4094 18.7459L40.4151 18.7531Z" fill="#211E1F"/>
<path d="M42.5303 15.6694C42.0146 15.6694 41.9951 15.7933 41.8922 16.2942H41.686C41.7132 16.1023 41.7475 15.9104 41.7684 15.7104C41.796 15.518 41.8093 15.3265 41.8093 15.1275H41.9746C42.0298 15.3337 42.2013 15.3266 42.3875 15.3266H45.9298C46.1155 15.3266 46.287 15.3199 46.3013 15.1133L46.465 15.1409C46.4384 15.3266 46.4107 15.5119 46.3898 15.6975C46.3774 15.8828 46.3774 16.0685 46.3774 16.2532L46.1708 16.3299C46.1565 16.0761 46.1222 15.6694 45.6627 15.6694H44.5365V19.3237C44.5365 19.8532 44.777 19.9138 45.1055 19.9138H45.2365V20.1209C44.9688 20.1209 44.4875 20.0938 44.1174 20.0938C43.7056 20.0938 43.2241 20.1209 42.956 20.1209V19.9138H43.0869C43.4655 19.9138 43.6569 19.8799 43.6569 19.338V15.6694H42.5303Z" fill="#211E1F"/>
<path d="M45.2376 20.1496C44.9671 20.1496 44.4866 20.122 44.1176 20.122C43.7061 20.122 43.2257 20.1496 42.9561 20.1496H42.9276V20.1206V19.8839H42.9561H43.0871C43.4657 19.8749 43.618 19.8701 43.6266 19.3377V15.6992H42.5304V15.6691V15.6386H43.6862V19.3377C43.6862 19.8886 43.4643 19.9444 43.0871 19.9448H42.9862V20.0896C43.2571 20.0882 43.719 20.0634 44.1176 20.0634C44.4758 20.0634 44.9348 20.0882 45.2062 20.0896V19.9448H45.1057C44.7738 19.9444 44.5067 19.8629 44.5067 19.3234V15.6386H45.6629C46.1238 15.6406 46.1838 16.0325 46.199 16.2872L46.3471 16.2325C46.3471 16.0534 46.3481 15.8739 46.3605 15.6929C46.3805 15.5163 46.4057 15.341 46.4314 15.1658L46.3266 15.1482C46.2948 15.3482 46.1019 15.3582 45.929 15.3563H42.3876H42.3519C42.1904 15.3563 42.0138 15.3486 41.9523 15.1568H41.839C41.838 15.3468 41.8247 15.5311 41.7985 15.7139C41.7785 15.9025 41.747 16.0839 41.7213 16.2654H41.8685C41.959 15.7867 42.018 15.6315 42.5304 15.6387V15.6692V15.6992C42.0228 15.7082 42.0333 15.7939 41.9213 16.3016L41.9161 16.3249H41.8923H41.6519L41.6557 16.2892C41.6833 16.0968 41.7181 15.9053 41.7385 15.7053C41.7671 15.5148 41.7804 15.3244 41.7804 15.1272V15.0972H41.8095H41.998L42.0028 15.1186C42.05 15.292 42.1771 15.2929 42.3519 15.2958H42.3876H45.929C46.1205 15.2929 46.2595 15.2901 46.2714 15.1105L46.2742 15.0781L46.3052 15.0848L46.499 15.1153L46.4947 15.1453C46.467 15.3291 46.44 15.5148 46.42 15.6991C46.4061 15.882 46.4061 16.0677 46.4061 16.2529V16.2744L46.3871 16.282L46.1438 16.3705L46.1419 16.3305C46.1238 16.0724 46.0966 15.6991 45.6628 15.6991H44.5666V19.3234C44.5728 19.8415 44.7785 19.8772 45.1056 19.8838H45.2666V19.9134V20.1496L45.2376 20.1496Z" fill="#211E1F"/>
<path d="M46.6851 19.9114H46.7817C47.0284 19.9114 47.2898 19.8781 47.2898 19.5204V15.9223C47.2898 15.5642 47.0284 15.5304 46.7817 15.5304H46.6851V15.3242C47.1032 15.3242 47.8184 15.3514 48.3941 15.3514C48.9722 15.3514 49.6851 15.3242 50.1517 15.3242C50.1403 15.619 50.1465 16.0733 50.1669 16.3747L49.9598 16.4299C49.927 15.9838 49.8445 15.6271 49.1231 15.6271H48.1693V17.4257H48.9856C49.3974 17.4257 49.4874 17.1928 49.5279 16.821H49.7336C49.7203 17.09 49.7132 17.3576 49.7132 17.6253C49.7132 17.8867 49.7203 18.1472 49.7336 18.4081L49.5279 18.449C49.4874 18.0372 49.4665 17.7695 48.9922 17.7695H48.1694V19.369C48.1694 19.8162 48.5661 19.8162 49.0061 19.8162C49.8303 19.8162 50.1936 19.7605 50.3999 18.9786L50.5923 19.0257C50.5023 19.3905 50.4203 19.7538 50.3594 20.1186C49.9194 20.1186 49.1294 20.0914 48.5122 20.0914C47.8932 20.0914 47.0766 20.1186 46.6851 20.1186V19.9114Z" fill="#211E1F"/>
<path d="M50.3583 20.1497C49.9174 20.1497 49.1279 20.1216 48.5112 20.1216C47.8927 20.1216 47.0764 20.1497 46.6845 20.1497H46.6555V20.1207V19.9135V19.884H46.6845H46.7808C47.0298 19.8802 47.2555 19.8583 47.2589 19.5226V15.9244C47.2555 15.5892 47.0298 15.5668 46.7808 15.5616H46.6555V15.5326V15.2969H46.6845C47.1036 15.2969 47.8179 15.3231 48.3936 15.3231C48.9711 15.3231 49.6836 15.2969 50.1512 15.2969H50.1821L50.1807 15.3274C50.1759 15.4307 50.174 15.5525 50.174 15.6821C50.174 15.9197 50.1807 16.1792 50.1945 16.375L50.1955 16.3997L50.1726 16.4064L49.9312 16.4693L49.9298 16.4341C49.8893 15.9884 49.8298 15.665 49.1227 15.6584H48.1975L48.1965 17.3969H48.9851C49.3804 17.3931 49.4512 17.1907 49.4979 16.8207L49.5004 16.7936H49.527H49.7637L49.7632 16.8245C49.7499 17.0921 49.7413 17.3597 49.7413 17.6274C49.7413 17.8874 49.7499 18.1478 49.7632 18.4093L49.7637 18.4336L49.7389 18.4393L49.5004 18.4869L49.4979 18.4545C49.4508 18.0354 49.4474 17.8059 48.9912 17.8007L48.1974 17.8002V19.3712C48.198 19.7883 48.5579 19.7859 49.0056 19.7883C49.8322 19.7835 50.1637 19.7436 50.3708 18.9721L50.3775 18.9445L50.4065 18.9497L50.6266 19.0064L50.6198 19.035C50.5313 19.3988 50.4489 19.7616 50.3874 20.1254L50.3818 20.1497H50.3583ZM50.3331 20.0897C50.3927 19.7435 50.4711 19.3959 50.5555 19.0502L50.4198 19.0159C50.2141 19.7845 49.8159 19.853 49.0055 19.8478C48.5731 19.8478 48.1398 19.8478 48.1378 19.3711V17.7416H48.9912C49.4707 17.7364 49.5198 18.0259 49.5536 18.4168L49.7022 18.3859C49.6888 18.133 49.6827 17.8792 49.6827 17.6273C49.6827 17.3687 49.6888 17.1116 49.7022 16.853H49.5536C49.5155 17.2106 49.4036 17.4621 48.985 17.4573H48.1379V15.5983H49.1227C49.837 15.5934 49.9555 15.9621 49.986 16.394L50.1341 16.354C50.1222 16.1602 50.114 15.9116 50.114 15.6821C50.114 15.5644 50.1169 15.4535 50.1208 15.3564C49.6541 15.3583 48.9589 15.383 48.3936 15.383C47.8293 15.383 47.1346 15.3583 46.7141 15.3564V15.5021H46.7807C47.0255 15.5021 47.3179 15.5449 47.3188 15.9244V19.5226C47.3179 19.9012 47.0255 19.9431 46.7807 19.945H46.7141V20.0897C47.1146 20.0892 47.9079 20.0635 48.5112 20.0635C49.1169 20.0635 49.8902 20.0892 50.3331 20.0897Z" fill="#211E1F"/>
<path d="M51.5182 16.0523C51.5182 15.5514 51.2439 15.5309 51.0301 15.5309H50.9067V15.3242C51.1267 15.3242 51.5519 15.3518 51.971 15.3518C52.3829 15.3518 52.7129 15.3242 53.0763 15.3242C53.941 15.3242 54.7111 15.558 54.7111 16.5342C54.7111 17.1509 54.2992 17.529 53.7567 17.7428L54.9305 19.4999C55.1229 19.7904 55.2596 19.8718 55.5967 19.9118V20.119C55.3701 20.119 55.15 20.0918 54.9238 20.0918C54.711 20.0918 54.4905 20.119 54.2785 20.119C53.75 19.4252 53.2957 18.6833 52.8495 17.8928H52.3977V19.3633C52.3977 19.8928 52.6439 19.9118 52.9595 19.9118H53.0834V20.119C52.691 20.119 52.2944 20.0919 51.9024 20.0919C51.5724 20.0919 51.2495 20.119 50.9067 20.119V19.9118H51.0301C51.2853 19.9118 51.5182 19.7966 51.5182 19.5418V16.0523ZM52.3976 17.6456H52.7329C53.42 17.6456 53.79 17.3847 53.79 16.5742C53.79 15.9637 53.3991 15.5718 52.7872 15.5718C52.581 15.5718 52.4934 15.5933 52.3975 15.5995V17.6456H52.3976Z" fill="#211E1F"/>
<path d="M55.5975 20.1467C55.3675 20.1467 55.149 20.1191 54.9233 20.1191C54.7137 20.1191 54.4947 20.1467 54.2552 20.1353C53.7285 19.4443 53.2771 18.7067 52.8333 17.9219H52.4275V19.361C52.4347 19.8777 52.6423 19.8734 52.9599 19.881H53.1137V19.9105V20.1467H53.0832C52.6908 20.1467 52.2923 20.1191 51.9023 20.1191C51.5742 20.1191 51.2523 20.1467 50.9075 20.1467H50.8774V20.1172V19.881H50.9075H51.0308C51.2784 19.8796 51.487 19.772 51.488 19.5405V16.0511C51.4828 15.5634 51.2442 15.5663 51.0308 15.5592H50.8774V15.5296V15.293H50.9075C51.1299 15.293 51.5537 15.3201 51.9718 15.3201C52.3817 15.3201 52.7118 15.293 53.0775 15.293C53.9428 15.2949 54.7399 15.5339 54.7423 16.5311C54.7423 17.1515 54.3323 17.5386 53.8023 17.7549L54.9561 19.4824C55.148 19.7672 55.2675 19.8382 55.6018 19.881L55.627 19.8848V19.9105V20.1467H55.5975V20.1467ZM52.3976 17.8619H52.8671L52.8752 17.8771C53.3228 18.6662 53.7737 19.4071 54.2794 20.0881C54.489 20.0881 54.7094 20.06 54.9233 20.06C55.1427 20.06 55.3542 20.0838 55.568 20.0871V19.9366C55.2456 19.8966 55.0947 19.8004 54.9071 19.5152L53.7123 17.7271L53.7461 17.7133C54.2832 17.5019 54.6809 17.1347 54.6813 16.5309C54.6809 15.578 53.9408 15.3571 53.0775 15.3533C52.7151 15.3533 52.3856 15.3804 51.9718 15.3804C51.5685 15.3804 51.1613 15.3552 50.9365 15.3533V15.499H51.0308C51.2442 15.4995 51.5479 15.5347 51.5479 16.051V19.5404C51.5479 19.8162 51.2893 19.9419 51.0308 19.9423H50.9365V20.0871C51.2671 20.0861 51.5799 20.06 51.9023 20.06C52.2865 20.06 52.6737 20.0862 53.0537 20.0871V19.9423H52.9599C52.6465 19.9418 52.3675 19.9028 52.3675 19.3609V17.8619H52.3975H52.3976ZM52.3976 17.6733H52.3675V15.5704L52.3937 15.5681C52.4875 15.561 52.5804 15.5414 52.788 15.5414C53.4138 15.5414 53.8204 15.9481 53.8213 16.5742C53.8194 17.3942 53.4261 17.6728 52.7337 17.6733H52.3976V17.6733ZM52.7337 17.6143C53.4136 17.6085 53.7556 17.3724 53.7628 16.5743C53.759 15.9743 53.3861 15.6019 52.788 15.5995C52.6022 15.5995 52.5151 15.6166 52.4275 15.6243V17.6143H52.7337Z" fill="#211E1F"/>
<path d="M60.2598 18.7647L60.2722 18.7514V16.1762C60.2722 15.6124 59.8813 15.5305 59.6756 15.5305H59.5251V15.3242C59.8475 15.3242 60.1628 15.3514 60.4861 15.3514C60.768 15.3514 61.0485 15.3242 61.3318 15.3242V15.5305H61.2285C60.9399 15.5305 60.617 15.5852 60.617 16.4024V19.5281C60.617 19.7681 60.6237 20.0081 60.6575 20.221H60.3971L56.8609 16.2786V19.1086C56.8609 19.7062 56.9775 19.9115 57.5061 19.9115H57.6228V20.1186C57.328 20.1186 57.0323 20.0915 56.7376 20.0915C56.4275 20.0915 56.1118 20.1186 55.8032 20.1186V19.9115H55.8985C56.3728 19.9115 56.517 19.5895 56.517 19.0405V16.1476C56.517 15.7634 56.2013 15.5305 55.8928 15.5305H55.8032V15.3243C56.0633 15.3243 56.3323 15.3514 56.5928 15.3514C56.7976 15.3514 56.9975 15.3243 57.2037 15.3243L60.2598 18.7647Z" fill="#211E1F"/>
<path d="M60.6574 20.2496L60.3746 20.2401L56.8894 16.3553V19.1073C56.8975 19.7049 56.988 19.8743 57.506 19.8811H57.6513V19.9106V20.1468H57.6213C57.3242 20.1468 57.0298 20.1186 56.7355 20.1186C56.4289 20.1186 56.1117 20.1468 55.8027 20.1468H55.7717V20.1177V19.8811H55.8027H55.8979C56.3512 19.8792 56.4813 19.5873 56.4855 19.0377V16.1468C56.4851 15.781 56.1856 15.5592 55.8923 15.5586H55.7717V15.5296V15.293H55.8027C56.0646 15.293 56.3332 15.3201 56.5922 15.3201C56.7941 15.3201 56.9932 15.293 57.2236 15.3024L60.2423 18.7015V16.1748C60.2403 15.6291 59.8746 15.5615 59.6751 15.5587H59.4936V15.5296V15.293H59.5237C59.8484 15.293 60.1646 15.3201 60.4855 15.3201C60.7656 15.3201 61.047 15.293 61.3298 15.293H61.3598V15.3239V15.5587H61.3298H61.2279C60.9446 15.5663 60.6526 15.5915 60.6455 16.4015V19.5267C60.6455 19.7667 60.6517 20.0048 60.6865 20.2163L60.6903 20.2496H60.6574ZM60.3965 20.1896H60.6222C60.5922 19.9834 60.5855 19.7548 60.5855 19.5267V16.4015C60.586 15.5772 60.9336 15.501 61.2279 15.4986H61.2998V15.3534C61.0303 15.3553 60.7584 15.3801 60.4855 15.3801C60.1703 15.3801 59.864 15.3553 59.5531 15.3534V15.4986H59.6751C59.8864 15.501 60.3027 15.5934 60.3027 16.1748L60.2932 18.771L60.2798 18.7853L60.2589 18.8072L57.2027 15.3534C56.9989 15.3534 56.7998 15.3801 56.5923 15.3801C56.338 15.3801 56.0813 15.3553 55.8313 15.3534V15.4987H55.8922C56.2146 15.5011 56.5456 15.7444 56.5456 16.1468V19.0377C56.5456 19.5891 56.3903 19.9401 55.898 19.942L55.8313 19.9415V20.0867C56.128 20.0853 56.4342 20.0605 56.7356 20.0605C57.0237 20.0605 57.309 20.0853 57.5927 20.0867V19.942H57.5061C56.9652 19.9415 56.8299 19.7049 56.829 19.1072V16.2015L60.3965 20.1896ZM60.2422 18.7505V18.7481L60.2369 18.7429L60.2422 18.7505Z" fill="#211E1F"/>
<path d="M62.436 19.1366C62.3665 19.3695 62.2836 19.5495 62.2836 19.6719C62.2836 19.8785 62.5727 19.9119 62.7984 19.9119H62.8751V20.119C62.5999 20.1042 62.3193 20.0919 62.0427 20.0919C61.7956 20.0919 61.5498 20.1043 61.3022 20.119V19.9119H61.3436C61.6112 19.9119 61.8384 19.7542 61.9398 19.4652L63.0398 16.3137C63.1284 16.0594 63.2532 15.7161 63.2947 15.4614C63.5132 15.3866 63.7884 15.2495 63.9185 15.1666C63.9399 15.1595 63.9518 15.1523 63.9732 15.1523C63.9937 15.1523 64.007 15.1523 64.0222 15.1738C64.0422 15.2281 64.0622 15.2904 64.0842 15.3452L65.3475 18.9376C65.4299 19.1776 65.5112 19.4314 65.6004 19.6381C65.6832 19.8304 65.828 19.9119 66.0551 19.9119H66.0956V20.119C65.7866 20.1042 65.4771 20.0919 65.1485 20.0919C64.8118 20.0919 64.4675 20.1043 64.1175 20.119V19.9119H64.1937C64.3509 19.9119 64.6195 19.8852 64.6195 19.7133C64.6195 19.6242 64.5575 19.439 64.4809 19.2185L64.2137 18.4219H62.6552L62.436 19.1366ZM63.4379 16.0938H63.4241L62.7855 18.0376H64.0689L63.4379 16.0938Z" fill="#211E1F"/>
<path d="M66.0934 20.1468C65.7843 20.133 65.4753 20.1187 65.1481 20.1187C64.8115 20.1187 64.4695 20.133 64.1181 20.1468L64.0871 20.1487V20.1177V19.8801H64.1172H64.1929C64.3519 19.8801 64.5881 19.8439 64.5881 19.7121C64.59 19.6339 64.5281 19.4454 64.4524 19.2268L64.1909 18.4502H62.6762L62.4629 19.1439C62.3933 19.3782 62.311 19.5597 62.3115 19.6716C62.3138 19.8392 62.5705 19.8801 62.7981 19.8801H62.9038V19.9111V20.1487L62.8729 20.1468C62.5981 20.133 62.3176 20.1187 62.0438 20.1187C61.7976 20.1187 61.5501 20.133 61.3039 20.1468L61.272 20.1487V20.1177V19.8801H61.3019H61.3429C61.5986 19.8792 61.812 19.734 61.911 19.4545L63.0105 16.3026C63.1006 16.0478 63.2244 15.7054 63.2839 15.4316C63.4991 15.3587 63.7748 15.2207 63.9072 15.1368C63.9263 15.1307 63.9454 15.1211 63.9735 15.1211C63.9901 15.1207 64.0272 15.1249 64.0492 15.1612C64.0687 15.2178 64.0901 15.2788 64.111 15.3345L65.3758 18.9265C65.4568 19.1674 65.5387 19.4212 65.6283 19.624C65.7078 19.8074 65.834 19.8793 66.0549 19.8802H66.1249V19.9112V20.1488L66.0934 20.1468ZM64.1471 20.0854C64.4872 20.0735 64.82 20.0601 65.1481 20.0601C65.4671 20.0601 65.7657 20.0735 66.0642 20.0854V19.942H66.0547C65.8195 19.9434 65.6571 19.8511 65.5728 19.6487C65.4833 19.4401 65.3995 19.1854 65.3191 18.9449L64.0547 15.3535C64.0338 15.2987 64.0138 15.2363 63.9957 15.1877C63.99 15.1811 63.9914 15.1811 63.9857 15.1811H63.9733C63.959 15.1811 63.9509 15.1854 63.9333 15.1901C63.8009 15.2763 63.5253 15.4111 63.3218 15.4649C63.2795 15.7249 63.1562 16.0677 63.0666 16.322L61.9676 19.4744C61.8629 19.7725 61.6224 19.9425 61.3429 19.942H61.3319V20.0854C61.5671 20.0735 61.8052 20.0601 62.0438 20.0601C62.309 20.0601 62.5805 20.0735 62.8424 20.0854V19.942H62.7981C62.5748 19.9391 62.2624 19.9139 62.2538 19.6715C62.2543 19.5344 62.3386 19.3587 62.4056 19.1268L62.4357 19.1358L62.4056 19.1258L62.6318 18.3915H64.2328L64.5085 19.2077C64.5857 19.4282 64.648 19.6111 64.648 19.712C64.6385 19.923 64.3485 19.9377 64.1928 19.942H64.1471L64.1471 20.0854ZM62.7434 18.0658L63.4009 16.0625H63.4238H63.4381H63.4586L64.1105 18.0658H62.7434ZM62.8257 18.0063H64.0276L63.4299 16.1658L62.8257 18.0063Z" fill="#211E1F"/>
<path d="M66.3976 15.6655C65.8823 15.6655 65.8619 15.7894 65.7584 16.2903H65.5522C65.5794 16.0984 65.6142 15.9065 65.6357 15.7065C65.6632 15.5141 65.6757 15.3226 65.6757 15.1236H65.8413C65.8961 15.3298 66.0685 15.3227 66.2528 15.3227H69.7971C69.9814 15.3227 70.1529 15.316 70.1671 15.1094L70.3314 15.137C70.3051 15.3227 70.2781 15.5079 70.2571 15.6936C70.2423 15.8789 70.2423 16.0646 70.2423 16.2493L70.0366 16.326C70.0237 16.0722 69.9895 15.6655 69.529 15.6655H68.4028V19.3198C68.4028 19.8493 68.6438 19.9099 68.9724 19.9099H69.1028V20.117C68.8352 20.117 68.3552 20.0899 67.9837 20.0899C67.5723 20.0899 67.0909 20.117 66.8233 20.117V19.9099H66.9533C67.3318 19.9099 67.5242 19.876 67.5242 19.3341V15.6655H66.3976Z" fill="#211E1F"/>
<path d="M69.1025 20.1496C68.8329 20.1496 68.352 20.122 67.9834 20.122C67.5729 20.122 67.0919 20.1496 66.8229 20.1496H66.7925V20.1206V19.8839H66.8229H66.9529C67.3314 19.8748 67.4834 19.8701 67.4929 19.3376L67.4919 15.6991H66.3972V15.6691V15.6386H67.5524V19.3376C67.5524 19.8886 67.33 19.9429 66.9529 19.9443H66.852V20.091C67.1238 20.0881 67.5848 20.0634 67.9834 20.0634C68.3419 20.0634 68.801 20.0882 69.0724 20.091V19.9443H68.971C68.6409 19.9429 68.3734 19.8634 68.3725 19.3234V15.6386H69.5286C69.9896 15.6405 70.05 16.0324 70.0629 16.2872L70.2129 16.2324C70.2129 16.0534 70.2134 15.8738 70.2267 15.6938C70.2458 15.5172 70.2714 15.341 70.2968 15.1657L70.1929 15.1481C70.1615 15.3481 69.9677 15.3591 69.7968 15.3562H66.2524H66.2177C66.0558 15.3581 65.8805 15.3486 65.8181 15.1557H65.7058C65.7038 15.3462 65.6909 15.531 65.6638 15.7138C65.6458 15.9029 65.6119 16.0848 65.5862 16.2653H65.7334C65.8243 15.7866 65.8839 15.6314 66.3972 15.6386V15.6691L66.3971 15.6991C65.8881 15.7077 65.8996 15.7938 65.7871 16.3015L65.7819 16.3248H65.7581H65.5171L65.5214 16.2905C65.5499 16.0967 65.5842 15.9052 65.6042 15.7066C65.6323 15.5147 65.6457 15.3243 65.6457 15.1271V15.0971H65.6752H65.8628L65.8685 15.1186C65.9166 15.2919 66.0418 15.2928 66.2176 15.2957L66.2523 15.2966H69.7967C69.9862 15.2929 70.1247 15.29 70.1366 15.111L70.1386 15.0781L70.1709 15.0848L70.3657 15.1153L70.3605 15.1453C70.3324 15.3291 70.3062 15.5148 70.2853 15.6991C70.2714 15.882 70.2714 16.0682 70.2714 16.2529V16.2744L70.252 16.282L70.0086 16.3706L70.0072 16.3305C69.9896 16.0725 69.9624 15.6991 69.5286 15.6991H68.432V19.3234C68.4391 19.8415 68.6443 19.8772 68.971 19.8838H69.1319V19.9134V20.1496L69.1025 20.1496Z" fill="#211E1F"/>
<path d="M70.5847 19.9114H70.681C70.929 19.9114 71.1885 19.8781 71.1885 19.5204V15.9223C71.1885 15.5642 70.929 15.5304 70.681 15.5304H70.5847V15.3242C70.8529 15.3242 71.2643 15.3514 71.6 15.3514C71.9447 15.3514 72.3567 15.3242 72.6795 15.3242V15.5304H72.5833C72.3362 15.5304 72.0743 15.5642 72.0743 15.9223V19.5204C72.0743 19.8781 72.3362 19.9114 72.5833 19.9114H72.6795V20.1186C72.3495 20.1186 71.9371 20.0914 71.5948 20.0914C71.2576 20.0914 70.8529 20.1186 70.5847 20.1186V19.9114Z" fill="#211E1F"/>
<path d="M72.6799 20.1497C72.348 20.1497 71.937 20.1216 71.5947 20.1216C71.2589 20.1216 70.8533 20.1497 70.5851 20.1497H70.5552V20.1207V19.9135V19.884H70.5851H70.6814C70.9294 19.8802 71.1571 19.8588 71.158 19.5226V15.9244C71.1571 15.5892 70.9294 15.5663 70.6814 15.5616H70.5552V15.5326V15.2969H70.5851C70.8533 15.2969 71.2657 15.3231 71.6004 15.3231C71.9428 15.3231 72.3547 15.2969 72.6799 15.2969H72.709V15.3264V15.5616H72.6799H72.5837C72.3327 15.5664 72.1075 15.5892 72.1042 15.9244V19.5226C72.1075 19.8588 72.3328 19.8802 72.5837 19.884H72.709V19.9135V20.1497H72.6799ZM72.649 20.0897V19.9444H72.5837C72.3375 19.9444 72.0461 19.9012 72.0461 19.5226V15.9244C72.0461 15.5449 72.3375 15.5021 72.5837 15.5021H72.649V15.3564C72.3318 15.3583 71.9352 15.383 71.6004 15.383C71.2751 15.383 70.8813 15.3583 70.6152 15.3564V15.5021H70.6814C70.9257 15.5021 71.2181 15.5449 71.219 15.9244V19.5226C71.218 19.9011 70.9257 19.9444 70.6814 19.9444H70.6152V20.0897C70.88 20.0868 71.2686 20.0635 71.5947 20.0635C71.9276 20.0635 72.3252 20.0883 72.649 20.0897Z" fill="#211E1F"/>
<path d="M75.4181 15.2227C76.8819 15.2227 78.0485 16.1303 78.0485 17.5927C78.0485 19.1727 76.9156 20.2227 75.4538 20.2227C73.9966 20.2227 72.8853 19.2336 72.8853 17.7569C72.8853 16.3288 73.99 15.2227 75.4181 15.2227ZM75.5219 19.9203C76.8542 19.9203 77.0862 18.745 77.0862 17.7436C77.0862 16.7398 76.5452 15.5246 75.4048 15.5246C74.2029 15.5246 73.8462 16.596 73.8462 17.5155C73.8462 18.745 74.4091 19.9203 75.5219 19.9203Z" fill="#211E1F"/>
<path d="M72.854 17.7557C72.8569 16.3109 73.975 15.1933 75.4173 15.1914V15.2214V15.2504C74.006 15.2504 72.9135 16.3424 72.9122 17.7556C72.9155 19.2156 74.0112 20.1899 75.4531 20.1904C76.9007 20.1899 78.0174 19.1547 78.0197 17.59C78.0183 16.1462 76.8692 15.2523 75.4174 15.2504V15.2214V15.1914C76.8926 15.1924 78.075 16.109 78.0779 17.59C78.0765 19.1866 76.9288 20.2476 75.4531 20.2504C73.9845 20.2475 72.8569 19.2485 72.8541 17.7556H72.854V17.7557ZM73.816 17.5143C73.8179 16.5905 74.1788 15.4924 75.4045 15.4924C76.5702 15.4953 77.1145 16.7334 77.1164 17.7424C77.1145 18.7438 76.8789 19.9476 75.5217 19.9476V19.9191V19.8895C76.8274 19.8876 77.0536 18.7438 77.0569 17.7424C77.0569 16.7467 76.5207 15.5548 75.4045 15.5533C74.2264 15.5547 73.8778 16.5995 73.8755 17.5143C73.8765 18.7376 74.4341 19.8866 75.5217 19.8895V19.9191V19.9476C74.3817 19.9462 73.8179 18.751 73.816 17.5143Z" fill="#211E1F"/>
<path d="M82.6764 18.7647L82.6902 18.7514V16.1762C82.6902 15.6124 82.2979 15.5305 82.0917 15.5305H81.9431V15.3242C82.265 15.3242 82.5807 15.3514 82.9026 15.3514C83.185 15.3514 83.4664 15.3242 83.7483 15.3242V15.5305H83.6445C83.3568 15.5305 83.0335 15.5852 83.0335 16.4024V19.5281C83.0335 19.7681 83.0402 20.0081 83.075 20.221H82.8145L79.2773 16.2786V19.1086C79.2773 19.7062 79.3935 19.9115 79.9221 19.9115H80.0397V20.1186C79.744 20.1186 79.4493 20.0915 79.154 20.0915C78.8449 20.0915 78.5283 20.1186 78.2192 20.1186V19.9115H78.3159C78.7907 19.9115 78.933 19.5895 78.933 19.0405V16.1476C78.933 15.7634 78.6187 15.5305 78.3087 15.5305H78.2192V15.3243C78.4801 15.3243 78.7482 15.3514 79.0088 15.3514C79.215 15.3514 79.4135 15.3243 79.6202 15.3243L82.6764 18.7647Z" fill="#211E1F"/>
<path d="M83.075 20.2525L82.7908 20.2425L79.3065 16.3583V19.1107C79.314 19.7078 79.405 19.8769 79.9207 19.8831H80.0693V19.914V20.1497H80.0393C79.7416 20.1497 79.4469 20.1221 79.1536 20.1221C78.8454 20.1221 78.5302 20.1497 78.2183 20.1497H78.1897V20.1202V19.8831H78.2183H78.3155C78.7683 19.8817 78.8983 19.5903 78.904 19.0426V16.1497C78.903 15.784 78.6035 15.5621 78.3083 15.5616H78.1897V15.5326V15.2969H78.2183C78.4816 15.2969 78.7492 15.3231 79.0083 15.3231C79.2121 15.3231 79.4102 15.2969 79.6426 15.3069L82.6597 18.7045V16.1788C82.6578 15.6322 82.2921 15.5664 82.0911 15.5617H81.9107V15.5327V15.297H81.9417C82.2649 15.297 82.5816 15.3232 82.9011 15.3232C83.183 15.3232 83.463 15.297 83.7478 15.297H83.7773V15.3264V15.5617H83.7478H83.6439C83.3615 15.5698 83.0692 15.5955 83.0635 16.4045V19.5298C83.0635 19.7698 83.0687 20.0093 83.1021 20.2193L83.1077 20.2526H83.075V20.2525ZM82.8142 20.1925H83.0389C83.0089 19.9864 83.0037 19.7578 83.0037 19.5297V16.4044C83.0037 15.5787 83.3499 15.504 83.6442 15.5016H83.7184V15.3564C83.4475 15.3583 83.1761 15.383 82.9014 15.383C82.5889 15.383 82.2817 15.3583 81.9708 15.3564V15.5016H82.0913C82.3042 15.504 82.7184 15.5978 82.7184 16.1787L82.7109 18.774L82.698 18.7883L82.6761 18.8102L79.6199 15.3564C79.4176 15.3564 79.217 15.3831 79.0085 15.3831C78.7556 15.3831 78.498 15.3583 78.248 15.3564V15.5016H78.3085C78.6309 15.504 78.9627 15.7474 78.9627 16.1497V19.0426C78.9627 19.5916 78.8095 19.9431 78.3156 19.945L78.248 19.9444V20.0897C78.5461 20.0883 78.8518 20.0635 79.1537 20.0635C79.4399 20.0635 79.7242 20.0883 80.0095 20.0897V19.945H79.9208C79.3819 19.9444 79.2471 19.7078 79.2471 19.1106V16.2035L82.8142 20.1925ZM82.6598 18.7535V18.7511L82.6541 18.7459L82.6598 18.7535Z" fill="#211E1F"/>
<path d="M84.8514 19.1366C84.7843 19.3695 84.7009 19.5495 84.7009 19.6719C84.7009 19.8785 84.99 19.9119 85.2153 19.9119H85.2919V20.119C85.0171 20.1042 84.7353 20.0919 84.4605 20.0919C84.2124 20.0919 83.9662 20.1043 83.72 20.119V19.9119H83.759C84.0281 19.9119 84.2557 19.7542 84.3572 19.4652L85.4572 16.3137C85.5457 16.0594 85.67 15.7161 85.7101 15.4614C85.93 15.3866 86.2043 15.2495 86.3362 15.1666C86.3557 15.1595 86.3695 15.1523 86.3905 15.1523C86.411 15.1523 86.4238 15.1523 86.4376 15.1738C86.4585 15.2281 86.4801 15.2904 86.5005 15.3452L87.7634 18.9376C87.8457 19.1776 87.9277 19.4314 88.0181 19.6381C88.1005 19.8304 88.2453 19.9119 88.471 19.9119H88.5129V20.119C88.2034 20.1042 87.8943 20.0919 87.5643 20.0919C87.2286 20.0919 86.8848 20.1043 86.5343 20.119V19.9119H86.6106C86.7672 19.9119 87.0367 19.8852 87.0367 19.7133C87.0367 19.6242 86.9743 19.439 86.8977 19.2185L86.631 18.4219H85.072L84.8514 19.1366ZM85.8552 16.0938H85.8414L85.2019 18.0376H86.4871L85.8552 16.0938Z" fill="#211E1F"/>
<path d="M88.51 20.1497C88.2009 20.1373 87.8924 20.1221 87.5643 20.1221C87.2295 20.1221 86.8857 20.1373 86.5352 20.1497L86.5048 20.1516V20.1202V19.884H86.5343H86.609C86.769 19.884 87.0057 19.8468 87.0062 19.7149C87.0076 19.6368 86.9457 19.4497 86.8691 19.2297L86.6081 18.453H85.0924L84.88 19.1468C84.8115 19.382 84.7295 19.5625 84.731 19.6735C84.731 19.8421 84.988 19.884 85.2153 19.884H85.32V19.9135V20.1516L85.2896 20.1497C85.0147 20.1373 84.7338 20.1221 84.4605 20.1221C84.2143 20.1221 83.9676 20.1373 83.72 20.1497L83.6899 20.1516V20.1202V19.884H83.72H83.759C84.0152 19.883 84.2295 19.7359 84.3295 19.4573L85.4286 16.3054C85.5162 16.0507 85.6399 15.7083 85.7009 15.4354C85.9167 15.3607 86.1923 15.2235 86.3257 15.1397C86.3437 15.1335 86.3624 15.1254 86.3904 15.1254C86.4086 15.1235 86.4437 15.1278 86.4657 15.1654C86.4861 15.2192 86.5061 15.2816 86.529 15.3373L87.7918 18.9292C87.8738 19.1702 87.9562 19.424 88.0452 19.6283C88.1256 19.8102 88.2509 19.8821 88.4699 19.884H88.5414V19.9135V20.1516L88.51 20.1497ZM86.5638 20.0892C86.9033 20.0763 87.2377 20.063 87.5643 20.063C87.8838 20.063 88.1834 20.0763 88.4824 20.0882L88.4814 19.9448H88.47C88.2376 19.9454 88.0753 19.8539 87.99 19.6516C87.8995 19.443 87.8177 19.1882 87.7357 18.9487L86.4718 15.3563C86.4514 15.3016 86.4305 15.2392 86.4138 15.1925C86.408 15.1839 86.4086 15.1839 86.4033 15.1839H86.3904C86.3762 15.1839 86.3685 15.1887 86.3518 15.1935C86.218 15.2778 85.9427 15.4148 85.7395 15.4678C85.697 15.7278 85.5723 16.0701 85.4838 16.3249L84.3843 19.4773C84.2799 19.7754 84.04 19.9454 83.759 19.9448H83.7489V20.0882C83.9852 20.0763 84.2213 20.063 84.4604 20.063C84.7266 20.063 84.9975 20.0763 85.2618 20.0882V19.9448H85.2152C84.9919 19.942 84.6785 19.9178 84.6705 19.6735C84.6718 19.5373 84.757 19.3625 84.8233 19.1297L84.8514 19.1387L84.8233 19.1287L85.0495 18.3944H86.6509L86.9261 19.2106C87.0018 19.4316 87.0642 19.6139 87.0642 19.7149C87.0542 19.9258 86.7661 19.9406 86.6089 19.9448H86.5637V20.0892H86.5638ZM85.1609 18.0683L85.8195 16.0654H85.8404H85.8552H85.8767L86.5257 18.0683H85.1609ZM85.2433 18.0092H86.4443L85.8471 16.1697L85.2433 18.0092Z" fill="#211E1F"/>
<path d="M90.2433 19.4452C90.2433 19.72 90.4338 19.8018 90.6538 19.8299C90.9352 19.8509 91.2443 19.8509 91.5615 19.8161C91.8491 19.7814 92.0967 19.6166 92.2195 19.4452C92.3291 19.2937 92.391 19.1014 92.4324 18.9504H92.6314C92.5562 19.3418 92.46 19.7276 92.3772 20.1185C91.7743 20.1185 91.1686 20.0914 90.5652 20.0914C89.96 20.0914 89.3567 20.1185 88.7524 20.1185V19.9113H88.8467C89.0953 19.9113 89.3639 19.878 89.3639 19.4518V15.9223C89.3639 15.5642 89.0952 15.5304 88.8467 15.5304H88.7524V15.3242C89.1153 15.3242 89.4729 15.3514 89.8362 15.3514C90.1876 15.3514 90.5305 15.3242 90.881 15.3242V15.5304H90.7081C90.4481 15.5304 90.2433 15.538 90.2433 15.9009V19.4452Z" fill="#211E1F"/>
<path d="M92.3774 20.1497C91.7722 20.1497 91.168 20.1221 90.5656 20.1221C89.9607 20.1221 89.3565 20.1497 88.7513 20.1497H88.7222V20.1202V19.884H88.7513H88.847C89.096 19.8783 89.3313 19.8611 89.3341 19.454V15.9231C89.3312 15.5893 89.0974 15.5664 88.847 15.5616H88.7222V15.5326V15.2969H88.7513C89.1165 15.2969 89.4741 15.3231 89.8369 15.3231C90.1855 15.3231 90.5284 15.2969 90.8812 15.2969H90.9094V15.3264V15.5616H90.8812H90.7089C90.4427 15.5692 90.277 15.5568 90.2717 15.9031V19.4474C90.2736 19.7031 90.4413 19.7721 90.6556 19.8021C90.777 19.8107 90.9041 19.8159 91.0366 19.8159C91.2046 19.8159 91.3794 19.8078 91.5566 19.7888C91.8365 19.756 92.0775 19.5945 92.1956 19.4307C92.3013 19.284 92.3623 19.0954 92.4032 18.9454L92.4094 18.9226H92.4322H92.668L92.6617 18.9588C92.5842 19.3517 92.4899 19.7355 92.4066 20.1264L92.4009 20.1498H92.3776H92.3774V20.1497ZM92.3526 20.0897C92.4322 19.7173 92.5222 19.353 92.596 18.9815H92.455C92.4122 19.1311 92.3512 19.3154 92.2432 19.4654C92.115 19.6434 91.8607 19.8111 91.5631 19.8477C91.3832 19.8663 91.205 19.8758 91.0365 19.8758C90.9036 19.8758 90.7746 19.8696 90.6503 19.861C90.427 19.8363 90.2103 19.741 90.2113 19.4473V15.903C90.2113 15.5215 90.4526 15.502 90.7088 15.502H90.8507V15.3563C90.5122 15.3582 90.1789 15.3834 89.8369 15.3834C89.4812 15.3834 89.1335 15.3582 88.7812 15.3563V15.502H88.8469C89.0922 15.502 89.3921 15.5449 89.3921 15.923V19.4539C89.3921 19.8982 89.0935 19.9444 88.8469 19.9444H88.7812V20.0896C89.375 20.0892 89.9688 20.0634 90.5655 20.0634C91.1622 20.0634 91.7585 20.0892 92.3526 20.0897Z" fill="#211E1F"/>
<path d="M92.5481 15.1289C92.9619 15.1289 93.2709 15.447 93.2709 15.8546C93.2709 16.2603 92.9619 16.5756 92.5481 16.5756C92.1342 16.5756 91.8247 16.2603 91.8247 15.8546C91.8247 15.447 92.1342 15.1289 92.5481 15.1289ZM92.5481 16.4408C92.8714 16.4408 93.12 16.1646 93.12 15.8546C93.12 15.5427 92.8752 15.2641 92.5481 15.2641C92.2229 15.2641 91.9742 15.5428 91.9742 15.8546C91.9742 16.1646 92.2229 16.4408 92.5481 16.4408ZM92.188 16.2356V16.1999C92.277 16.1875 92.2932 16.1903 92.2932 16.1351V15.5999C92.2932 15.5247 92.2851 15.499 92.1914 15.5027V15.466H92.5614C92.689 15.466 92.8056 15.5265 92.8056 15.658C92.8056 15.7656 92.7342 15.8451 92.6347 15.876L92.7532 16.0417C92.8089 16.117 92.8713 16.1875 92.9128 16.2122V16.2355H92.7719C92.7042 16.2355 92.6452 16.0931 92.5118 15.9022H92.4318V16.1427C92.4318 16.1903 92.4485 16.1874 92.5376 16.1998V16.2355L92.188 16.2356ZM92.4318 15.8546H92.5171C92.6104 15.8546 92.6542 15.7837 92.6542 15.6699C92.6542 15.5546 92.5866 15.5141 92.5123 15.5141H92.4318V15.8546Z" fill="#211E1F"/>
</g>
<defs>
<clipPath id="clip0_21817_22249">
<rect width="92.619" height="24" fill="white" transform="translate(0.651855)"/>
</clipPath>
</defs>
</svg>
