<svg width="48" height="28" viewBox="0 0 48 28" fill="none" xmlns="http://www.w3.org/2000/svg">
<g clip-path="url(#clip0_21817_22092)">
<path d="M46.8862 14.0756C46.8883 21.6879 40.719 27.86 33.1067 27.8621C25.4943 27.8639 19.3223 21.6949 19.3203 14.0826C19.3203 14.0802 19.3203 14.0781 19.3203 14.0756C19.3183 6.46353 25.4876 0.291085 33.0996 0.289063C40.712 0.287041 46.8841 6.45638 46.8862 14.0686C46.8862 14.071 46.8862 14.0732 46.8862 14.0756Z" fill="#FF9900"/>
<path d="M14.5262 0.293038C6.95905 0.341105 0.832031 6.49753 0.832031 14.076C0.832031 21.6841 7.00681 27.8589 14.615 27.8589C18.1858 27.8589 21.4407 26.4981 23.8899 24.2677C23.8899 24.2677 23.8894 24.2674 23.8888 24.2671H23.8917C24.3932 23.8101 24.861 23.317 25.291 22.7912H22.4672C22.0901 22.3357 21.7474 21.8611 21.4396 21.3714H26.3097C26.6059 20.8975 26.8741 20.4053 27.1121 19.8955H20.6355C20.4148 19.4223 20.2231 18.9384 20.0595 18.4475H27.6887C28.1485 17.0736 28.398 15.6037 28.398 14.0759C28.398 13.0629 28.2882 12.0753 28.0804 11.1244H19.6549C19.7593 10.635 19.891 10.1515 20.0481 9.67646H27.6801C27.5095 9.1709 27.3113 8.67826 27.0859 8.2007H20.6347C20.8674 7.70355 21.1311 7.21993 21.4256 6.75295H26.2921C25.9683 6.23697 25.6098 5.74402 25.2224 5.27704H22.509C22.9285 4.7833 23.3904 4.31835 23.8917 3.88482C21.4424 1.65415 18.1866 0.293038 14.615 0.293038C14.5853 0.293038 14.5559 0.292882 14.5262 0.293038Z" fill="#CC0000"/>
<path d="M45.5036 21.2812C45.5786 21.2812 45.6515 21.3007 45.7228 21.339C45.7943 21.3772 45.8494 21.4324 45.8892 21.5042C45.929 21.5751 45.949 21.6499 45.949 21.7274C45.949 21.8039 45.9292 21.878 45.89 21.9489C45.851 22.0197 45.7959 22.0749 45.725 22.1142C45.6548 22.153 45.5806 22.1726 45.5034 22.1726C45.4263 22.1726 45.3522 22.153 45.2816 22.1142C45.2108 22.0747 45.1561 22.0198 45.1163 21.9489C45.0771 21.878 45.0576 21.8039 45.0576 21.7274C45.0576 21.6499 45.0774 21.5751 45.1174 21.5042C45.1575 21.4324 45.2129 21.3777 45.2839 21.339C45.3558 21.3007 45.4288 21.2812 45.5036 21.2812ZM45.5036 21.3551C45.4412 21.3551 45.3802 21.3713 45.3207 21.4035C45.2616 21.4357 45.2153 21.4813 45.1821 21.5416C45.1483 21.6011 45.1315 21.6627 45.1315 21.7274C45.1315 21.7915 45.148 21.8534 45.1805 21.9122C45.2138 21.9708 45.2598 22.0169 45.3186 22.0498C45.3779 22.0827 45.4394 22.0988 45.5034 22.0988C45.5678 22.0988 45.6294 22.0827 45.6884 22.0498C45.7472 22.0169 45.7931 21.9708 45.8259 21.9122C45.8584 21.8534 45.8746 21.7916 45.8746 21.7274C45.8746 21.6627 45.8581 21.6009 45.8247 21.5416C45.7915 21.4813 45.7452 21.4357 45.6856 21.4035C45.6266 21.3712 45.566 21.3551 45.5036 21.3551ZM45.3082 21.9735V21.494H45.4734C45.5294 21.494 45.5702 21.4984 45.5954 21.5077C45.6206 21.5166 45.6406 21.5317 45.6557 21.5539C45.6705 21.5759 45.6781 21.5992 45.6781 21.6241C45.6781 21.6592 45.6657 21.6897 45.6405 21.7156C45.6159 21.7414 45.5825 21.7562 45.5411 21.7593C45.558 21.7663 45.5716 21.7751 45.5822 21.7848C45.6016 21.8034 45.6249 21.835 45.6529 21.8797L45.7113 21.9735H45.617L45.5747 21.898C45.5412 21.8386 45.5143 21.8016 45.4936 21.7863C45.4795 21.7756 45.4588 21.77 45.4319 21.77H45.3863V21.9739H45.3085M45.3857 21.7036H45.4796C45.5244 21.7036 45.5548 21.6967 45.5711 21.6835C45.5876 21.6698 45.5958 21.6524 45.5958 21.6303C45.5958 21.616 45.5921 21.6032 45.5842 21.5924C45.5761 21.581 45.5652 21.5729 45.551 21.5672C45.5372 21.5617 45.5114 21.5586 45.4737 21.5586H45.386V21.7036" fill="#FCB340"/>
<path d="M19.1893 18.0262L19.3728 16.7786C19.2725 16.7786 19.125 16.822 18.9947 16.822C18.4838 16.822 18.42 16.549 18.4602 16.3496L18.9635 13.8405H19.7401L19.9001 12.4245H19.1683L19.3173 11.5664H17.7863C17.7539 11.5988 16.9202 16.3921 16.9202 16.976C16.9202 17.8401 17.4052 18.2247 18.0893 18.2186C18.6247 18.2141 19.0421 18.0658 19.1893 18.0262Z" fill="#000066"/>
<path d="M19.6536 15.6486C19.6536 17.7225 21.0223 18.2151 22.1887 18.2151C23.2653 18.2151 23.8298 17.9656 23.8298 17.9656L24.0883 16.5501C24.0883 16.5501 23.1786 16.92 22.4393 16.92C20.8633 16.92 21.1396 15.7449 21.1396 15.7449L24.1672 15.7541C24.1672 15.7541 24.3599 14.8035 24.3599 14.416C24.3599 13.4489 23.833 12.2617 22.2218 12.2617C20.7462 12.262 19.6536 13.852 19.6536 15.6486ZM22.2274 13.5759C23.0556 13.5759 22.9028 14.5067 22.9028 14.5821H21.2735C21.2735 14.4857 21.4274 13.5759 22.2274 13.5759Z" fill="#000066"/>
<path d="M31.52 18.0273L31.7827 16.4276C31.7827 16.4276 31.0622 16.7886 30.5683 16.7886C29.5271 16.7886 29.1095 15.9937 29.1095 15.1396C29.1095 13.4072 30.0052 12.4539 31.0023 12.4539C31.7502 12.4539 32.3502 12.8738 32.3502 12.8738L32.5897 11.3193C32.5897 11.3193 31.8813 10.8077 31.1188 10.8047C28.8251 10.7957 27.5127 12.3926 27.5127 15.1533C27.5127 16.9831 28.4846 18.2283 30.2359 18.2283C30.731 18.2283 31.52 18.0273 31.52 18.0273Z" fill="#000066"/>
<path d="M11.1173 12.2852C10.111 12.2852 9.3398 12.6086 9.3398 12.6086L9.12669 13.8728C9.12669 13.8728 9.76338 13.6141 10.726 13.6141C11.2724 13.6141 11.6722 13.6755 11.6722 14.1196C11.6722 14.3894 11.6234 14.4889 11.6234 14.4889C11.6234 14.4889 11.1922 14.453 10.9924 14.453C9.55976 14.453 8.39014 14.9946 8.39014 16.6276C8.39014 17.9146 9.26483 18.2096 9.80694 18.2096C10.8425 18.2096 11.2524 17.5558 11.276 17.554L11.264 18.0966H12.5562L13.1327 14.0552C13.1327 12.3402 11.6369 12.2852 11.1173 12.2852ZM11.341 15.5668C11.3692 15.8135 11.2772 16.9801 10.3934 16.9801C9.9376 16.9801 9.81923 16.6317 9.81923 16.426C9.81923 16.0241 10.0375 15.542 11.1127 15.542C11.3631 15.542 11.2989 15.5601 11.341 15.5668Z" fill="#000066"/>
<path d="M14.5065 18.1786C14.837 18.1786 16.7266 18.2627 16.7266 16.3128C16.7266 14.4896 14.9775 14.85 14.9775 14.1173C14.9775 13.753 15.2626 13.6382 15.7839 13.6382C15.9906 13.6382 16.7868 13.704 16.7868 13.704L16.9717 12.4082C16.9717 12.4082 16.4565 12.293 15.6178 12.293C14.5322 12.293 13.4302 12.7263 13.4302 14.2091C13.4302 15.8894 15.2676 15.7206 15.2676 16.4284C15.2676 16.9008 14.7543 16.9397 14.3586 16.9397C13.674 16.9397 13.0576 16.7047 13.0555 16.716L12.8596 17.9986C12.8952 18.0095 13.2756 18.1786 14.5065 18.1786Z" fill="#000066"/>
<path d="M43.6249 11.1094L43.3596 13.0863C43.3596 13.0863 42.8069 12.3233 41.9422 12.3233C40.3153 12.3233 39.4768 13.9447 39.4768 15.8072C39.4768 17.0096 40.0748 18.1882 41.2967 18.1882C42.1757 18.1882 42.6631 17.5752 42.6631 17.5752L42.5985 18.0986H44.0262L45.1473 11.1201L43.6249 11.1094ZM42.9945 14.9518C42.9945 15.7269 42.6106 16.7624 41.8153 16.7624C41.287 16.7624 41.0394 16.3189 41.0394 15.6231C41.0394 14.4852 41.5504 13.7347 42.1955 13.7347C42.7234 13.7347 42.9945 14.0971 42.9945 14.9518Z" fill="#000066"/>
<path d="M3.17138 18.1037L4.06474 12.8351L4.19603 18.1037H5.20698L7.09309 12.8351L6.2576 18.1037H7.75996L8.91683 11.1159L6.53029 11.0977L5.11069 15.3761L5.0718 11.1159H2.88469L1.71118 18.1037H3.17138Z" fill="#000066"/>
<path d="M25.7816 18.1153C26.2087 15.6863 26.3609 13.768 27.6066 14.1653C27.7855 13.2251 28.2118 12.4075 28.4066 12.0096C28.4066 12.0096 28.345 11.918 27.96 11.918C27.3028 11.918 26.4253 13.2517 26.4253 13.2517L26.5564 12.4271H25.1897L24.2744 18.1151L25.7816 18.1153Z" fill="#000066"/>
<path d="M34.5938 12.2852C33.5871 12.2852 32.8158 12.6086 32.8158 12.6086L32.6029 13.8728C32.6029 13.8728 33.2399 13.6141 34.202 13.6141C34.7486 13.6141 35.1482 13.6755 35.1482 14.1196C35.1482 14.3894 35.0995 14.4889 35.0995 14.4889C35.0995 14.4889 34.6685 14.453 34.4687 14.453C33.0359 14.453 31.8665 14.9946 31.8665 16.6276C31.8665 17.9146 32.741 18.2096 33.2831 18.2096C34.3183 18.2096 34.7285 17.5558 34.752 17.554L34.7399 18.0966H36.0324L36.6087 14.0552C36.6089 12.3402 35.1131 12.2852 34.5938 12.2852ZM34.8172 15.5668C34.8452 15.8135 34.7533 16.9801 33.8695 16.9801C33.4135 16.9801 33.2952 16.6317 33.2952 16.426C33.2952 16.0241 33.5133 15.542 34.5887 15.542C34.8393 15.542 34.7752 15.5601 34.8172 15.5668Z" fill="#000066"/>
<path d="M38.0966 18.1141C38.3312 16.3271 38.7653 13.8183 39.9214 14.1641C40.1002 13.2239 39.9278 13.2264 39.543 13.2264C38.8853 13.2264 38.7397 13.2504 38.7397 13.2504L38.871 12.4258H37.5044L36.5891 18.114L38.0966 18.1141Z" fill="#000066"/>
<path d="M19.5714 17.5849L19.7551 16.3375C19.6548 16.3375 19.5072 16.3804 19.377 16.3804C18.8661 16.3804 18.8098 16.1088 18.8423 15.908L19.255 13.3628H20.0314L20.2188 11.983H19.4868L19.6358 11.125H18.1683C18.1359 11.1574 17.302 15.9508 17.302 16.5344C17.302 17.3986 17.7872 17.7834 18.4713 17.7772C19.007 17.7727 19.4242 17.6244 19.5714 17.5849Z" fill="white"/>
<path d="M20.0364 15.2074C20.0364 17.2812 21.4053 17.774 22.5715 17.774C23.6479 17.774 24.1216 17.5334 24.1216 17.5334L24.3801 16.118C24.3801 16.118 23.5613 16.4787 22.8218 16.4787C21.246 16.4787 21.5219 15.3038 21.5219 15.3038H24.5042C24.5042 15.3038 24.6968 14.3529 24.6968 13.9654C24.6968 12.9985 24.2155 11.8203 22.6043 11.8203C21.1287 11.8206 20.0364 13.4106 20.0364 15.2074ZM22.6099 13.1346C23.4381 13.1346 23.2853 14.0653 23.2853 14.1406H21.656C21.656 14.0444 21.81 13.1346 22.6099 13.1346Z" fill="white"/>
<path d="M31.9028 17.5836L32.1653 15.9837C32.1653 15.9837 31.4453 16.3448 30.9511 16.3448C29.9101 16.3448 29.4926 15.5499 29.4926 14.6959C29.4926 12.9634 30.3883 12.0104 31.3854 12.0104C32.1331 12.0104 32.7333 12.4302 32.7333 12.4302L32.9728 10.8757C32.9728 10.8757 32.0829 10.5156 31.32 10.5156C29.6259 10.5156 27.9778 11.9853 27.9778 14.7455C27.9778 16.5758 28.8677 17.7846 30.619 17.7846C31.1141 17.7847 31.9028 17.5836 31.9028 17.5836Z" fill="white"/>
<path d="M11.5001 11.8438C10.4938 11.8438 9.72237 12.1672 9.72237 12.1672L9.50942 13.4314C9.50942 13.4314 10.1461 13.1727 11.1085 13.1727C11.655 13.1727 12.0548 13.2341 12.0548 13.6782C12.0548 13.9479 12.0058 14.0475 12.0058 14.0475C12.0058 14.0475 11.5747 14.0114 11.3751 14.0114C10.106 14.0114 8.77271 14.5531 8.77271 16.1861C8.77271 17.4728 9.64739 17.7681 10.1895 17.7681C11.2249 17.7681 11.6712 17.0962 11.695 17.0942L11.6466 17.655H12.9388L13.5153 13.6135C13.5153 11.899 12.0196 11.8438 11.5001 11.8438ZM11.8144 15.1344C11.8424 15.3812 11.6597 16.5384 10.7761 16.5384C10.3203 16.5384 10.2018 16.1903 10.2018 15.9843C10.2018 15.5827 10.42 15.1005 11.4954 15.1005C11.7455 15.1008 11.7723 15.1275 11.8144 15.1344Z" fill="white"/>
<path d="M14.8884 17.7373C15.219 17.7373 17.1087 17.8213 17.1087 15.8714C17.1087 14.0485 15.3594 14.4086 15.3594 13.6762C15.3594 13.3116 15.6446 13.1968 16.1657 13.1968C16.3726 13.1968 17.1685 13.2626 17.1685 13.2626L17.3537 11.9668C17.3537 11.9668 16.8385 11.8516 15.9997 11.8516C14.9141 11.8516 13.8121 12.2849 13.8121 13.7677C13.8121 15.4479 15.6495 15.2792 15.6495 15.987C15.6495 16.4594 15.1362 16.4979 14.7406 16.4979C14.056 16.4979 13.4396 16.263 13.4374 16.2742L13.2417 17.5569C13.2772 17.5678 13.6573 17.7373 14.8884 17.7373Z" fill="white"/>
<path d="M44.0587 10.6781L43.7421 12.6423C43.7421 12.6423 43.1898 11.8793 42.325 11.8793C40.9804 11.8793 39.8596 13.5005 39.8596 15.3633C39.8596 16.5657 40.4574 17.7439 41.6795 17.7439C42.5585 17.7439 43.0459 17.131 43.0459 17.131L42.9813 17.6545H44.4087L45.5298 10.6758L44.0587 10.6781ZM43.3772 14.5079C43.3772 15.283 42.9934 16.3184 42.1978 16.3184C41.6697 16.3184 41.4222 15.8751 41.4222 15.1793C41.4222 14.0415 41.9332 13.2908 42.578 13.2908C43.1062 13.2907 43.3772 13.6536 43.3772 14.5079Z" fill="white"/>
<path d="M3.55385 17.6599L4.4472 12.3912L4.57834 17.6599H5.58945L7.47556 12.3912L6.64007 17.6599H8.14243L9.29945 10.6719H6.97623L5.5294 14.9595L5.45412 10.6719H3.31258L2.13892 17.6599H3.55385Z" fill="white"/>
<path d="M26.1645 17.6716C26.5916 15.2425 26.6708 13.27 27.6902 13.6311C27.8686 12.6909 28.0408 12.3272 28.2356 11.9293C28.2356 11.9293 28.1442 11.9102 27.9526 11.9102C27.2954 11.9102 26.8085 12.808 26.8085 12.808L26.9393 11.9834H25.5729L24.6575 17.6716H26.1645Z" fill="white"/>
<path d="M35.289 11.8438C34.2827 11.8438 33.5113 12.1672 33.5113 12.1672L33.2985 13.4314C33.2985 13.4314 33.9352 13.1727 34.8976 13.1727C35.4441 13.1727 35.8435 13.2341 35.8435 13.6782C35.8435 13.9479 35.7948 14.0475 35.7948 14.0475C35.7948 14.0475 35.3638 14.0114 35.1641 14.0114C33.895 14.0114 32.5618 14.5531 32.5618 16.1861C32.5618 17.4728 33.4363 17.7681 33.9784 17.7681C35.0138 17.7681 35.4601 17.0962 35.4837 17.0942L35.4357 17.655C35.4357 17.655 36.7274 17.655 36.7279 17.655L37.3042 13.6135C37.3043 11.899 35.8085 11.8438 35.289 11.8438ZM35.6038 15.1344C35.6318 15.3812 35.4489 16.5384 34.565 16.5384C34.1092 16.5384 33.991 16.1903 33.991 15.9843C33.991 15.5827 34.2093 15.1005 35.2845 15.1005C35.5346 15.1008 35.5612 15.1275 35.6038 15.1344Z" fill="white"/>
<path d="M38.4849 17.6716C38.9122 15.2425 38.9914 13.27 40.0104 13.6311C40.1892 12.6909 40.3615 12.3272 40.5561 11.9293C40.5561 11.9293 40.4648 11.9102 40.2732 11.9102C39.6159 11.9102 39.129 12.808 39.129 12.808L39.2599 11.9834H37.8935L36.978 17.6716H38.4849Z" fill="white"/>
<path d="M45.4973 16.793C45.5718 16.793 45.6452 16.8121 45.716 16.851C45.7874 16.8886 45.843 16.944 45.8828 17.0157C45.9228 17.087 45.9424 17.1612 45.9424 17.2388C45.9424 17.3155 45.9228 17.3895 45.8834 17.4603C45.8444 17.5311 45.7895 17.5866 45.7187 17.6257C45.6481 17.6645 45.574 17.6841 45.4972 17.6841C45.4197 17.6841 45.3456 17.6645 45.2749 17.6257C45.2042 17.5863 45.1495 17.5311 45.1103 17.4603C45.0705 17.3895 45.051 17.3155 45.051 17.2388C45.051 17.1612 45.0708 17.087 45.1108 17.0157C45.1509 16.944 45.2066 16.8889 45.2777 16.851C45.3494 16.8121 45.4228 16.793 45.4973 16.793ZM45.4973 16.8664C45.4349 16.8664 45.374 16.8826 45.3144 16.9151C45.255 16.9468 45.2088 16.9927 45.1753 17.0527C45.142 17.112 45.1252 17.1741 45.1252 17.2385C45.1252 17.3029 45.1414 17.3645 45.1739 17.4233C45.207 17.4819 45.2531 17.528 45.3125 17.5611C45.3713 17.5935 45.4328 17.6098 45.4973 17.6098C45.5614 17.6098 45.6233 17.5935 45.6821 17.5611C45.7409 17.528 45.787 17.4819 45.8196 17.4233C45.8524 17.364 45.8685 17.3029 45.8685 17.2385C45.8685 17.1741 45.8518 17.112 45.8185 17.0527C45.7854 16.9927 45.7392 16.9468 45.6795 16.9151C45.6204 16.8827 45.5599 16.8664 45.4973 16.8664ZM45.3021 17.4849V17.0053H45.4671C45.5233 17.0053 45.5644 17.0098 45.5893 17.019C45.6145 17.0275 45.6342 17.0429 45.6496 17.0652C45.6647 17.0873 45.6723 17.1105 45.6723 17.1353C45.6723 17.1703 45.6596 17.201 45.6344 17.2268C45.6098 17.2526 45.5766 17.2676 45.5353 17.2704C45.5518 17.2775 45.5654 17.2861 45.576 17.2957C45.5952 17.3147 45.6188 17.3464 45.6468 17.3908L45.7054 17.4847H45.6107L45.5686 17.4093C45.535 17.3497 45.508 17.3127 45.4875 17.2976C45.4734 17.2865 45.4527 17.2811 45.4254 17.2811H45.3802V17.485L45.3021 17.4849ZM45.3796 17.215H45.4735C45.5185 17.215 45.5488 17.2083 45.565 17.1949C45.5813 17.1819 45.5899 17.164 45.5899 17.1417C45.5899 17.1276 45.586 17.1148 45.5782 17.1041C45.5703 17.0926 45.5592 17.0843 45.5451 17.0786C45.5309 17.0731 45.5056 17.0703 45.4676 17.0703H45.3797V17.215" fill="white"/>
</g>
<defs>
<clipPath id="clip0_21817_22092">
<rect width="46.6667" height="28" fill="white" transform="translate(0.526367)"/>
</clipPath>
</defs>
</svg>
